<?xml version="1.0" encoding="UTF-8"?>
<svg xmlns="http://www.w3.org/2000/svg" width="56" height="56" viewBox="0 0 56 56" fill="none">
  <path d="M39.2166 42.6157V43.2882C39.2149 43.7504 38.9129 44.2093 38.3072 44.5613C37.0908 45.2688 35.1086 45.2688 33.8838 44.5613L28.8231 41.6397C28.2057 41.2826 27.8987 40.8171 27.9004 40.3499V39.6757C27.9004 40.1429 28.2074 40.6101 28.8231 40.9654L33.8855 43.8871C35.1102 44.5946 37.0908 44.5946 38.3089 43.8871C38.9129 43.5367 39.2166 43.0762 39.2166 42.6157Z" fill="#1B2A4F"></path>
  <path d="M38.2943 41.3254C39.5194 42.0327 39.5258 43.1804 38.3087 43.8877C37.0915 44.5951 35.1101 44.5951 33.885 43.8878L28.8237 40.9656C27.5985 40.2583 27.5932 39.1112 28.8103 38.4039C30.0275 37.6965 32.0078 37.6959 33.2329 38.4032L38.2943 41.3254Z" fill="#384E85"></path>
  <path d="M36.3107 37.5229L37.3215 36.9355L37.3103 42.0244L36.2996 42.6118L36.3107 37.5229Z" fill="#1B2A4F"></path>
  <path d="M36.3112 37.5228L36.3 42.6117L31.1611 39.6448L31.1723 34.5559L36.3112 37.5228Z" fill="#2E4277"></path>
  <path d="M45.8272 43.0632L45.8234 44.9359C45.8218 45.525 45.4078 45.7609 44.8951 45.4649L24.518 33.7002C24.0053 33.4042 23.594 32.6918 23.5957 32.1027L23.5995 30.23L45.8272 43.0632Z" fill="#6BB5FB"></path>
  <path d="M44.9442 28.4402C45.4569 28.7361 45.8682 29.4533 45.8665 30.0376L45.8276 43.0631L23.5999 30.2299L23.6388 17.2044C23.6404 16.6201 24.0544 16.3794 24.5671 16.6754L44.9442 28.4402Z" fill="#1B2A4F"></path>
  <path d="M45.2292 29.3378L45.1974 42.6991L24.2357 30.5967L24.2739 17.2416L45.2292 29.3378Z" fill="white"></path>
  <path d="M43.4644 52.547C43.4644 52.877 43.2342 53.2761 42.9464 53.4449L42.317 53.8057L21.1719 41.5177L21.8012 41.157C22.089 40.9919 22.3232 40.589 22.3193 40.259C22.3193 40.0978 22.2617 39.9827 22.1696 39.929L43.3148 52.2169C43.4069 52.2706 43.4644 52.3858 43.4644 52.547Z" fill="#6BB5FB"></path>
  <path d="M42.3179 54.1008L21.174 41.8133L21.1732 41.5193L42.3171 53.8068L42.3179 54.1008Z" fill="#4466FB"></path>
  <path d="M36.4514 56.0001L15.3076 43.7126L15.3068 43.4194L36.4506 55.7069L36.4514 56.0001Z" fill="#4466FB"></path>
  <path d="M43.4953 51.9061C43.3533 51.8217 43.1576 51.8332 42.9427 51.9599L36.4506 55.7058L15.3054 43.4178L21.7975 39.6719C22.0124 39.5452 22.2082 39.5337 22.3501 39.6182L43.4953 51.9061Z" fill="#6BB5FB"></path>
  <path d="M42.9428 51.9578C43.3703 51.711 43.7185 51.9094 43.7199 52.3998C43.7213 52.8902 43.3754 53.4902 42.9479 53.7371L42.3181 54.1007L42.3172 53.8066L42.947 53.443C43.2336 53.2776 43.4657 52.8764 43.4648 52.5471C43.4639 52.2187 43.2302 52.0856 42.9436 52.251L36.4518 55.9999L36.4509 55.7067L42.9428 51.9578Z" fill="#3955D1"></path>
  <path d="M22.7841 40.8548L22.2397 41.1712L21.3154 40.6375L21.8599 40.3212L22.7841 40.8548Z" fill="#2E4277"></path>
  <path d="M24.0296 41.5737L23.4852 41.89L22.5609 41.3564L23.1053 41.04L24.0296 41.5737Z" fill="#2E4277"></path>
  <path d="M25.2741 42.2921L24.7297 42.6085L23.8054 42.0749L24.3498 41.7585L25.2741 42.2921Z" fill="#2E4277"></path>
  <path d="M26.5192 43.011L25.9748 43.3274L25.0455 42.7909L25.59 42.4745L26.5192 43.011Z" fill="#2E4277"></path>
  <path d="M22.4586 41.5822L21.5202 42.1275L20.1313 41.3256L21.0697 40.7803L22.4586 41.5822Z" fill="#2E4277"></path>
  <path d="M23.7033 42.3014L22.765 42.8467L21.8357 42.3102L22.774 41.7649L23.7033 42.3014Z" fill="#2E4277"></path>
  <path d="M24.9484 43.0198L24.0101 43.5651L23.0808 43.0286L24.0191 42.4833L24.9484 43.0198Z" fill="#2E4277"></path>
  <path d="M26.1932 43.7387L25.2549 44.284L24.3256 43.7474L25.2639 43.2021L26.1932 43.7387Z" fill="#2E4277"></path>
  <path d="M27.7643 43.7301L27.2198 44.0465L26.2905 43.51L26.835 43.1936L27.7643 43.7301Z" fill="#2E4277"></path>
  <path d="M27.4384 44.4577L26.5001 45.003L25.5708 44.4664L26.5091 43.9211L27.4384 44.4577Z" fill="#2E4277"></path>
  <path d="M22.055 42.7211L21.1192 43.265L18.95 42.0126L19.8857 41.4688L22.055 42.7211Z" fill="#2E4277"></path>
  <path d="M23.2998 43.4397L22.364 43.9836L21.4347 43.447L22.3705 42.9032L23.2998 43.4397Z" fill="#2E4277"></path>
  <path d="M24.5447 44.1586L23.6089 44.7024L22.6796 44.1659L23.6154 43.6221L24.5447 44.1586Z" fill="#2E4277"></path>
  <path d="M25.7898 44.8772L24.854 45.4211L23.9247 44.8845L24.8605 44.3407L25.7898 44.8772Z" fill="#2E4277"></path>
  <path d="M21.1887 43.5902L20.2504 44.1354L17.7655 42.7008L18.7038 42.1555L21.1887 43.5902Z" fill="#2E4277"></path>
  <path d="M22.4336 44.3088L21.4953 44.854L20.571 44.3204L21.5094 43.7751L22.4336 44.3088Z" fill="#2E4277"></path>
  <path d="M23.618 44.9924L22.6797 45.5376L21.7504 45.0011L22.6887 44.4558L23.618 44.9924Z" fill="#2E4277"></path>
  <path d="M24.7975 45.6736L23.8591 46.2189L22.9324 45.6838L23.8707 45.1385L24.7975 45.6736Z" fill="#2E4277"></path>
  <path d="M29.0092 44.4486L28.4648 44.765L27.5355 44.2285L28.0799 43.9121L29.0092 44.4486Z" fill="#2E4277"></path>
  <path d="M28.6832 45.1761L27.7449 45.7214L26.8156 45.1848L27.7539 44.6395L28.6832 45.1761Z" fill="#2E4277"></path>
  <path d="M27.0345 45.5961L26.0987 46.1399L25.1694 45.6034L26.1052 45.0596L27.0345 45.5961Z" fill="#2E4277"></path>
  <path d="M25.9789 46.3557L25.0406 46.901L24.1113 46.3645L25.0496 45.8192L25.9789 46.3557Z" fill="#2E4277"></path>
  <path d="M30.254 45.1674L29.7096 45.4838L28.7803 44.9472L29.3247 44.6309L30.254 45.1674Z" fill="#2E4277"></path>
  <path d="M31.4986 45.8864L30.9542 46.2028L30.0249 45.6662L30.5693 45.3499L31.4986 45.8864Z" fill="#2E4277"></path>
  <path d="M32.7439 46.6053L32.1994 46.9216L31.2701 46.3851L31.8146 46.0687L32.7439 46.6053Z" fill="#2E4277"></path>
  <path d="M33.9886 47.3236L33.4442 47.64L32.5149 47.1035L33.0593 46.7871L33.9886 47.3236Z" fill="#2E4277"></path>
  <path d="M35.234 48.0425L34.6895 48.3589L33.7603 47.8224L34.3047 47.506L35.234 48.0425Z" fill="#2E4277"></path>
  <path d="M29.9283 45.8949L28.99 46.4402L28.0607 45.9037L28.999 45.3584L29.9283 45.8949Z" fill="#2E4277"></path>
  <path d="M31.1731 46.6138L30.2348 47.1591L29.3055 46.6226L30.2438 46.0773L31.1731 46.6138Z" fill="#2E4277"></path>
  <path d="M34.4433 48.5018L33.505 49.0471L30.5504 47.3413L31.4887 46.796L34.4433 48.5018Z" fill="#2E4277"></path>
  <path d="M28.2792 46.3148L27.3434 46.8587L26.4141 46.3221L27.3499 45.7783L28.2792 46.3148Z" fill="#2E4277"></path>
  <path d="M29.5245 47.0338L28.5887 47.5777L27.6594 47.0411L28.5952 46.4973L29.5245 47.0338Z" fill="#2E4277"></path>
  <path d="M30.7696 47.7524L29.8338 48.2962L28.9045 47.7596L29.8403 47.2158L30.7696 47.7524Z" fill="#2E4277"></path>
  <path d="M33.2591 49.19L32.3233 49.7338L30.149 48.4785L31.0849 47.9347L33.2591 49.19Z" fill="#2E4277"></path>
  <path d="M30.8327 49.1579L29.8944 49.7032L28.9651 49.1666L29.9034 48.6213L30.8327 49.1579Z" fill="#2E4277"></path>
  <path d="M37.9685 49.6217L37.424 49.9381L36.4948 49.4016L37.0392 49.0852L37.9685 49.6217Z" fill="#2E4277"></path>
  <path d="M37.1785 50.0808L36.2402 50.6261L35.3109 50.0896L36.2492 49.5443L37.1785 50.0808Z" fill="#2E4277"></path>
  <path d="M35.9941 50.7688L35.0583 51.3127L34.129 50.7761L35.0648 50.2323L35.9941 50.7688Z" fill="#2E4277"></path>
  <path d="M34.8124 51.456L33.8741 52.0013L32.9448 51.4647L33.8831 50.9194L34.8124 51.456Z" fill="#2E4277"></path>
  <path d="M39.2136 50.3404L38.6692 50.6567L37.7399 50.1202L38.2843 49.8038L39.2136 50.3404Z" fill="#2E4277"></path>
  <path d="M38.4235 50.7996L37.4852 51.3449L36.5559 50.8084L37.4942 50.2631L38.4235 50.7996Z" fill="#2E4277"></path>
  <path d="M37.239 51.4877L36.3032 52.0315L35.3739 51.495L36.3097 50.9512L37.239 51.4877Z" fill="#2E4277"></path>
  <path d="M36.0575 52.1745L35.1192 52.7198L34.1899 52.1832L35.1283 51.6379L36.0575 52.1745Z" fill="#2E4277"></path>
  <path d="M34.8731 52.8626L33.9348 53.4079L31.7605 52.1526L32.6988 51.6073L34.8731 52.8626Z" fill="#2E4277"></path>
  <path d="M40.4534 51.0561L39.909 51.3725L38.9847 50.8388L39.5292 50.5225L40.4534 51.0561Z" fill="#2E4277"></path>
  <path d="M41.6985 51.7751L41.1541 52.0915L40.2299 51.5578L40.7743 51.2415L41.6985 51.7751Z" fill="#2E4277"></path>
  <path d="M27.1607 47.0382L26.2224 47.5835L25.2931 47.047L26.2314 46.5017L27.1607 47.0382Z" fill="#2E4277"></path>
  <path d="M28.3427 47.7206L27.4044 48.2659L26.4751 47.7294L27.4134 47.1841L28.3427 47.7206Z" fill="#2E4277"></path>
  <path d="M18.4438 43.377L17.5055 43.9223L16.5762 43.3857L17.5145 42.8405L18.4438 43.377Z" fill="#2E4277"></path>
  <path d="M19.6889 44.096L18.7506 44.6413L17.8213 44.1047L18.7596 43.5594L19.6889 44.096Z" fill="#2E4277"></path>
  <path d="M20.9338 44.8147L19.9955 45.36L19.0662 44.8235L20.0045 44.2782L20.9338 44.8147Z" fill="#2E4277"></path>
  <path d="M25.9668 47.7203L25.0285 48.2656L20.3113 45.5421L21.2496 44.9968L25.9668 47.7203Z" fill="#2E4277"></path>
  <path d="M27.1586 48.4086L26.2203 48.9539L25.291 48.4174L26.2293 47.8721L27.1586 48.4086Z" fill="#2E4277"></path>
  <path d="M28.4037 49.1275L27.4654 49.6728L26.5361 49.1362L27.4744 48.5909L28.4037 49.1275Z" fill="#2E4277"></path>
  <path d="M29.6485 49.8463L28.7102 50.3916L27.7809 49.8551L28.7192 49.3098L29.6485 49.8463Z" fill="#2E4277"></path>
  <path d="M30.8934 50.5651L29.9551 51.1104L29.0258 50.5738L29.9641 50.0286L30.8934 50.5651Z" fill="#2E4277"></path>
  <path d="M39.6635 51.5157L38.7252 52.061L37.8009 51.5273L38.7392 50.9821L39.6635 51.5157Z" fill="#2E4277"></path>
  <path d="M38.4791 52.2037L37.5433 52.7475L36.619 52.2139L37.5548 51.67L38.4791 52.2037Z" fill="#2E4277"></path>
  <path d="M37.2974 52.8905L36.3591 53.4358L35.4348 52.9022L36.3731 52.3569L37.2974 52.8905Z" fill="#2E4277"></path>
  <path d="M36.1133 53.5785L35.175 54.1238L34.2507 53.5902L35.189 53.0449L36.1133 53.5785Z" fill="#2E4277"></path>
  <path d="M40.9078 52.2343L39.9695 52.7796L39.0453 52.246L39.9836 51.7007L40.9078 52.2343Z" fill="#2E4277"></path>
  <path d="M39.7238 52.9225L38.788 53.4664L37.8638 52.9327L38.7996 52.3889L39.7238 52.9225Z" fill="#2E4277"></path>
  <path d="M38.5421 53.6093L36.4196 54.8428L35.4954 54.3091L37.6179 53.0757L38.5421 53.6093Z" fill="#2E4277"></path>
  <path d="M46.746 29.5251C46.746 28.9418 46.3421 28.2239 45.8307 27.9277L25.4516 16.1633C25.1914 16.0108 24.9581 16.0019 24.7876 16.0915L23.9082 16.612C24.0786 16.5133 24.3029 16.5223 24.5722 16.6749L44.9422 28.4392C45.4538 28.7354 45.8665 29.4533 45.8665 30.0366L45.8273 43.0631L46.7067 42.5554L46.746 29.5251Z" fill="#384E85"></path>
  <path d="M45.8275 43.0631L45.8219 44.9327C45.8219 45.2289 45.7232 45.4352 45.5527 45.534L46.4411 45.0135C46.6026 44.9238 46.7013 44.7174 46.7013 44.4213L46.7069 42.5554L45.8275 43.0631Z" fill="#3955D1"></path>
  <path d="M33.7356 36.8638C34.0717 37.0579 34.3464 37.5272 34.3453 37.9134C34.3442 38.2996 34.0678 38.4571 33.7317 38.263C33.3956 38.069 33.1265 37.5965 33.1276 37.2103C33.1287 36.8241 33.3995 36.6698 33.7356 36.8638Z" fill="#4466FB"></path>
  <path d="M18.6492 35.2347L18.646 36.6321L13.8406 39.4247L13.8438 38.0274L18.6492 35.2347Z" fill="#AABAFD"></path>
  <path d="M13.8445 38.0275L13.8413 39.4249L9 36.6298L9.00321 35.2324L13.8445 38.0275Z" fill="#B7C5FD"></path>
  <path d="M18.65 35.2348L13.8446 38.0274L9.0033 35.2323L13.8087 32.4397L18.65 35.2348Z" fill="#D9DDF6"></path>
  <path d="M13.5016 22.2701L13.573 22.3582L13.9978 22.1241L12.274 20.0138L13.4208 19.8685L13.4646 19.844L13.5369 19.9321L13.9608 19.6981L12.2306 17.5783L13.4285 17.4266L13.4724 17.4021L13.5437 17.4902L13.9686 17.2562L12.2375 15.1364L13.4354 14.9847L13.4792 14.9602L13.5515 15.0483L13.9754 14.8142L12.2452 12.6945L13.4431 12.5428L13.487 12.5183L13.5584 12.6064L13.9832 12.3723L12.2521 10.2526L13.45 10.1009L13.4939 10.0764L13.5661 10.1645L13.9901 9.93045L12.2598 7.81071L13.4577 7.65901L13.5016 7.63453L13.573 7.72261L13.9978 7.48854L12.1498 5.22607L11.7258 5.45934L13.3821 7.48854L12.0681 7.65493L11.6441 7.889L11.946 7.85066L11.7602 7.95262L13.3752 9.93045L12.0612 10.0968L11.6364 10.3309L11.9382 10.2926L11.7533 10.3945L13.3674 12.3723L12.0534 12.5387L11.6295 12.7728L11.9313 12.7345L11.7456 12.8364L13.3606 14.8142L12.0466 14.9806L11.6217 15.2147L11.9236 15.1764L11.7387 15.2783L13.3528 17.2562L12.0388 17.4225L11.6149 17.6566L11.9167 17.6183L11.731 17.7202L13.346 19.6981L12.0741 19.8595L11.6501 20.0928L11.7534 20.0797L11.7258 20.0949L13.3821 22.1241L12.0681 22.2905L11.6441 22.5246L11.946 22.4862L11.7602 22.5882L13.3752 24.566L12.0612 24.7324L11.6364 24.9665L11.9382 24.9281L11.7533 25.0301L13.3674 27.0079L12.0534 27.1743L11.6295 27.4084L11.9313 27.37L11.7456 27.472L13.3606 29.4498L12.0466 29.6162L11.6217 29.8503L11.9236 29.8119L11.7387 29.9139L13.3528 31.8917L12.0388 32.0581L11.6149 32.2922L11.9167 32.2538L11.731 32.3558L13.346 34.3336L12.0741 34.4951L11.6501 34.7284L13.4208 34.5041L13.4646 34.4796L13.5369 34.5677L13.9608 34.3336L12.2306 32.2139L13.4285 32.0622L13.4724 32.0377L13.5437 32.1258L13.9686 31.8917L12.2375 29.772L13.4354 29.6203L13.4792 29.5958L13.5515 29.6839L13.9754 29.4498L12.2452 27.3301L13.4431 27.1784L13.487 27.1539L13.5584 27.242L13.9832 27.0079L12.2521 24.8882L13.45 24.7365L13.4939 24.712L13.5661 24.8001L13.9901 24.566L12.2598 22.4463L13.4577 22.2946L13.5016 22.2701Z" fill="#384E85"></path>
  <path d="M16.037 32.292L15.7344 32.2536L15.9207 32.3556L14.3052 34.3336L15.5771 34.495L16.0015 34.7279L14.2309 34.5037L14.1867 34.4793L14.1145 34.5674L13.6902 34.3336L15.421 32.2134L14.2233 32.0616L14.1791 32.0372L14.1081 32.1253L13.6826 31.8915L15.4145 29.7722L14.2158 29.6204L14.1727 29.596L14.1005 29.6841L13.6762 29.4494L15.4059 27.3301L14.2082 27.1783L14.1641 27.1539L14.093 27.242L13.6686 27.0082L15.3994 24.888L14.2018 24.7362L14.1576 24.7118L14.0855 24.7999L13.6611 24.5661L15.3919 22.446L14.1942 22.2941L14.1501 22.2697L14.079 22.3578L13.6536 22.124L15.3779 20.0135L14.2309 19.8686L14.1867 19.8442L14.1145 19.9323L13.6902 19.6976L15.421 17.5784L14.2233 17.4265L14.1791 17.4021L14.1081 17.4902L13.6826 17.2564L15.4145 15.1363L14.2158 14.9845L14.1727 14.96L14.1005 15.0482L13.6762 14.8143L15.4059 12.6942L14.2082 12.5424L14.1641 12.5179L14.093 12.6061L13.6686 12.3722L15.3994 10.2521L14.2018 10.1012L14.1576 10.0767L14.0855 10.164L13.6611 9.93015L15.3919 7.81088L14.1942 7.65907L14.1501 7.63464L14.079 7.72276L13.6536 7.48806L15.5018 5.22571L15.9261 5.45953L14.2696 7.48806L15.5836 7.65472L16.0069 7.88854L15.7053 7.85014L15.8916 7.95223L14.2761 9.93015L15.5901 10.0968L16.0155 10.3306L15.7128 10.2922L15.8981 10.3943L14.2836 12.3722L15.5976 12.5389L16.022 12.7727L15.7204 12.7343L15.9056 12.8364L14.2912 14.8143L15.6051 14.9801L16.0295 15.2148L15.7279 15.1764L15.9132 15.2785L14.2987 17.2564L15.6127 17.4222L16.037 17.6569L15.7344 17.6185L15.9207 17.7197L14.3052 19.6976L15.5771 19.859L16.0015 20.0929L15.8992 20.0798L15.9261 20.0946L14.2696 22.124L15.5836 22.2907L16.0069 22.5245L15.7053 22.4861L15.8916 22.5882L14.2761 24.5661L15.5901 24.7319L16.0155 24.9666L15.7128 24.9282L15.8981 25.0303L14.2836 27.0082L15.5976 27.174L16.022 27.4087L15.7204 27.3703L15.9056 27.4715L14.2912 29.4494L15.6051 29.616L16.0295 29.8499L15.7279 29.8115L15.9132 29.9136L14.2987 31.8915L15.6127 32.0581L16.037 32.292Z" fill="#384E85"></path>
  <path d="M13.5735 22.358L11.7609 22.5884L13.566 24.8001L11.7533 25.0305L13.5584 27.2413L11.7458 27.4725L13.5509 29.6834L11.7382 29.9146L13.5444 32.1255L11.7318 32.3558L13.5369 34.5676L11.6812 34.8032L11.6499 34.729L13.4206 34.5039L11.6144 32.2921L13.4281 32.0618L11.6219 29.8501L13.4357 29.6206L11.6295 27.4088L13.4432 27.1785L11.637 24.9668L13.4497 24.7364L11.6445 22.5247L13.4572 22.2943L11.7178 20.1629L11.6812 20.1672L11.6499 20.0931L13.4206 19.8688L11.6144 17.6571L13.4281 17.4267L11.6219 15.215L13.4357 14.9847L11.6295 12.7729L13.4432 12.5426L11.637 10.3308L13.4497 10.1005L11.6445 7.88959L13.4572 7.65926L11.6941 5.49898L11.7253 5.45972L13.5735 7.72208L11.7609 7.95329L13.566 10.1642L11.7533 10.3945L13.5584 12.6063L11.7458 12.8366L13.5509 15.0483L11.7382 15.2787L13.5444 17.4895L11.7318 17.7208L13.5369 19.9316L11.7738 20.155L13.5735 22.358Z" fill="#1B2A4F"></path>
  <path d="M16.0366 32.2921L14.2305 34.5039L16.0011 34.729L15.9699 34.8032L14.1141 34.5676L15.9203 32.3558L14.1066 32.1255L15.9128 29.9146L14.1001 29.6834L15.9052 27.4725L14.0926 27.2413L15.8977 25.0305L14.0851 24.8001L15.8902 22.5884L14.0775 22.358L15.8772 20.155L14.1141 19.9316L15.9203 17.7208L14.1066 17.4895L15.9128 15.2787L14.1001 15.0483L15.9052 12.8366L14.0926 12.6063L15.8977 10.3945L14.0851 10.1642L15.8902 7.95329L14.0775 7.72208L15.9257 5.45972L15.958 5.49898L14.1938 7.65926L16.0076 7.88959L14.2014 10.1005L16.014 10.3308L14.2089 12.5426L16.0216 12.7729L14.2154 14.9847L16.0291 15.215L14.2229 17.4267L16.0366 17.6571L14.2305 19.8688L16.0011 20.0931L15.9699 20.1672L15.9343 20.1629L14.1938 22.2943L16.0076 22.5247L14.2014 24.7364L16.014 24.9668L14.2089 27.1785L16.0216 27.4088L14.2154 29.6206L16.0291 29.8501L14.2229 32.0618L16.0366 32.2921Z" fill="#1B2A4F"></path>
  <path d="M13.4822 19.7005L13.8257 19.5388L14.1702 19.6999L13.8267 19.8617L13.4822 19.7005Z" fill="#384E85"></path>
  <path d="M15.5215 18.7408L15.865 18.5791L16.2095 18.7402L15.866 18.9019L15.5215 18.7408Z" fill="#384E85"></path>
  <path d="M15.8651 20.4121V35.4879L15.5182 35.3273V20.2515L15.8651 20.4121Z" fill="#2E4277"></path>
  <path d="M12.1309 18.7411L11.7874 18.5793L11.4429 18.7405L11.7864 18.9022L12.1309 18.7411Z" fill="#384E85"></path>
  <path d="M14.1718 5.06384V36.5321L13.825 36.6993V5.22442L14.1718 5.06384Z" fill="#1B2A4F"></path>
  <path d="M13.4827 5.06491L13.8262 4.9032L14.1707 5.06433L13.8272 5.22604L13.4827 5.06491Z" fill="#384E85"></path>
  <path d="M13.8248 5.22442V36.6993L13.4779 36.5321L13.4862 5.06384L13.8248 5.22442Z" fill="#2E4277"></path>
  <path d="M16.2117 4.10718V35.3272L15.8649 35.4877V4.26774L16.2117 4.10718Z" fill="#1B2A4F"></path>
  <path d="M15.5205 4.10533L15.864 3.9436L16.2085 4.10473L15.865 4.26646L15.5205 4.10533Z" fill="#384E85"></path>
  <path d="M15.865 4.26774V20.412L15.5181 20.2514V4.10718L15.865 4.26774Z" fill="#2E4277"></path>
  <path d="M11.7846 4.26774V35.4877L11.4459 35.3272V4.10718L11.7846 4.26774Z" fill="#1B2A4F"></path>
  <path d="M12.1313 4.10533L11.7878 3.9436L11.4432 4.10473L11.7868 4.26646L12.1313 4.10533Z" fill="#384E85"></path>
  <path d="M12.1315 4.10718V35.3272L11.7847 35.4877V4.26774L12.1315 4.10718Z" fill="#2E4277"></path>
  <path d="M16.7672 1.70496L16.7652 4.33027L13.8346 6.03337L13.8365 3.40805L16.7672 1.70496Z" fill="#AABAFD"></path>
  <path d="M13.8368 3.40775L13.8348 6.03308L10.8823 4.32844L10.8843 1.70312L13.8368 3.40775Z" fill="#B7C5FD"></path>
  <path d="M16.7677 1.70464L13.837 3.40773L10.8845 1.7031L13.8152 0L16.7677 1.70464Z" fill="#D9DDF6"></path>
  <path d="M33.7356 17.3516L34.156 17.5959C34.4189 17.5135 34.6539 17.5326 34.8379 17.6395L34.4175 17.3952C34.2335 17.2882 33.9985 17.2691 33.7356 17.3516Z" fill="#384E85"></path>
  <path d="M33.5217 18.6503L33.5116 14.7306L34.1477 14.3633L33.7272 14.119L33.0912 14.4863L33.1012 18.4059L33.5217 18.6503Z" fill="#384E85"></path>
  <path d="M34.6134 18.9055C34.6127 18.6636 34.5269 18.4935 34.3889 18.4133L33.9684 18.1689C34.1065 18.2492 34.1923 18.4193 34.1929 18.6612C34.1938 18.9808 34.0381 19.3396 33.8167 19.6237C33.9396 19.7284 34.0514 19.8513 34.1412 19.9965C34.4188 19.7018 34.6144 19.2727 34.6134 18.9055Z" fill="#D9DDF6"></path>
  <path d="M35.2481 18.5392C35.246 17.7755 34.7795 17.4005 34.1563 17.5959L34.1481 14.3633L33.5121 14.7305L33.5221 18.6502L33.8402 18.4665C34.2648 18.2214 34.6125 18.4174 34.6139 18.9053C34.615 19.2725 34.4194 19.7016 34.1417 19.9963C34.2517 20.1742 34.3213 20.3667 34.3552 20.5588C34.8783 20.0214 35.2501 19.2234 35.2481 18.5392Z" fill="#1B2A4F"></path>
  <path d="M34.7256 20.9244L34.1706 21.2495C34.0358 21.3288 33.8454 21.3129 33.6393 21.194C33.227 20.9561 32.894 20.3773 32.9019 19.9015C32.9019 19.6716 32.9812 19.513 33.116 19.4338L33.671 19.1086C33.5362 19.188 33.4569 19.3466 33.4569 19.5765C33.4569 20.0522 33.7899 20.6311 34.2023 20.8689C34.4084 20.9879 34.5908 21.0037 34.7256 20.9244Z" fill="#D9DDF6"></path>
  <path d="M39.1742 22.32L39.1584 29.3452C39.1504 29.702 39.0315 29.9557 38.8254 30.0667L38.2703 30.3918C38.4685 30.2808 38.5954 30.027 38.5954 29.6702L38.6192 22.6451C38.6192 21.9315 38.1197 21.0593 37.4933 20.6945L29.8021 16.2542C29.4928 16.0798 29.2074 16.064 29.0012 16.1829L29.5642 15.8578C29.7704 15.7388 30.0479 15.7547 30.3571 15.9292L38.0483 20.3694C38.6747 20.7342 39.1742 21.6064 39.1742 22.32Z" fill="#D9DDF6"></path>
  <path d="M37.4903 20.6972C38.118 21.0596 38.6175 21.9307 38.6155 22.6462L38.5956 29.6675C38.5935 30.3888 38.0908 30.6754 37.463 30.313L29.7732 25.8733C29.1556 25.5167 28.6509 24.6484 28.653 23.9271L28.6729 16.9058C28.6749 16.1903 29.1828 15.9009 29.8005 16.2575L37.4903 20.6972ZM33.6402 21.1954C34.0553 21.4351 34.3855 21.2354 34.3868 20.7642C34.3882 20.293 34.0602 19.7248 33.645 19.4852C33.235 19.2484 32.8998 19.4337 32.8985 19.905C32.8972 20.3761 33.2301 20.9586 33.6402 21.1954Z" fill="#B7C5FD"></path>
  <path d="M31.8528 22.4827L31.8508 23.1982L30.7222 23.2688L31.8467 24.6567L31.8446 25.3777L30.1412 23.2781L30.1431 22.6117L31.8528 22.4827Z" fill="#384E85"></path>
  <path d="M34.5247 24.0253L36.2281 26.1248L36.2262 26.7912L34.5165 26.9203L34.5185 26.1992L35.6472 26.1123L34.5227 24.7408L34.5247 24.0253Z" fill="#384E85"></path>
  <path d="M34.2273 23.0657L32.741 26.683L32.1421 26.3372L33.6284 22.7198L34.2273 23.0657Z" fill="#384E85"></path>
  <path d="M33.8167 19.6237C33.7 19.7733 33.5707 19.9081 33.4243 19.9927C33.3125 20.0572 33.2047 20.0888 33.106 20.0937L33.1213 20.0782L32.7008 19.8338L32.1074 20.4351C32.1788 20.6095 32.2881 20.7376 32.4246 20.8169L32.8451 21.0613C32.7086 20.982 32.5992 20.8539 32.5279 20.6794L33.0531 20.1473L33.2956 20.2883C33.4388 20.3715 33.6361 20.3574 33.8447 20.237C33.9498 20.1763 34.0499 20.0934 34.1412 19.9964C34.0514 19.8513 33.9396 19.7284 33.8167 19.6237Z" fill="#384E85"></path>
  <path d="M33.8447 20.2372C33.5266 20.4208 33.2346 20.357 33.1213 20.0783L32.5278 20.6796C32.7353 21.1867 33.264 21.3023 33.8468 20.9658C34.0264 20.8621 34.1968 20.7212 34.3547 20.559C34.3208 20.367 34.2512 20.1744 34.1412 19.9966C34.0499 20.0935 33.9498 20.1764 33.8447 20.2372Z" fill="#1B2A4F"></path>
  <path d="M34.9605 15.3496L36.3109 14.5648L36.307 15.9091L34.9565 16.6939L34.9605 15.3496Z" fill="#1B2A4F"></path>
  <path d="M14.6475 3.6216L15.9979 2.83679L36.3114 14.5648L34.9609 15.3496L14.6475 3.6216Z" fill="#384E85"></path>
  <path d="M34.9607 15.3497L34.9568 16.6939L14.6433 4.96597L14.6472 3.6217L34.9607 15.3497Z" fill="#2E4277"></path>
  <path d="M40.7433 35.2544C40.9383 35.367 41.096 35.6401 41.0954 35.8643L41.0875 38.6513C41.0869 38.8755 40.9281 38.966 40.7331 38.8533L38.3076 37.453C38.1124 37.3403 37.9601 37.0703 37.9607 36.8461L37.9686 34.059C37.9692 33.8348 38.1227 33.7413 38.3178 33.854L40.7433 35.2544Z" fill="#4466FB"></path>
  <path d="M35.5599 32.2617C35.755 32.3743 35.9127 32.6474 35.9121 32.8716L35.9042 35.6587C35.9035 35.8829 35.7448 35.9733 35.5497 35.8607L33.1242 34.4603C32.9344 34.3507 32.7767 34.0776 32.7773 33.8534L32.7853 31.0663C32.7859 30.8422 32.9446 30.7517 33.1344 30.8613L35.5599 32.2617Z" fill="#384E85"></path>
  <path d="M30.3769 29.2693C30.572 29.3819 30.7297 29.655 30.7291 29.8792L30.7212 32.6663C30.7205 32.8904 30.5618 32.9809 30.3667 32.8682L27.9412 31.4679C27.7461 31.3552 27.5937 31.0852 27.5944 30.861L27.6023 28.0739C27.6029 27.8497 27.7563 27.7562 27.9514 27.8689L30.3769 29.2693Z" fill="#9AADFD"></path>
</svg>
