<?xml version="1.0" encoding="UTF-8"?>
<svg width="24px" height="24px" viewBox="0 0 24 24" version="1.1" xmlns="http://www.w3.org/2000/svg" xmlns:xlink="http://www.w3.org/1999/xlink">
    <!-- Generator: Sketch 49.3 (51167) - http://www.bohemiancoding.com/sketch -->
    <title>lock-icon-color-1</title>
    <desc>Created with Sketch.</desc>
    <defs></defs>
    <g id="lock-icon" stroke="none" stroke-width="1" fill="none" fill-rule="evenodd">
        <path d="M11,13.1707057 L11,11 C11,10.4477153 11.4477153,10 12,10 L19,10 C19.5522847,10 20,10.4477153 20,11 L20,21 C20,21.5522847 19.5522847,22 19,22 L5,22 C4.44771525,22 4,21.5522847 4,21 L4,11 C4,10.4477153 4.44771525,10 5,10 L7,10 L7,7 C7,4.23857625 9.23857625,2 12,2 C14.7614237,2 17,4.23857625 17,7 C17,7.55228475 16.5522847,8 16,8 C15.4477153,8 15,7.55228475 15,7 C15,5.34314575 13.6568542,4 12,4 C10.3431458,4 9,5.34314575 9,7 L9,11 C9,11.5522847 8.55228475,12 8,12 L6,12 L6,20 L18,20 L18,12 L13,12 L13,13.1707057 C14.1651924,13.5825421 15,14.6937812 15,16 C15,17.6568542 13.6568542,19 12,19 C10.3431458,19 9,17.6568542 9,16 C9,14.6937812 9.83480763,13.5825421 11,13.1707057 Z M12,17 C12.5522847,17 13,16.5522847 13,16 C13,15.4477153 12.5522847,15 12,15 C11.4477153,15 11,15.4477153 11,16 C11,16.5522847 11.4477153,17 12,17 Z" id="icon" fill="#2583FD" fill-rule="nonzero"></path>
    </g>
</svg>