<?xml version="1.0" encoding="UTF-8"?>
<svg width="24px" height="24px" viewBox="0 0 24 24" version="1.1" xmlns="http://www.w3.org/2000/svg" xmlns:xlink="http://www.w3.org/1999/xlink">
    <!-- Generator: Sketch 49.3 (51167) - http://www.bohemiancoding.com/sketch -->
    <title>eye-icon</title>
    <desc>Created with Sketch.</desc>
    <defs></defs>
    <g id="eye-icon" stroke="none" stroke-width="1" fill="none" fill-rule="evenodd">
        <path d="M2.14289636,11.484856 C4.16829044,8.11497767 7.89620395,6 12,6 C16.1037961,6 19.8317096,8.11497767 21.8571036,11.484856 C22.0476321,11.8018599 22.0476321,12.1981401 21.8571036,12.515144 C19.8317096,15.8850223 16.1037961,18 12,18 C7.89620395,18 4.16829044,15.8850223 2.14289636,12.515144 C1.95236788,12.1981401 1.95236788,11.8018599 2.14289636,11.484856 Z M12,16 C15.184819,16 18.0862987,14.4686703 19.8088921,12 C18.0862987,9.53132968 15.184819,8 12,8 C8.81518097,8 5.91370126,9.53132968 4.19110795,12 C5.91370126,14.4686703 8.81518097,16 12,16 Z M9,12 C9,11.4477153 9.44771525,11 10,11 C10.5522847,11 11,11.4477153 11,12 C11,12.5522847 11.4477153,13 12,13 C12.5522847,13 13,12.5522847 13,12 C13,11.4477153 12.5522847,11 12,11 C11.4477153,11 11,10.5522847 11,10 C11,9.44771525 11.4477153,9 12,9 C13.6568542,9 15,10.3431458 15,12 C15,13.6568542 13.6568542,15 12,15 C10.3431458,15 9,13.6568542 9,12 Z" id="icon" fill="#000000" fill-rule="nonzero"></path>
    </g>
</svg>