<?xml version="1.0" encoding="UTF-8"?>
<svg width="24px" height="24px" viewBox="0 0 24 24" version="1.1" xmlns="http://www.w3.org/2000/svg" xmlns:xlink="http://www.w3.org/1999/xlink">
    <!-- Generator: Sketch 49.3 (51167) - http://www.bohemiancoding.com/sketch -->
    <title>download-icon-white</title>
    <desc>Created with Sketch.</desc>
    <defs></defs>
    <g id="download-icon" stroke="none" stroke-width="1" fill="none" fill-rule="evenodd">
        <path d="M19,19 L19,16 C19,15.4477153 19.4477153,15 20,15 C20.5522847,15 21,15.4477153 21,16 L21,20 C21,20.5522847 20.5522847,21 20,21 L4,21 C3.44771525,21 3,20.5522847 3,20 L3,16 C3,15.4477153 3.44771525,15 4,15 C4.55228475,15 5,15.4477153 5,16 L5,19 L19,19 Z M17.2928932,9.29289322 C17.6834175,8.90236893 18.3165825,8.90236893 18.7071068,9.29289322 C19.0976311,9.68341751 19.0976311,10.3165825 18.7071068,10.7071068 L12.7071068,16.7071068 C12.0771419,17.3370716 11,16.8909049 11,16 L11,4 C11,3.44771525 11.4477153,3 12,3 C12.5522847,3 13,3.44771525 13,4 L13,13.5857864 L17.2928932,9.29289322 Z M9.26822128,12.3598156 C9.62178536,12.7840925 9.5644613,13.4146572 9.1401844,13.7682213 C8.7159075,14.1217854 8.0853428,14.0644613 7.73177872,13.6401844 L5.23177872,10.6401844 C4.87821464,10.2159075 4.9355387,9.5853428 5.3598156,9.23177872 C5.7840925,8.87821464 6.4146572,8.9355387 6.76822128,9.3598156 L9.26822128,12.3598156 Z" id="Combined-Shape" fill="#FFFFFF" fill-rule="nonzero"></path>
    </g>
</svg>