<?xml version="1.0" encoding="UTF-8"?>
<svg width="24px" height="24px" viewBox="0 0 24 24" version="1.1" xmlns="http://www.w3.org/2000/svg" xmlns:xlink="http://www.w3.org/1999/xlink">
    <!-- Generator: Sketch 49.3 (51167) - http://www.bohemiancoding.com/sketch -->
    <title>star-icon-white</title>
    <desc>Created with Sketch.</desc>
    <defs></defs>
    <g id="star-icon" stroke="none" stroke-width="1" fill="none" fill-rule="evenodd">
        <path d="M14.467167,14.4158124 C14.3384009,14.002195 14.490594,13.5527024 14.8441571,13.3023961 L16.4241571,12.1838294 C16.8749157,11.8647132 17.4990225,11.9714305 17.8181387,12.422189 C18.1372549,12.8729476 18.0305376,13.4970545 17.579779,13.8161706 L16.5927129,14.5149677 L18.519075,20.7027544 C18.809134,21.6344707 17.7295781,22.3874091 16.9554516,21.7933066 L12.0019681,17.9917609 L7.04848447,21.7933066 C6.27435804,22.3874091 5.19480214,21.6344707 5.48486111,20.7027544 L7.41887128,14.4904008 L2.39666973,10.6713869 C1.6334541,10.0910177 2.04545361,8.8731873 3.00426624,8.87539084 L9.14955226,8.88951392 L11.0459283,2.70676306 C11.3349665,1.76441231 12.6689696,1.76441231 12.9580079,2.70676306 L14.8543838,8.88951392 L20.9996699,8.87539084 C21.5519532,8.87412159 22.0006962,9.32080672 22.0019654,9.87309001 C22.0032347,10.4253733 21.5565495,10.8741163 21.0042662,10.8753856 L14.1179425,10.8912117 C13.6777612,10.8922233 13.2886822,10.6052831 13.1596045,10.1844513 L12.0019681,6.41021158 L10.8443316,10.1844513 C10.7152539,10.6052831 10.3261749,10.8922233 9.88599365,10.8912117 L5.97809596,10.8822306 L9.18726641,13.322568 C9.52211649,13.5771968 9.66181045,14.0141595 9.53676914,14.4158124 L8.33140487,18.2876374 L11.3931457,15.9379076 C11.7522461,15.6623164 12.25169,15.6623164 12.6107904,15.9379076 L15.6725312,18.2876374 L14.467167,14.4158124 Z" id="icon" fill="#FFFFFF" fill-rule="nonzero"></path>
    </g>
</svg>