<?xml version="1.0" encoding="UTF-8"?>
<svg width="24px" height="24px" viewBox="0 0 24 24" version="1.1" xmlns="http://www.w3.org/2000/svg" xmlns:xlink="http://www.w3.org/1999/xlink">
    <!-- Generator: Sketch 49.3 (51167) - http://www.bohemiancoding.com/sketch -->
    <title>tag-icon</title>
    <desc>Created with Sketch.</desc>
    <defs></defs>
    <g id="tag-icon" stroke="none" stroke-width="1" fill="none" fill-rule="evenodd">
        <path d="M8.29289322,14.7071068 C7.90236893,14.3165825 7.90236893,13.6834175 8.29289322,13.2928932 C8.68341751,12.9023689 9.31658249,12.9023689 9.70710678,13.2928932 L13.7071068,17.2928932 C14.0976311,17.6834175 14.0976311,18.3165825 13.7071068,18.7071068 L10.7071068,21.7071068 C10.3165825,22.0976311 9.68341751,22.0976311 9.29289322,21.7071068 L2.29289322,14.7071068 C1.90236893,14.3165825 1.90236893,13.6834175 2.29289322,13.2928932 L12.2928932,3.29289322 C12.4804296,3.10535684 12.7347835,3 13,3 L20,3 C20.5522847,3 21,3.44771525 21,4 L21,11 C21,11.2652165 20.8946432,11.5195704 20.7071068,11.7071068 L16.2071068,16.2071068 C15.8165825,16.5976311 15.1834175,16.5976311 14.7928932,16.2071068 C14.4023689,15.8165825 14.4023689,15.1834175 14.7928932,14.7928932 L19,10.5857864 L19,5 L13.4142136,5 L4.41421356,14 L10,19.5857864 L11.5857864,18 L8.29289322,14.7071068 Z M16,9 C15.4477153,9 15,8.55228475 15,8 C15,7.44771525 15.4477153,7 16,7 C16.5522847,7 17,7.44771525 17,8 C17,8.55228475 16.5522847,9 16,9 Z" id="icon" fill="#000000" fill-rule="nonzero"></path>
    </g>
</svg>