<?xml version="1.0" encoding="UTF-8"?>
<svg width="24px" height="24px" viewBox="0 0 24 24" version="1.1" xmlns="http://www.w3.org/2000/svg" xmlns:xlink="http://www.w3.org/1999/xlink">
    <!-- Generator: Sketch 49.3 (51167) - http://www.bohemiancoding.com/sketch -->
    <title>user-icon</title>
    <desc>Created with Sketch.</desc>
    <defs></defs>
    <g id="user-icon" stroke="none" stroke-width="1" fill="none" fill-rule="evenodd">
        <path d="M14.5150956,10.1065711 L15.5250774,11.1165529 L19.2857702,12.2658873 C19.6550157,12.3787352 19.9263074,12.6940725 19.9827534,13.0760289 L20.9843806,19.8538067 C21.0736305,20.4577402 20.6056171,21 19.9951245,21 L4.00019731,21 C3.39009478,21 2.92219137,20.4583975 3.01080029,19.8547639 L4.0057275,13.0769861 C4.05714717,12.7266981 4.2899521,12.4297088 4.61782764,12.2961299 L7.61782764,11.0739076 C8.12929433,10.8655323 8.71284157,11.1112364 8.92121689,11.6227031 C9.1295922,12.1341698 8.8838881,12.717717 8.37242141,12.9260924 L5.90154136,13.9327472 L5.15770646,19 L18.8364828,19 L18.09666,13.9937916 L14.702038,12.956335 C14.5454404,12.9084759 14.4029913,12.8228939 14.2872042,12.7071068 L12.5429006,10.9628032 C12.3638127,10.9873288 12.1809484,11 11.9951245,11 C9.78598553,11 7.99512453,9.209139 7.99512453,7 C7.99512453,4.790861 9.78598553,3 11.9951245,3 C14.2042635,3 15.9951245,4.790861 15.9951245,7 C15.9951245,8.25397237 15.4181034,9.37317423 14.5150956,10.1065711 Z M11.9951245,9 C13.099694,9 13.9951245,8.1045695 13.9951245,7 C13.9951245,5.8954305 13.099694,5 11.9951245,5 C10.890555,5 9.99512453,5.8954305 9.99512453,7 C9.99512453,8.1045695 10.890555,9 11.9951245,9 Z" id="icon" fill="#000000" fill-rule="nonzero"></path>
    </g>
</svg>