<?xml version="1.0" encoding="UTF-8"?>
<svg width="24px" height="24px" viewBox="0 0 24 24" version="1.1" xmlns="http://www.w3.org/2000/svg" xmlns:xlink="http://www.w3.org/1999/xlink">
    <!-- Generator: Sketch 49.3 (51167) - http://www.bohemiancoding.com/sketch -->
    <title>search-icon-grey-3</title>
    <desc>Created with Sketch.</desc>
    <defs></defs>
    <g id="search-icon" stroke="none" stroke-width="1" fill="none" fill-rule="evenodd">
        <path d="M16.463678,15.0494645 L20.7071068,19.2928932 C21.0976311,19.6834175 21.0976311,20.3165825 20.7071068,20.7071068 C20.3165825,21.0976311 19.6834175,21.0976311 19.2928932,20.7071068 L14.3890873,15.8033009 C13.998563,15.4127766 13.998563,14.7796116 14.3890873,14.3890873 C16.5369709,12.2412037 16.5369709,8.75879631 14.3890873,6.6109127 C12.2412037,4.4630291 8.75879631,4.4630291 6.6109127,6.6109127 C4.4630291,8.75879631 4.4630291,12.2412037 6.6109127,14.3890873 C8.03260762,15.8107822 10.0843824,16.3280522 11.985465,15.7959515 C12.5173101,15.6470915 13.0691305,15.9575622 13.2179905,16.4894072 C13.3668505,17.0212523 13.0563798,17.5730727 12.5245347,17.7219327 C9.93443593,18.4468846 7.13435972,17.7409614 5.19669914,15.8033009 C2.26776695,12.8743687 2.26776695,8.12563133 5.19669914,5.19669914 C8.12563133,2.26776695 12.8743687,2.26776695 15.8033009,5.19669914 C18.4924823,7.88588056 18.712608,12.1091365 16.463678,15.0494645 Z" id="icon" fill="#A9B0BE" fill-rule="nonzero"></path>
    </g>
</svg>