<?xml version="1.0" encoding="UTF-8"?>
<svg width="17px" height="17px" viewBox="0 0 17 17" version="1.1" xmlns="http://www.w3.org/2000/svg" xmlns:xlink="http://www.w3.org/1999/xlink">
    <!-- Generator: Sketch 49.3 (51167) - http://www.bohemiancoding.com/sketch -->
    <title>arrow-draw-icon</title>
    <desc>Created with Sketch.</desc>
    <defs></defs>
    <g id="arrow-draw-icon" stroke="none" stroke-width="1" fill="none" fill-rule="evenodd">
        <g id="Arrow" transform="translate(0.000000, -2.000000)" fill="#A9B0BE" fill-rule="nonzero">
            <path d="M2.95925764,16.2966341 C6.64229114,6.17536013 15.1268684,0.499863935 25,0.499863935 C25.2761424,0.499863935 25.5,0.72372156 25.5,0.999863935 C25.5,1.27600631 25.2761424,1.49986393 25,1.49986393 C15.441473,1.49986393 7.26734835,7.03310225 3.79028533,16.9427336 L7.74275212,14.5712535 C7.97954226,14.4291795 8.28667238,14.505962 8.42874646,14.7427521 C8.57082054,14.9795423 8.49403801,15.2866724 8.25724788,15.4287465 L3.25724788,18.4287465 C2.98295821,18.5933203 2.62681138,18.461573 2.52565835,18.1581139 L0.525658351,12.1581139 C0.438334465,11.8961422 0.579914458,11.6129822 0.841886117,11.5256584 C1.10385778,11.4383345 1.38701776,11.5799145 1.47434165,11.8418861 L2.95925764,16.2966341 Z" id="Combined-Shape"></path>
        </g>
    </g>
</svg>