<?xml version="1.0" encoding="UTF-8"?>
<svg xmlns="http://www.w3.org/2000/svg" width="64" height="64" viewBox="0 0 64 64" fill="none">
  <path d="M62.7857 49.6982L44.4349 60.3624C44.0013 60.6154 43.3025 60.6154 42.8689 60.3665L11.7764 42.4129C11.3428 42.164 11.3428 41.7584 11.7764 41.5054L30.1272 30.8411C30.5568 30.5922 31.2555 30.5922 31.6892 30.8411L62.7817 48.7907C63.2154 49.0437 63.2194 49.4492 62.7857 49.6982Z" fill="#384E85"></path>
  <path d="M35.717 47.2591C35.9642 47.4019 35.9628 47.6344 35.7172 47.7771L30.6179 50.7405C30.3723 50.8832 29.9709 50.8848 29.7237 50.7421L19.6751 44.9405C19.4279 44.7978 19.4294 44.5653 19.6749 44.4225L24.7742 41.4592C25.0198 41.3164 25.4212 41.3148 25.6684 41.4575L35.717 47.2591Z" fill="#2E4277"></path>
  <path d="M63.108 49.2486L63.104 50.887C63.104 51.0476 62.9956 51.2122 62.7828 51.3367L44.432 62.001C43.9983 62.25 43.2996 62.25 42.8659 62.001L11.7735 44.0515C11.5567 43.927 11.4482 43.7623 11.4482 43.5937L11.4523 41.9594C11.4523 42.124 11.5607 42.2886 11.7775 42.4131L42.87 60.3667C43.3036 60.6156 44.0023 60.6156 44.436 60.3626L62.7868 49.6984C63.0036 49.5739 63.108 49.4133 63.108 49.2486Z" fill="#1B2A4F"></path>
  <path d="M35.1967 35.6871L34.6136 36.0259L33.2061 35.2133L33.7891 34.8744L35.1967 35.6871Z" fill="#798FFE"></path>
  <path d="M27.522 37.9575L26.2324 38.7069L22.9326 36.8018L24.2222 36.0524L27.522 37.9575Z" fill="#798FFE"></path>
  <path d="M27.2538 35.9217L25.9642 36.6711L24.5566 35.8584L25.8462 35.109L27.2538 35.9217Z" fill="#798FFE"></path>
  <path d="M29.1454 37.0141L27.8558 37.7635L26.4482 36.9508L27.7378 36.2014L29.1454 37.0141Z" fill="#798FFE"></path>
  <path d="M30.769 36.0705L29.4795 36.82L26.1797 34.9148L27.4692 34.1654L30.769 36.0705Z" fill="#798FFE"></path>
  <path d="M32.6581 37.1619L31.3685 37.9113L29.9609 37.0987L31.2505 36.3492L32.6581 37.1619Z" fill="#798FFE"></path>
  <path d="M34.9838 36.6259L33.6966 37.3739L32.2891 36.5612L33.5762 35.8132L34.9838 36.6259Z" fill="#798FFE"></path>
  <path d="M33.0932 35.5351L31.806 36.2831L30.3984 35.4704L31.6856 34.7224L33.0932 35.5351Z" fill="#798FFE"></path>
  <path d="M33.3071 34.5959L32.724 34.9347L31.3164 34.1221L31.8995 33.7832L33.3071 34.5959Z" fill="#798FFE"></path>
  <path d="M31.2022 34.4426L29.9151 35.1906L27.8037 33.9716L29.0908 33.2236L31.2022 34.4426Z" fill="#798FFE"></path>
  <path d="M31.4145 33.5032L30.8314 33.8421L29.4238 33.0294L30.0069 32.6906L31.4145 33.5032Z" fill="#798FFE"></path>
  <path d="M42.7602 40.0539L42.1771 40.3927L40.7695 39.5801L41.3526 39.2412L42.7602 40.0539Z" fill="#798FFE"></path>
  <path d="M42.5473 40.993L41.2601 41.741L39.8525 40.9283L41.1397 40.1803L42.5473 40.993Z" fill="#798FFE"></path>
  <path d="M40.6576 39.9019L39.3705 40.6499L37.9629 39.8372L39.25 39.0892L40.6576 39.9019Z" fill="#798FFE"></path>
  <path d="M34.8173 40.2885L33.5277 41.0379L32.1201 40.2252L33.4097 39.4758L34.8173 40.2885Z" fill="#798FFE"></path>
  <path d="M36.7089 41.3809L35.4193 42.1303L34.0117 41.3177L35.3013 40.5682L36.7089 41.3809Z" fill="#798FFE"></path>
  <path d="M37.0874 36.7792L36.5043 37.1181L35.0967 36.3054L35.6798 35.9666L37.0874 36.7792Z" fill="#798FFE"></path>
  <path d="M38.978 37.8703L38.3949 38.2091L36.9873 37.3965L37.5704 37.0576L38.978 37.8703Z" fill="#798FFE"></path>
  <path d="M36.8744 37.7186L35.5873 38.4666L34.1797 37.6539L35.4668 36.9059L36.8744 37.7186Z" fill="#798FFE"></path>
  <path d="M34.5497 38.2538L33.2601 39.0032L31.8525 38.1906L33.1421 37.4412L34.5497 38.2538Z" fill="#798FFE"></path>
  <path d="M38.7641 38.8097L37.4769 39.5578L36.0693 38.7451L37.3565 37.9971L38.7641 38.8097Z" fill="#798FFE"></path>
  <path d="M32.9266 39.1974L31.6371 39.9468L30.2295 39.1342L31.519 38.3848L32.9266 39.1974Z" fill="#798FFE"></path>
  <path d="M36.4393 39.3451L35.1498 40.0946L33.7422 39.2819L35.0318 38.5325L36.4393 39.3451Z" fill="#798FFE"></path>
  <path d="M36.9745 43.4157L35.6873 44.1637L26.7158 38.984L28.003 38.236L36.9745 43.4157Z" fill="#798FFE"></path>
  <path d="M40.8706 38.9628L40.2875 39.3017L38.8799 38.489L39.463 38.1501L40.8706 38.9628Z" fill="#798FFE"></path>
  <path d="M44.6523 41.1461L44.0692 41.485L42.6592 40.6709L43.2423 40.332L44.6523 41.1461Z" fill="#798FFE"></path>
  <path d="M48.4321 43.3285L47.849 43.6674L46.4414 42.8547L47.0245 42.5159L48.4321 43.3285Z" fill="#798FFE"></path>
  <path d="M38.3319 40.4377L37.0424 41.1871L35.6348 40.3744L36.9243 39.625L38.3319 40.4377Z" fill="#798FFE"></path>
  <path d="M40.2206 41.5287L38.931 42.2781L37.5234 41.4655L38.813 40.7161L40.2206 41.5287Z" fill="#798FFE"></path>
  <path d="M42.1146 42.621L40.8251 43.3704L39.415 42.5563L40.7046 41.8069L42.1146 42.621Z" fill="#798FFE"></path>
  <path d="M44.4364 42.084L43.1493 42.832L41.7441 42.0207L43.0313 41.2727L44.4364 42.084Z" fill="#798FFE"></path>
  <path d="M44.0038 43.712L42.7142 44.4614L41.3066 43.6487L42.5962 42.8993L44.0038 43.712Z" fill="#798FFE"></path>
  <path d="M42.6483 46.6901L41.3587 47.4395L39.9512 46.6269L41.2407 45.8774L42.6483 46.6901Z" fill="#798FFE"></path>
  <path d="M44.2704 45.747L42.9808 46.4964L41.5732 45.6837L42.8628 44.9343L44.2704 45.747Z" fill="#798FFE"></path>
  <path d="M47.7856 45.8958L46.4961 46.6453L43.1963 44.7401L44.4858 43.9907L47.7856 45.8958Z" fill="#798FFE"></path>
  <path d="M50.3247 44.4212L49.7416 44.76L48.334 43.9474L48.9171 43.6085L50.3247 44.4212Z" fill="#798FFE"></path>
  <path d="M49.4075 44.954L48.1204 45.702L45.5244 44.2032L46.8115 43.4552L49.4075 44.954Z" fill="#798FFE"></path>
  <path d="M46.3285 43.1768L45.0414 43.9248L43.6338 43.1121L44.9209 42.3641L46.3285 43.1768Z" fill="#798FFE"></path>
  <path d="M46.5424 42.2375L45.9593 42.5763L44.5518 41.7637L45.1348 41.4248L46.5424 42.2375Z" fill="#798FFE"></path>
  <path d="M53.1942 49.0185L51.9047 49.7679L50.4971 48.9552L51.7866 48.2058L53.1942 49.0185Z" fill="#798FFE"></path>
  <path d="M56.9765 51.2021L55.6869 51.9515L54.2793 51.1388L55.5689 50.3894L56.9765 51.2021Z" fill="#798FFE"></path>
  <path d="M48.0555 49.813L46.766 50.5624L45.3584 49.7498L46.648 49.0004L48.0555 49.813Z" fill="#798FFE"></path>
  <path d="M53.8413 46.4512L53.2582 46.7901L51.8506 45.9774L52.4337 45.6385L53.8413 46.4512Z" fill="#798FFE"></path>
  <path d="M52.9242 46.9843L51.6371 47.7323L50.2295 46.9196L51.5166 46.1716L52.9242 46.9843Z" fill="#798FFE"></path>
  <path d="M55.7329 47.544L55.1498 47.8828L53.7422 47.0702L54.3253 46.7313L55.7329 47.544Z" fill="#798FFE"></path>
  <path d="M51.3036 47.9261L50.014 48.6755L48.6064 47.8628L49.896 47.1134L51.3036 47.9261Z" fill="#798FFE"></path>
  <path d="M54.8158 48.0768L53.5287 48.8248L52.1211 48.0122L53.4082 47.2642L54.8158 48.0768Z" fill="#798FFE"></path>
  <path d="M49.6796 48.8697L48.39 49.6191L46.9824 48.8064L48.272 48.057L49.6796 48.8697Z" fill="#798FFE"></path>
  <path d="M56.7055 49.1676L55.4183 49.9157L54.0107 49.103L55.2979 48.355L56.7055 49.1676Z" fill="#798FFE"></path>
  <path d="M51.5712 49.9621L50.2816 50.7115L48.874 49.8988L50.1636 49.1494L51.5712 49.9621Z" fill="#798FFE"></path>
  <path d="M55.0848 50.1099L53.7953 50.8593L52.3877 50.0467L53.6773 49.2972L55.0848 50.1099Z" fill="#798FFE"></path>
  <path d="M53.4618 51.0533L52.1722 51.8027L50.7646 50.99L52.0542 50.2406L53.4618 51.0533Z" fill="#798FFE"></path>
  <path d="M31.0341 38.1053L29.7445 38.8547L28.3369 38.042L29.6265 37.2926L31.0341 38.1053Z" fill="#798FFE"></path>
  <path d="M38.8675 44.5079L37.578 45.2573L36.168 44.4433L37.4575 43.6938L38.8675 44.5079Z" fill="#798FFE"></path>
  <path d="M40.4916 43.5646L39.202 44.314L37.792 43.4999L39.0816 42.7505L40.4916 43.5646Z" fill="#798FFE"></path>
  <path d="M40.7567 45.5992L39.4672 46.3486L38.0596 45.5359L39.3491 44.7865L40.7567 45.5992Z" fill="#798FFE"></path>
  <path d="M42.3807 44.6556L41.0912 45.405L39.6836 44.5923L40.9732 43.8429L42.3807 44.6556Z" fill="#798FFE"></path>
  <path d="M38.5995 42.4723L37.3099 43.2217L35.9023 42.4091L37.1919 41.6597L38.5995 42.4723Z" fill="#798FFE"></path>
  <path d="M44.5399 47.7825L43.2504 48.5319L41.8428 47.7192L43.1323 46.9698L44.5399 47.7825Z" fill="#798FFE"></path>
  <path d="M58.5981 50.2601L57.3109 51.0081L55.9033 50.1954L57.1905 49.4474L58.5981 50.2601Z" fill="#798FFE"></path>
  <path d="M59.5151 49.7272L58.932 50.0661L57.5244 49.2534L58.1075 48.9146L59.5151 49.7272Z" fill="#798FFE"></path>
  <path d="M57.6225 48.6345L57.0394 48.9733L55.6318 48.1606L56.2149 47.8218L57.6225 48.6345Z" fill="#798FFE"></path>
  <path d="M49.9491 50.9054L48.6595 51.6549L47.252 50.8422L48.5415 50.0928L49.9491 50.9054Z" fill="#798FFE"></path>
  <path d="M55.3538 52.1453L52.4408 53.8382L51.0332 53.0255L53.9462 51.3326L55.3538 52.1453Z" fill="#798FFE"></path>
  <path d="M51.8378 51.9963L50.5482 52.7457L49.1406 51.933L50.4302 51.1836L51.8378 51.9963Z" fill="#798FFE"></path>
  <path d="M62.3951 24.8546C62.8284 25.1048 63.1785 25.7112 63.177 26.209L63.1216 48.084C63.1202 48.5789 62.7678 48.7827 62.3345 48.5325L31.6902 30.8416C31.2569 30.5915 30.9068 29.9822 30.9082 29.4872L30.9636 7.61229C30.9651 7.11441 31.3174 6.91361 31.7507 7.16377L62.3951 24.8546Z" fill="#1B2A4F"></path>
  <path d="M64 25.7322L63.9438 47.6062C63.9438 47.8512 63.8554 48.0279 63.7149 48.1082L62.893 48.5861C63.0335 48.5059 63.1219 48.3292 63.1219 48.0842L63.1781 26.2101C63.1781 25.7122 62.8287 25.1059 62.3951 24.8529L31.7506 7.16401C31.5337 7.03953 31.3369 7.02749 31.1924 7.10778L32.0143 6.62982C32.1548 6.54951 32.3556 6.56154 32.5724 6.68602L63.217 24.3789C63.6506 24.6279 64 25.2342 64 25.7322Z" fill="#384E85"></path>
  <path d="M62.0704 25.9419L62.0171 47.0744L32.0137 29.7536L32.067 8.62109L62.0704 25.9419Z" fill="#D9DDF6"></path>
  <path d="M58.5636 19.6343L58.5144 36.2992C58.5136 36.5728 58.4172 36.7651 58.2617 36.8554L59.3359 36.2312C59.4914 36.1408 59.5879 35.9485 59.5886 35.675L59.6377 19.01L58.5636 19.6343Z" fill="#4466FB"></path>
  <path d="M58.5641 19.6342L58.5149 36.2992C58.5134 36.8493 58.1248 37.0707 57.648 36.7955L35.3017 23.8938C34.823 23.6174 34.4369 22.9488 34.4385 22.3986L34.4876 5.73364L58.5641 19.6342Z" fill="#6BB5FB"></path>
  <path d="M35.4251 7.3634L35.3809 22.8505L57.574 35.6641L57.6207 20.1776L35.4251 7.3634Z" fill="white"></path>
  <path d="M59.6482 16.3527L59.6414 19.0112L58.565 19.6311L58.5718 16.9795C58.5718 16.4277 58.1835 15.7601 57.7066 15.4876L35.3612 2.58444C35.1228 2.44817 34.9048 2.43454 34.748 2.5231L35.8176 1.89635C35.9812 1.80778 36.1991 1.82138 36.4376 1.95764L58.783 14.8608C59.2599 15.1401 59.6482 15.8077 59.6482 16.3527Z" fill="#384E85"></path>
  <path d="M57.7096 15.4863C58.1864 15.7616 58.5724 16.4302 58.5709 16.9781L58.5638 19.6342L34.4873 5.73363L34.4944 3.07755C34.4959 2.52965 34.8845 2.30822 35.3633 2.58464L57.7096 15.4863Z" fill="#2E4277"></path>
  <path d="M56.9294 15.905C56.6013 15.7155 56.3341 15.8678 56.333 16.2448C56.3319 16.6219 56.5974 17.0797 56.9256 17.2692C57.252 17.4577 57.5192 17.3074 57.5202 16.9303C57.5213 16.5532 57.2559 16.0934 56.9294 15.905Z" fill="#B7C5FD"></path>
  <path d="M53.1179 13.7053C52.7898 13.5158 52.5226 13.668 52.5215 14.0451C52.5204 14.4222 52.7859 14.88 53.114 15.0695C53.4405 15.258 53.7077 15.1077 53.7087 14.7306C53.7098 14.3535 53.4444 13.8937 53.1179 13.7053Z" fill="#B7C5FD"></path>
  <path d="M55.0242 14.8051C54.696 14.6156 54.4288 14.7679 54.4277 15.145C54.4267 15.5221 54.6921 15.9799 55.0203 16.1693C55.3485 16.3588 55.6139 16.2075 55.615 15.8304C55.616 15.4534 55.3523 14.9946 55.0242 14.8051Z" fill="#B7C5FD"></path>
  <path d="M39.4681 15.6713L40.3748 17.2416C39.298 17.5783 38.5 18.4705 38.1493 19.8303L37.9639 19.7232C38.0111 17.9063 38.5686 16.5331 39.4681 15.6713Z" fill="#D9DDF6"></path>
  <path d="M45.362 15.5954L45.353 18.7672C44.965 18.4545 44.5663 18.176 44.1569 17.9397C42.7331 17.1176 41.4196 16.9149 40.3744 17.2417L39.4678 15.6713C40.817 14.3766 42.948 14.25 45.362 15.5954Z" fill="#B7C5FD"></path>
  <path d="M51.2869 22.1808C52.3044 24.2057 52.929 26.3783 52.9688 28.3864L50.1351 26.7503C49.9209 25.6563 49.5351 24.5396 49.0195 23.4769L51.2869 22.1808Z" fill="#9AADFD"></path>
  <path d="M45.4955 15.6642C47.836 17.0155 49.9175 19.4574 51.2869 22.1808L49.0196 23.4769C48.1242 21.6433 46.8359 19.9573 45.3535 18.7672L45.3625 15.5955C45.4045 15.6197 45.45 15.6379 45.4955 15.6642Z" fill="#AABAFD"></path>
  <path d="M50.1977 20.4957L44.8426 24.0689C44.9898 24.5824 44.9101 25.0426 44.607 25.2154C44.4043 25.3309 44.1393 25.2944 43.8743 25.1415C43.6085 24.9879 43.3425 24.7172 43.1391 24.3648C42.7356 23.6661 42.7378 22.9095 43.1438 22.6781C43.3464 22.5627 43.6124 22.5996 43.8773 22.7526C44.0054 22.8265 44.1332 22.9276 44.2536 23.0518L50.1977 20.4957Z" fill="#535D88"></path>
  <path d="M25.3246 8.902L25.3165 31.0873C25.3158 31.4086 25.1046 31.7291 24.6831 31.9739L15.215 37.4764C14.3663 37.9694 12.9859 37.9698 12.1318 37.4764L0.643732 30.8439C0.213812 30.5956 -0.000764156 30.2701 2.04464e-06 29.9446L0.00802699 7.76123C0.00802699 8.08558 0.222603 8.4107 0.651367 8.65817L12.1394 15.2911C12.9939 15.7841 14.3743 15.7841 15.2231 15.2907L24.6912 9.78862C25.1127 9.54343 25.3238 9.2229 25.3246 8.902Z" fill="#4466FB"></path>
  <path d="M24.6809 8.00255C25.5351 8.49575 25.5396 9.29518 24.6909 9.78838L15.2227 15.2907C14.3741 15.7839 12.9937 15.784 12.1395 15.2909L0.651323 8.65818C-0.20291 8.16499 -0.207171 7.36541 0.64151 6.87222L10.1097 1.36991C10.9584 0.876701 12.3385 0.876701 13.1928 1.36989L24.6809 8.00255Z" fill="#6BB5FB"></path>
  <path d="M20.9782 8.50065C21.3561 8.71882 21.3578 9.07235 20.9824 9.29051L14.3512 13.1441C13.9758 13.3623 13.3654 13.3625 12.9876 13.1443L4.35501 8.16027C3.97716 7.94212 3.97517 7.58843 4.35056 7.37028L10.9818 3.51665C11.3572 3.29849 11.9678 3.29849 12.3456 3.51665L20.9782 8.50065Z" fill="#4466FB"></path>
  <path d="M11.2977 16.4589L1.44825 10.7722C1.24425 10.6544 0.989258 10.8016 0.989258 11.0372V13.0503C0.989258 13.2689 1.10591 13.471 1.29525 13.5803L11.1447 19.2668C11.3487 19.3845 11.6036 19.2373 11.6036 19.0018V16.9889C11.6036 16.7703 11.487 16.5683 11.2977 16.4589Z" fill="#3955D1"></path>
  <path d="M15.3128 16.9651C15.0519 17.1157 14.841 17.481 14.8418 17.7808L14.8512 20.2165C14.8521 20.5163 15.0644 20.6372 15.3253 20.4866C15.5862 20.336 15.7971 19.9707 15.7962 19.6709L15.7868 17.2352C15.786 16.9354 15.5737 16.8144 15.3128 16.9651Z" fill="#1B2A4F"></path>
  <path d="M15.5743 19.5543L15.5649 17.1187C15.5646 17.0293 15.5455 16.956 15.512 16.9009C15.6738 16.894 15.7864 17.0173 15.787 17.2354L15.7964 19.6711C15.7973 19.9709 15.5864 20.3362 15.3255 20.4868C15.1423 20.5926 14.9832 20.5643 14.9043 20.4344C14.9649 20.4318 15.0323 20.4111 15.1033 20.3701C15.3643 20.2194 15.5752 19.8541 15.5743 19.5543Z" fill="#6BB5FB"></path>
  <path d="M23.4905 12.2129C23.2296 12.3635 23.0187 12.7288 23.0195 13.0286L23.029 15.4643C23.0298 15.7641 23.2421 15.885 23.503 15.7344C23.7639 15.5838 23.9748 15.2185 23.974 14.9187L23.9646 12.483C23.9637 12.1832 23.7514 12.0622 23.4905 12.2129Z" fill="#1B2A4F"></path>
  <path d="M23.753 14.8018L23.7436 12.3661C23.7433 12.2768 23.7242 12.2035 23.6907 12.1484C23.8525 12.1414 23.9651 12.2647 23.9657 12.4829L23.9751 14.9185C23.976 15.2183 23.7651 15.5836 23.5042 15.7343C23.321 15.84 23.1619 15.8117 23.083 15.6819C23.1436 15.6793 23.211 15.6585 23.282 15.6175C23.543 15.4669 23.7539 15.1016 23.753 14.8018Z" fill="#6BB5FB"></path>
  <path d="M21.4466 13.4009C21.1856 13.5515 20.9747 13.9168 20.9756 14.2166L20.985 16.6522C20.9859 16.9521 21.1981 17.073 21.4591 16.9224C21.72 16.7717 21.9309 16.4065 21.93 16.1066L21.9206 13.671C21.9198 13.3712 21.7075 13.2502 21.4466 13.4009Z" fill="#1B2A4F"></path>
  <path d="M21.7081 15.9895L21.6987 13.5539C21.6984 13.4645 21.6793 13.3912 21.6458 13.3361C21.8076 13.3291 21.9202 13.4525 21.9208 13.6706L21.9302 16.1062C21.9311 16.4061 21.7202 16.7714 21.4593 16.922C21.2761 17.0278 21.117 16.9995 21.0381 16.8696C21.0986 16.867 21.1661 16.8463 21.2371 16.8052C21.4981 16.6546 21.709 16.2893 21.7081 15.9895Z" fill="#6BB5FB"></path>
  <path d="M19.4016 14.5887C19.1407 14.7394 18.9298 15.1047 18.9307 15.4045L18.9401 17.8401C18.9409 18.1399 19.1532 18.2609 19.4141 18.1103C19.6751 17.9596 19.886 17.5943 19.8851 17.2945L19.8757 14.8589C19.8748 14.5591 19.6625 14.4381 19.4016 14.5887Z" fill="#1B2A4F"></path>
  <path d="M19.6632 17.1776L19.6537 14.742C19.6535 14.6526 19.6344 14.5793 19.6009 14.5242C19.7626 14.5172 19.8753 14.6406 19.8759 14.8587L19.8853 17.2944C19.8862 17.5942 19.6753 17.9595 19.4143 18.1101C19.2312 18.2159 19.0721 18.1876 18.9932 18.0577C19.0537 18.0551 19.1211 18.0344 19.1922 17.9934C19.4531 17.8427 19.664 17.4774 19.6632 17.1776Z" fill="#6BB5FB"></path>
  <path d="M17.3577 15.7767C17.0968 15.9274 16.8859 16.2926 16.8867 16.5925L16.8961 19.0281C16.897 19.3279 17.1093 19.4489 17.3702 19.2982C17.6311 19.1476 17.842 18.7823 17.8412 18.4825L17.8317 16.0469C17.8309 15.747 17.6186 15.6261 17.3577 15.7767Z" fill="#1B2A4F"></path>
  <path d="M17.6192 18.3654L17.6098 15.9297C17.6095 15.8404 17.5904 15.7671 17.5569 15.7119C17.7187 15.705 17.8313 15.8283 17.8319 16.0465L17.8414 18.4821C17.8422 18.7819 17.6313 19.1472 17.3704 19.2978C17.1872 19.4036 17.0281 19.3753 16.9492 19.2455C17.0098 19.2429 17.0772 19.2221 17.1483 19.1811C17.4092 19.0305 17.6201 18.6652 17.6192 18.3654Z" fill="#6BB5FB"></path>
  <path d="M11.2977 21.7231L1.44825 16.0363C1.24425 15.9185 0.989258 16.0658 0.989258 16.3013V18.3145C0.989258 18.5331 1.10591 18.7351 1.29525 18.8445L11.1447 24.5309C11.3487 24.6487 11.6036 24.5015 11.6036 24.2659V22.2531C11.6036 22.0345 11.487 21.8324 11.2977 21.7231Z" fill="#3955D1"></path>
  <path d="M15.3128 22.2295C15.0519 22.3801 14.841 22.7454 14.8418 23.0452L14.8512 25.4809C14.8521 25.7807 15.0644 25.9016 15.3253 25.751C15.5862 25.6004 15.7971 25.2351 15.7962 24.9353L15.7868 22.4996C15.786 22.1998 15.5737 22.0788 15.3128 22.2295Z" fill="#1B2A4F"></path>
  <path d="M15.5743 24.8184L15.5649 22.3827C15.5646 22.2934 15.5455 22.2201 15.512 22.165C15.6738 22.158 15.7864 22.2813 15.787 22.4995L15.7964 24.9351C15.7973 25.2349 15.5864 25.6002 15.3255 25.7509C15.1423 25.8566 14.9832 25.8284 14.9043 25.6985C14.9649 25.6959 15.0323 25.6751 15.1033 25.6341C15.3643 25.4835 15.5752 25.1182 15.5743 24.8184Z" fill="#6BB5FB"></path>
  <path d="M23.4905 17.477C23.2296 17.6277 23.0187 17.993 23.0195 18.2928L23.029 20.7284C23.0298 21.0282 23.2421 21.1492 23.503 20.9986C23.7639 20.8479 23.9748 20.4826 23.974 20.1828L23.9646 17.7472C23.9637 17.4474 23.7514 17.3264 23.4905 17.477Z" fill="#1B2A4F"></path>
  <path d="M23.753 20.0659L23.7436 17.6303C23.7433 17.5409 23.7242 17.4676 23.6907 17.4125C23.8525 17.4055 23.9651 17.5289 23.9657 17.747L23.9751 20.1827C23.976 20.4825 23.7651 20.8478 23.5042 20.9984C23.321 21.1042 23.1619 21.0759 23.083 20.946C23.1436 20.9434 23.211 20.9227 23.282 20.8817C23.543 20.731 23.7539 20.3657 23.753 20.0659Z" fill="#6BB5FB"></path>
  <path d="M21.4466 18.665C21.1856 18.8157 20.9747 19.181 20.9756 19.4808L20.985 21.9164C20.9859 22.2162 21.1981 22.3372 21.4591 22.1866C21.72 22.0359 21.9309 21.6706 21.93 21.3708L21.9206 18.9352C21.9198 18.6353 21.7075 18.5144 21.4466 18.665Z" fill="#1B2A4F"></path>
  <path d="M21.7081 21.2541L21.6987 18.8185C21.6984 18.7292 21.6793 18.6559 21.6458 18.6007C21.8076 18.5938 21.9202 18.7171 21.9208 18.9353L21.9302 21.3709C21.9311 21.6707 21.7202 22.036 21.4593 22.1866C21.2761 22.2924 21.117 22.2641 21.0381 22.1343C21.0986 22.1317 21.1661 22.1109 21.2371 22.0699C21.4981 21.9193 21.709 21.554 21.7081 21.2541Z" fill="#6BB5FB"></path>
  <path d="M19.4016 19.8531C19.1407 20.0038 18.9298 20.3691 18.9307 20.6689L18.9401 23.1045C18.9409 23.4043 19.1532 23.5253 19.4141 23.3747C19.6751 23.224 19.886 22.8587 19.8851 22.5589L19.8757 20.1233C19.8748 19.8235 19.6625 19.7025 19.4016 19.8531Z" fill="#1B2A4F"></path>
  <path d="M19.6632 22.4422L19.6537 20.0066C19.6535 19.9173 19.6344 19.844 19.6009 19.7889C19.7626 19.7819 19.8753 19.9052 19.8759 20.1234L19.8853 22.559C19.8862 22.8588 19.6753 23.2241 19.4143 23.3748C19.2312 23.4805 19.0721 23.4522 18.9932 23.3224C19.0537 23.3198 19.1211 23.299 19.1922 23.258C19.4531 23.1074 19.664 22.7421 19.6632 22.4422Z" fill="#6BB5FB"></path>
  <path d="M17.3577 21.0411C17.0968 21.1917 16.8859 21.557 16.8867 21.8569L16.8961 24.2925C16.897 24.5923 17.1093 24.7133 17.3702 24.5626C17.6311 24.412 17.842 24.0467 17.8412 23.7469L17.8317 21.3113C17.8309 21.0114 17.6186 20.8905 17.3577 21.0411Z" fill="#1B2A4F"></path>
  <path d="M17.6192 23.63L17.6098 21.1944C17.6095 21.105 17.5904 21.0317 17.5569 20.9766C17.7187 20.9696 17.8313 21.093 17.8319 21.3111L17.8414 23.7468C17.8422 24.0466 17.6313 24.4119 17.3704 24.5625C17.1872 24.6683 17.0281 24.64 16.9492 24.5101C17.0098 24.5075 17.0772 24.4868 17.1483 24.4458C17.4092 24.2951 17.6201 23.9298 17.6192 23.63Z" fill="#6BB5FB"></path>
  <path d="M11.2977 26.988L1.44825 21.3012C1.24425 21.1834 0.989258 21.3307 0.989258 21.5662V23.5793C0.989258 23.798 1.10591 24 1.29525 24.1093L11.1447 29.7958C11.3487 29.9136 11.6036 29.7664 11.6036 29.5308V27.518C11.6036 27.2994 11.487 27.0973 11.2977 26.988Z" fill="#3955D1"></path>
  <path d="M15.3128 27.4944C15.0519 27.645 14.841 28.0103 14.8418 28.3101L14.8512 30.7458C14.8521 31.0456 15.0644 31.1665 15.3253 31.0159C15.5862 30.8653 15.7971 30.5 15.7962 30.2002L15.7868 27.7645C15.786 27.4647 15.5737 27.3437 15.3128 27.4944Z" fill="#1B2A4F"></path>
  <path d="M15.5743 30.083L15.5649 27.6474C15.5646 27.558 15.5455 27.4847 15.512 27.4296C15.6738 27.4226 15.7864 27.546 15.787 27.7641L15.7964 30.1998C15.7973 30.4996 15.5864 30.8649 15.3255 31.0155C15.1423 31.1213 14.9832 31.093 14.9043 30.9631C14.9649 30.9605 15.0323 30.9398 15.1033 30.8988C15.3643 30.7481 15.5752 30.3828 15.5743 30.083Z" fill="#6BB5FB"></path>
  <path d="M23.4905 22.7419C23.2296 22.8925 23.0187 23.2579 23.0195 23.5577L23.029 25.9933C23.0298 26.2931 23.2421 26.4141 23.503 26.2635C23.7639 26.1128 23.9748 25.7475 23.974 25.4477L23.9646 23.0121C23.9637 22.7122 23.7514 22.5913 23.4905 22.7419Z" fill="#1B2A4F"></path>
  <path d="M23.753 25.3308L23.7436 22.8952C23.7433 22.8058 23.7242 22.7325 23.6907 22.6774C23.8525 22.6704 23.9651 22.7938 23.9657 23.0119L23.9751 25.4476C23.976 25.7474 23.7651 26.1127 23.5042 26.2633C23.321 26.3691 23.1619 26.3408 23.083 26.2109C23.1436 26.2083 23.211 26.1876 23.282 26.1465C23.543 25.9959 23.7539 25.6306 23.753 25.3308Z" fill="#6BB5FB"></path>
  <path d="M21.4466 23.9297C21.1856 24.0803 20.9747 24.4456 20.9756 24.7454L20.985 27.1811C20.9859 27.4809 21.1981 27.6018 21.4591 27.4512C21.72 27.3006 21.9309 26.9353 21.93 26.6354L21.9206 24.1998C21.9198 23.9 21.7075 23.779 21.4466 23.9297Z" fill="#1B2A4F"></path>
  <path d="M21.7081 26.5189L21.6987 24.0833C21.6984 23.9939 21.6793 23.9206 21.6458 23.8655C21.8076 23.8586 21.9202 23.9819 21.9208 24.2L21.9302 26.6357C21.9311 26.9355 21.7202 27.3008 21.4593 27.4514C21.2761 27.5572 21.117 27.5289 21.0381 27.399C21.0986 27.3964 21.1661 27.3757 21.2371 27.3347C21.4981 27.184 21.709 26.8187 21.7081 26.5189Z" fill="#6BB5FB"></path>
  <path d="M19.4016 25.1178C19.1407 25.2684 18.9298 25.6337 18.9307 25.9335L18.9401 28.3692C18.9409 28.669 19.1532 28.79 19.4141 28.6393C19.6751 28.4887 19.886 28.1234 19.8851 27.8236L19.8757 25.3879C19.8748 25.0881 19.6625 24.9671 19.4016 25.1178Z" fill="#1B2A4F"></path>
  <path d="M19.6632 27.7067L19.6537 25.271C19.6535 25.1817 19.6344 25.1084 19.6009 25.0533C19.7626 25.0463 19.8753 25.1696 19.8759 25.3878L19.8853 27.8234C19.8862 28.1232 19.6753 28.4885 19.4143 28.6392C19.2312 28.7449 19.0721 28.7167 18.9932 28.5868C19.0537 28.5842 19.1211 28.5635 19.1922 28.5224C19.4531 28.3718 19.664 28.0065 19.6632 27.7067Z" fill="#6BB5FB"></path>
  <path d="M17.3577 26.306C17.0968 26.4567 16.8859 26.8219 16.8867 27.1218L16.8961 29.5574C16.897 29.8572 17.1093 29.9782 17.3702 29.8275C17.6311 29.6769 17.842 29.3116 17.8412 29.0118L17.8317 26.5762C17.8309 26.2763 17.6186 26.1554 17.3577 26.306Z" fill="#1B2A4F"></path>
  <path d="M17.6192 28.8949L17.6098 26.4593C17.6095 26.3699 17.5904 26.2966 17.5569 26.2415C17.7187 26.2345 17.8313 26.3579 17.8319 26.576L17.8414 29.0117C17.8422 29.3115 17.6313 29.6768 17.3704 29.8274C17.1872 29.9332 17.0281 29.9049 16.9492 29.775C17.0098 29.7724 17.0772 29.7517 17.1483 29.7106C17.4092 29.56 17.6201 29.1947 17.6192 28.8949Z" fill="#6BB5FB"></path>
  <path d="M11.2977 32.2521L1.44825 26.5653C1.24425 26.4475 0.989258 26.5947 0.989258 26.8303V28.8434C0.989258 29.062 1.10591 29.2641 1.29525 29.3734L11.1447 35.0599C11.3487 35.1776 11.6036 35.0304 11.6036 34.7949V32.782C11.6036 32.5634 11.487 32.3614 11.2977 32.2521Z" fill="#3955D1"></path>
  <path d="M15.3128 32.7584C15.0519 32.909 14.841 33.2743 14.8418 33.5741L14.8512 36.0098C14.8521 36.3096 15.0644 36.4306 15.3253 36.2799C15.5862 36.1293 15.7971 35.764 15.7962 35.4642L15.7868 33.0285C15.786 32.7287 15.5737 32.6078 15.3128 32.7584Z" fill="#1B2A4F"></path>
  <path d="M15.5743 35.3473L15.5649 32.9116C15.5646 32.8223 15.5455 32.749 15.512 32.6939C15.6738 32.6869 15.7864 32.8102 15.787 33.0284L15.7964 35.464C15.7973 35.7639 15.5864 36.1292 15.3255 36.2798C15.1423 36.3855 14.9832 36.3573 14.9043 36.2274C14.9649 36.2248 15.0323 36.2041 15.1033 36.163C15.3643 36.0124 15.5752 35.6471 15.5743 35.3473Z" fill="#6BB5FB"></path>
  <path d="M23.4905 28.006C23.2296 28.1566 23.0187 28.5219 23.0195 28.8217L23.029 31.2574C23.0298 31.5572 23.2421 31.6781 23.503 31.5275C23.7639 31.3769 23.9748 31.0116 23.974 30.7117L23.9646 28.2761C23.9637 27.9763 23.7514 27.8553 23.4905 28.006Z" fill="#1B2A4F"></path>
  <path d="M23.753 30.5949L23.7436 28.1592C23.7433 28.0699 23.7242 27.9966 23.6907 27.9414C23.8525 27.9345 23.9651 28.0578 23.9657 28.276L23.9751 30.7116C23.976 31.0114 23.7651 31.3767 23.5042 31.5274C23.321 31.6331 23.1619 31.6048 23.083 31.475C23.1436 31.4724 23.211 31.4516 23.282 31.4106C23.543 31.26 23.7539 30.8947 23.753 30.5949Z" fill="#6BB5FB"></path>
  <path d="M21.4466 29.1942C21.1856 29.3448 20.9747 29.7101 20.9756 30.0099L20.985 32.4456C20.9859 32.7454 21.1981 32.8664 21.4591 32.7157C21.72 32.5651 21.9309 32.1998 21.93 31.9L21.9206 29.4643C21.9198 29.1645 21.7075 29.0435 21.4466 29.1942Z" fill="#1B2A4F"></path>
  <path d="M21.7081 31.7828L21.6987 29.3472C21.6984 29.2579 21.6793 29.1846 21.6458 29.1294C21.8076 29.1225 21.9202 29.2458 21.9208 29.4639L21.9302 31.8996C21.9311 32.1994 21.7202 32.5647 21.4593 32.7153C21.2761 32.8211 21.117 32.7928 21.0381 32.663C21.0986 32.6604 21.1661 32.6396 21.2371 32.5986C21.4981 32.4479 21.709 32.0826 21.7081 31.7828Z" fill="#6BB5FB"></path>
  <path d="M19.4016 30.3821C19.1407 30.5327 18.9298 30.898 18.9307 31.1978L18.9401 33.6334C18.9409 33.9333 19.1532 34.0542 19.4141 33.9036C19.6751 33.7529 19.886 33.3877 19.8851 33.0878L19.8757 30.6522C19.8748 30.3524 19.6625 30.2314 19.4016 30.3821Z" fill="#1B2A4F"></path>
  <path d="M19.6632 32.9709L19.6537 30.5353C19.6535 30.446 19.6344 30.3727 19.6009 30.3175C19.7626 30.3106 19.8753 30.4339 19.8759 30.652L19.8853 33.0877C19.8862 33.3875 19.6753 33.7528 19.4143 33.9034C19.2312 34.0092 19.0721 33.9809 18.9932 33.8511C19.0537 33.8484 19.1211 33.8277 19.1922 33.7867C19.4531 33.6361 19.664 33.2708 19.6632 32.9709Z" fill="#6BB5FB"></path>
  <path d="M17.3577 31.57C17.0968 31.7207 16.8859 32.086 16.8867 32.3858L16.8961 34.8214C16.897 35.1213 17.1093 35.2422 17.3702 35.0916C17.6311 34.9409 17.842 34.5756 17.8412 34.2758L17.8317 31.8402C17.8309 31.5404 17.6186 31.4194 17.3577 31.57Z" fill="#1B2A4F"></path>
  <path d="M17.6192 34.1592L17.6098 31.7235C17.6095 31.6342 17.5904 31.5609 17.5569 31.5058C17.7187 31.4988 17.8313 31.6221 17.8319 31.8403L17.8414 34.2759C17.8422 34.5757 17.6313 34.941 17.3704 35.0917C17.1872 35.1974 17.0281 35.1692 16.9492 35.0393C17.0098 35.0367 17.0772 35.016 17.1483 34.9749C17.4092 34.8243 17.6201 34.459 17.6192 34.1592Z" fill="#6BB5FB"></path>
</svg>
