<?xml version="1.0" encoding="UTF-8"?>
<svg xmlns="http://www.w3.org/2000/svg" width="40" height="40" viewBox="0 0 40 40" fill="none">
  <path d="M7.26378 0.85469C7.41084 0.769218 7.61442 0.781162 7.83893 0.910778L33.2674 15.5919C33.7154 15.8506 34.0766 16.4761 34.0751 16.9888L34.0317 38.0117C34.031 38.2661 33.9411 38.4453 33.7959 38.5297L32.7364 39.1454C32.8815 39.0611 32.9714 38.8819 32.9722 38.6275L33.0156 17.6045C33.017 17.0919 32.6558 16.4663 32.2079 16.2077L6.77938 1.52651C6.55488 1.39689 6.3513 1.38497 6.20424 1.47042L7.26378 0.85469Z" fill="#B7C5FD"></path>
  <path d="M6.7795 1.52649C6.33337 1.26892 5.96982 1.47609 5.96838 1.98872L5.92498 23.0117C5.92353 23.5243 6.28472 24.1499 6.73084 24.4075L32.1593 39.0886C32.6073 39.3473 32.9708 39.1401 32.9723 38.6274L33.0157 17.6045C33.0171 17.0919 32.656 16.4663 32.208 16.2076L6.7795 1.52649Z" fill="#9AADFD"></path>
  <path d="M6.97199 4.55469L6.93615 23.3632L31.9604 37.811L31.9962 19.0025L6.97199 4.55469Z" fill="white"></path>
  <path d="M10.0494 4.54052C9.82029 4.40824 9.63374 4.51455 9.63299 4.77783C9.63225 5.0411 9.81758 5.36073 10.0467 5.49302C10.2746 5.62461 10.4612 5.51968 10.4619 5.2564C10.4627 4.99312 10.2773 4.67212 10.0494 4.54052Z" fill="white"></path>
  <path d="M7.38842 3.00464C7.1593 2.87236 6.97275 2.97866 6.97201 3.24194C6.97126 3.50522 7.1566 3.82485 7.38572 3.95713C7.61364 4.08872 7.80019 3.98379 7.80093 3.72051C7.80168 3.45723 7.61634 3.13623 7.38842 3.00464Z" fill="white"></path>
  <path d="M8.71905 3.77246C8.48994 3.64018 8.30339 3.74648 8.30264 4.00976C8.3019 4.27304 8.48723 4.59267 8.71635 4.72495C8.94547 4.85724 9.13082 4.75162 9.13156 4.48834C9.1323 4.22507 8.94817 3.90475 8.71905 3.77246Z" fill="white"></path>
  <path d="M27.062 21.0831L24.5266 20.719C24.909 22.1174 25.8944 23.5241 27.0532 24.1931L27.062 21.0831Z" fill="#3955D1"></path>
  <path d="M24.9289 17.9456C24.5708 18.2645 24.3575 18.8026 24.3555 19.5203C24.3544 19.9079 24.4162 20.3133 24.5266 20.7188L27.062 21.0829L24.9289 17.9456Z" fill="#4466FB"></path>
  <path d="M29.597 21.4471L27.0617 21.083L27.0529 24.193C28.5473 25.0559 29.7633 24.3629 29.7682 22.6456C29.7693 22.2599 29.709 21.8536 29.597 21.4471Z" fill="#AABAFD"></path>
  <path d="M27.0705 17.9729L27.0617 21.0829L29.597 21.447C29.2146 20.0486 28.2293 18.6419 27.0705 17.9729Z" fill="#798FFE"></path>
  <path d="M27.0705 17.973C26.2006 17.4708 25.4246 17.4964 24.9286 17.9457L27.0617 21.083L27.0705 17.973Z" fill="#6BB5FB"></path>
  <path d="M19.7995 13.7751L19.796 15.0047C20.4965 15.4091 21.0922 16.2601 21.3242 17.1055L22.326 17.2493C21.9436 15.8508 20.9567 14.4432 19.7995 13.7751Z" fill="#798FFE"></path>
  <path d="M19.7994 13.775C18.9279 13.2718 18.1535 13.2984 17.656 13.7467L18.4995 14.9861C18.801 14.7162 19.2698 14.7008 19.796 15.0045L19.7994 13.775Z" fill="#6BB5FB"></path>
  <path d="M18.2572 16.665L17.2554 16.5212C17.6378 17.9197 18.6231 19.3263 19.7819 19.9954L19.7854 18.7658C19.0849 18.3614 18.4892 17.5104 18.2572 16.665Z" fill="#3955D1"></path>
  <path d="M17.6567 13.7471C17.3001 14.0669 17.0868 14.605 17.0848 15.3227C17.0837 15.7103 17.144 16.1148 17.256 16.5212L18.2579 16.665C18.1907 16.42 18.1542 16.1742 18.1548 15.9405C18.1561 15.5066 18.2847 15.1814 18.5002 14.9864L17.6567 13.7471Z" fill="#4466FB"></path>
  <path d="M22.3266 17.2495L21.3248 17.1057C21.392 17.3507 21.4285 17.5965 21.4278 17.8302C21.4249 18.8687 20.6898 19.2876 19.786 18.7658L19.7825 19.9954C21.277 20.8582 22.493 20.1652 22.4978 18.448C22.4989 18.0622 22.437 17.655 22.3266 17.2495Z" fill="#AABAFD"></path>
  <path d="M12.4252 9.63664C11.6924 9.24699 11.0037 9.23763 10.529 9.61184L11.2132 10.618C11.5242 10.387 11.9526 10.3929 12.4223 10.6344L12.4252 9.63664Z" fill="#6BB5FB"></path>
  <path d="M10.4042 9.72583C10.0849 10.0504 9.91529 10.5544 9.91352 11.183C9.9126 11.5057 9.95689 11.8508 10.0448 12.208L10.8576 12.3244C10.8065 12.1017 10.7796 11.8856 10.7802 11.6834C10.7813 11.2773 10.8874 10.9484 11.0884 10.732L10.4042 9.72583Z" fill="#4466FB"></path>
  <path d="M12.6292 9.75391L12.6263 10.7516C13.2702 11.1661 13.8483 11.9605 14.1094 12.7893L14.9222 12.9075C14.5314 11.6119 13.6377 10.3826 12.6292 9.75391Z" fill="#798FFE"></path>
  <path d="M14.994 13.1685L14.1812 13.0503C14.2323 13.273 14.2591 13.4891 14.2586 13.6912C14.2555 14.7539 13.5349 15.209 12.6148 14.7391L12.612 15.7368C13.9953 16.4741 15.1191 15.7856 15.1236 14.1907C15.1245 13.868 15.0819 13.5239 14.994 13.1685Z" fill="#AABAFD"></path>
  <path d="M10.9296 12.5831L10.1152 12.4658C10.506 13.7614 11.4013 14.9916 12.4082 15.6194L12.4111 14.6217C11.7672 14.2054 11.1908 13.4119 10.9296 12.5831Z" fill="#3955D1"></path>
  <path d="M26.6506 30.2L26.6411 32.6281L27.4789 33.1119L27.4884 30.6837L26.6506 30.2Z" fill="#6BB5FB"></path>
  <path d="M25.8186 28.3047L25.8036 32.1445L26.6414 32.6282L26.6565 28.7884L25.8186 28.3047Z" fill="#4466FB"></path>
  <path d="M23.6944 30.1655L23.6877 30.9235L24.5255 31.4072L24.5322 30.6493L23.6944 30.1655Z" fill="#6BB5FB"></path>
  <path d="M22.8621 28.8257L22.8498 30.4392L23.6877 30.923L23.7 29.3094L22.8621 28.8257Z" fill="#4466FB"></path>
  <path d="M19.9202 23.1804L19.8967 28.7344L20.7346 29.2182L20.758 23.6642L19.9202 23.1804Z" fill="#4466FB"></path>
  <path d="M20.7528 25.6321L20.7349 29.2185L21.5727 29.7022L21.5906 26.1158L20.7528 25.6321Z" fill="#6BB5FB"></path>
  <path d="M17.7935 26.0303L17.7812 27.5134L18.619 27.9971L18.6313 26.514L17.7935 26.0303Z" fill="#6BB5FB"></path>
  <path d="M16.9616 24.6858L16.9437 27.0298L17.7815 27.5135L17.7994 25.1695L16.9616 24.6858Z" fill="#4466FB"></path>
  <path d="M15.8695 26.4116V26.4839L28.8797 33.9953V33.5672L29.1132 33.7062V33.6284L28.8797 33.4949V33.0724L29.1132 33.2114V33.128L28.8797 32.9946V32.572L29.1132 32.7054V32.6332L28.8797 32.4997V32.0716L29.1132 32.205V32.1272L28.8797 31.9882L28.8852 31.5712L29.1188 31.7102V31.6268L28.8852 31.4878V31.0708L29.1188 31.2098V31.1264L28.8852 30.993V30.5704L29.1188 30.6983V30.6316L28.8852 30.4926V30.0756L29.1188 30.2035V30.1256L28.8852 29.9866V29.5696L29.1188 29.7031V29.6197L28.8852 29.4918L28.8908 29.0637L29.1243 29.2027V29.1193L28.8908 28.9914V28.5633L29.1243 28.6967V28.6245L28.8908 28.491V28.0685L29.1243 28.2019V28.1185L28.8908 27.9795V27.5625L29.1243 27.7015V27.6237L28.8185 27.4458L28.8018 33.8786L15.8695 26.4116Z" fill="#1B2A4F"></path>
  <path d="M8.5727 19.9978L8.57092 20.6259L13.946 23.7292L13.9478 23.1011L8.5727 19.9978Z" fill="#9AADFD"></path>
  <path d="M11.5205 23.0681L11.5188 23.691L13.9421 25.0901L13.9439 24.4673L11.5205 23.0681Z" fill="#9AADFD"></path>
  <path d="M10.0524 19.489L10.0506 20.1171L13.9498 22.3684L13.9516 21.7403L10.0524 19.489Z" fill="#9AADFD"></path>
  <path d="M8.5804 17.2759L8.57861 17.904L13.9537 21.0073L13.9555 20.3792L8.5804 17.2759Z" fill="#9AADFD"></path>
</svg>
