<?xml version="1.0" encoding="UTF-8"?>
<svg xmlns="http://www.w3.org/2000/svg" width="56" height="56" viewBox="0 0 56 56" fill="none">
  <path d="M8.34692 42.0693L27.6563 30.8479L47.675 42.4057L28.3655 53.6271L8.34692 42.0693Z" fill="#D9DDF6"></path>
  <path d="M28.3649 53.628L47.6743 42.4066L47.6536 43.6595L28.3442 54.881L28.3649 53.628Z" fill="#AABAFD"></path>
  <path d="M28.3649 53.6276L28.3443 54.8805L8.32562 43.3227L8.34629 42.0698L28.3649 53.6276Z" fill="#B7C5FD"></path>
  <path d="M27.6639 18.7051L43.2924 10.104L43.2764 42.8836L28.2671 51.606L27.6639 18.7051Z" fill="#1B2A4F"></path>
  <path d="M36.8062 43.777L36.8082 44.4902L41.764 41.629L41.7619 40.9158L36.8062 43.777Z" fill="#384E85"></path>
  <path d="M36.7921 38.8453L36.7941 39.5586L41.7499 36.6974L41.7478 35.9841L36.7921 38.8453Z" fill="#384E85"></path>
  <path d="M36.7957 40.078L36.7977 40.7912L41.7535 37.93L41.7514 37.2168L36.7957 40.078Z" fill="#384E85"></path>
  <path d="M36.7986 41.3108L36.8006 42.024L41.7563 39.1628L41.7543 38.4496L36.7986 41.3108Z" fill="#384E85"></path>
  <path d="M36.8029 42.5444L36.8049 43.2577L41.7606 40.3965L41.7586 39.6832L36.8029 42.5444Z" fill="#384E85"></path>
  <path d="M36.8062 22.0594L36.8082 22.7727L41.764 19.9115L41.7619 19.1982L36.8062 22.0594Z" fill="#384E85"></path>
  <path d="M36.7921 17.1278L36.7941 17.8411L41.7499 14.9799L41.7478 14.2666L36.7921 17.1278Z" fill="#384E85"></path>
  <path d="M36.7957 18.3603L36.7977 19.0736L41.7535 16.2124L41.7514 15.4991L36.7957 18.3603Z" fill="#384E85"></path>
  <path d="M36.7986 19.5933L36.8006 20.3065L41.7563 17.4453L41.7543 16.7321L36.7986 19.5933Z" fill="#384E85"></path>
  <path d="M36.8029 20.8269L36.8049 21.5401L41.7606 18.6789L41.7586 17.9657L36.8029 20.8269Z" fill="#384E85"></path>
  <path d="M28.2837 18.7051L28.2676 51.606L12.707 42.6221L12.7231 9.84253L28.2837 18.7051Z" fill="#2E4277"></path>
  <path d="M27.0218 19.9056L27.6645 19.5321L27.6508 23.0193L27.0081 23.3928L27.0218 19.9056Z" fill="#4466FB"></path>
  <path d="M13.3419 12.0064L13.9846 11.6329L27.6663 19.5321L27.0236 19.9055L13.3419 12.0064Z" fill="#B7C5FD"></path>
  <path d="M27.0218 19.9051L27.0081 23.3924L13.3264 15.4932L13.3401 12.006L27.0218 19.9051Z" fill="#B7C5FD"></path>
  <path d="M27.0218 19.9051L27.0081 23.3924L13.3264 15.4932L13.3401 12.006L27.0218 19.9051Z" fill="#6BB5FB"></path>
  <path d="M15.1825 14.0158L15.1805 14.4923L14.2224 13.9391L14.2243 13.4626L15.1825 14.0158Z" fill="#384E85"></path>
  <path d="M16.5737 14.8185L16.5718 15.295L15.6158 14.7431L15.6178 14.2666L16.5737 14.8185Z" fill="#384E85"></path>
  <path d="M25.7656 20.1266L25.7637 20.603L24.8055 20.0498L24.8074 19.5734L25.7656 20.1266Z" fill="#384E85"></path>
  <path d="M25.7072 21.6974C25.7778 21.6563 25.7776 21.5242 25.7067 21.4022C25.6359 21.2803 25.5212 21.2147 25.4505 21.2558C25.3799 21.2968 25.3801 21.4289 25.4509 21.5509C25.5218 21.6728 25.6365 21.7384 25.7072 21.6974Z" fill="white"></path>
  <path d="M24.9634 20.9124C25.0646 20.9709 25.1443 21.1109 25.1439 21.2252C25.1436 21.3395 25.0634 21.3872 24.9622 21.3288C24.8627 21.2714 24.7831 21.1313 24.7834 21.017C24.7837 20.9027 24.8639 20.855 24.9634 20.9124Z" fill="white"></path>
  <path d="M24.4767 20.9863C24.5474 20.9453 24.5472 20.8131 24.4763 20.6912C24.4055 20.5692 24.2907 20.5036 24.2201 20.5447C24.1495 20.5857 24.1497 20.7179 24.2205 20.8398C24.2914 20.9618 24.4061 21.0274 24.4767 20.9863Z" fill="white"></path>
  <path d="M23.8598 20.6308C23.9304 20.5898 23.9302 20.4577 23.8594 20.3357C23.7885 20.2138 23.6738 20.1482 23.6032 20.1892C23.5325 20.2303 23.5327 20.3624 23.6036 20.4844C23.6745 20.6063 23.7892 20.6719 23.8598 20.6308Z" fill="white"></path>
  <path d="M13.8066 12.7216L13.7242 12.6742L13.7139 15.2397L13.7134 15.271L26.5421 22.6775L26.6245 22.7249L26.6348 20.1594L26.6353 20.1281L13.8066 12.7216ZM26.5146 22.5353L13.8244 15.2085L13.8341 12.8638L26.5243 20.1906L26.5146 22.5353Z" fill="#4466FB"></path>
  <path d="M27.0218 25.1479L27.6645 24.7744L27.6508 28.2617L27.0081 28.6351L27.0218 25.1479Z" fill="#4466FB"></path>
  <path d="M13.3419 17.2487L13.9846 16.8752L27.6663 24.7744L27.0236 25.1479L13.3419 17.2487Z" fill="#B7C5FD"></path>
  <path d="M27.0218 25.1474L27.0081 28.6347L13.3264 20.7355L13.3401 17.2483L27.0218 25.1474Z" fill="#B7C5FD"></path>
  <path d="M27.0218 25.1474L27.0081 28.6347L13.3264 20.7355L13.3401 17.2483L27.0218 25.1474Z" fill="#6BB5FB"></path>
  <path d="M15.1825 19.2582L15.1805 19.7346L14.2224 19.1814L14.2243 18.705L15.1825 19.2582Z" fill="#384E85"></path>
  <path d="M16.5737 20.0608L16.5718 20.5373L15.6158 19.9854L15.6178 19.5089L16.5737 20.0608Z" fill="#384E85"></path>
  <path d="M25.7656 25.3689L25.7637 25.8453L24.8055 25.2921L24.8074 24.8157L25.7656 25.3689Z" fill="#384E85"></path>
  <path d="M25.7072 26.9396C25.7778 26.8985 25.7776 26.7664 25.7067 26.6444C25.6359 26.5225 25.5212 26.4569 25.4505 26.4979C25.3799 26.539 25.3801 26.6711 25.4509 26.7931C25.5218 26.915 25.6365 26.9806 25.7072 26.9396Z" fill="white"></path>
  <path d="M24.9634 26.1547C25.0646 26.2132 25.1443 26.3532 25.1439 26.4675C25.1436 26.5818 25.0634 26.6295 24.9622 26.5711C24.8627 26.5137 24.7831 26.3736 24.7834 26.2593C24.7837 26.1451 24.8639 26.0973 24.9634 26.1547Z" fill="white"></path>
  <path d="M24.4757 26.2286C24.5463 26.1876 24.5461 26.0554 24.4752 25.9335C24.4044 25.8115 24.2896 25.746 24.219 25.787C24.1484 25.8281 24.1486 25.9602 24.2194 26.0821C24.2903 26.2041 24.405 26.2697 24.4757 26.2286Z" fill="white"></path>
  <path d="M23.8599 25.8731C23.9306 25.8321 23.9304 25.7 23.8595 25.578C23.7886 25.4561 23.6739 25.3905 23.6033 25.4315C23.5327 25.4726 23.5329 25.6047 23.6037 25.7267C23.6746 25.8486 23.7893 25.9142 23.8599 25.8731Z" fill="white"></path>
  <path d="M13.8066 17.9639L13.7242 17.9165L13.7139 20.482L13.7134 20.5133L26.5421 27.9198L26.6245 27.9672L26.6348 25.4017L26.6353 25.3705L13.8066 17.9639ZM26.5146 27.7776L13.8244 20.4508L13.8341 18.1061L26.5243 25.4329L26.5146 27.7776Z" fill="#4466FB"></path>
  <path d="M27.0218 30.3914L27.6645 30.0179L27.6508 33.5052L27.0081 33.8787L27.0218 30.3914Z" fill="#4466FB"></path>
  <path d="M13.3419 22.4923L13.9846 22.1188L27.6663 30.0179L27.0236 30.3914L13.3419 22.4923Z" fill="#B7C5FD"></path>
  <path d="M27.0218 30.3909L27.0081 33.8782L13.3264 25.9791L13.3401 22.4918L27.0218 30.3909Z" fill="#B7C5FD"></path>
  <path d="M27.0218 30.3909L27.0081 33.8782L13.3264 25.9791L13.3401 22.4918L27.0218 30.3909Z" fill="#6BB5FB"></path>
  <path d="M15.1825 24.5017L15.1805 24.9782L14.2224 24.425L14.2243 23.9485L15.1825 24.5017Z" fill="#384E85"></path>
  <path d="M16.5737 25.3043L16.5718 25.7808L15.6158 25.2289L15.6178 24.7524L16.5737 25.3043Z" fill="#384E85"></path>
  <path d="M25.7656 30.6124L25.7637 31.0889L24.8055 30.5357L24.8074 30.0592L25.7656 30.6124Z" fill="#384E85"></path>
  <path d="M25.7073 32.1831C25.7779 32.142 25.7777 32.0099 25.7068 31.888C25.636 31.766 25.5213 31.7004 25.4506 31.7415C25.38 31.7825 25.3802 31.9147 25.4511 32.0366C25.5219 32.1585 25.6366 32.2241 25.7073 32.1831Z" fill="white"></path>
  <path d="M24.9634 31.3983C25.0646 31.4567 25.1443 31.5967 25.1439 31.711C25.1436 31.8253 25.0634 31.8731 24.9622 31.8146C24.8627 31.7572 24.7831 31.6172 24.7834 31.5029C24.7837 31.3886 24.8639 31.3409 24.9634 31.3983Z" fill="white"></path>
  <path d="M24.4756 31.4721C24.5462 31.4311 24.546 31.299 24.4752 31.177C24.4043 31.0551 24.2896 30.9895 24.219 31.0305C24.1483 31.0716 24.1485 31.2037 24.2194 31.3257C24.2903 31.4476 24.405 31.5132 24.4756 31.4721Z" fill="white"></path>
  <path d="M23.8599 31.1167C23.9306 31.0756 23.9304 30.9435 23.8595 30.8215C23.7886 30.6996 23.6739 30.634 23.6033 30.6751C23.5327 30.7161 23.5329 30.8482 23.6037 30.9702C23.6746 31.0921 23.7893 31.1577 23.8599 31.1167Z" fill="white"></path>
  <path d="M13.8066 23.2074L13.7242 23.16L13.7139 25.7256L13.7134 25.7568L26.5421 33.1633L26.6245 33.2107L26.6348 30.6452L26.6353 30.614L13.8066 23.2074ZM26.5146 33.0211L13.8244 25.6943L13.8341 23.3497L26.5243 30.6765L26.5146 33.0211Z" fill="#4466FB"></path>
  <path d="M27.0218 35.6339L27.6645 35.2604L27.6508 38.7476L27.0081 39.1211L27.0218 35.6339Z" fill="#4466FB"></path>
  <path d="M13.3419 27.7347L13.9846 27.3612L27.6663 35.2603L27.0236 35.6338L13.3419 27.7347Z" fill="#B7C5FD"></path>
  <path d="M27.0218 35.6334L27.0081 39.1206L13.3264 31.2215L13.3401 27.7343L27.0218 35.6334Z" fill="#B7C5FD"></path>
  <path d="M27.0218 35.6334L27.0081 39.1206L13.3264 31.2215L13.3401 27.7343L27.0218 35.6334Z" fill="#6BB5FB"></path>
  <path d="M15.1825 29.7441L15.1805 30.2206L14.2224 29.6674L14.2243 29.1909L15.1825 29.7441Z" fill="#384E85"></path>
  <path d="M16.5737 30.5468L16.5718 31.0233L15.6158 30.4713L15.6178 29.9949L16.5737 30.5468Z" fill="#384E85"></path>
  <path d="M25.7656 35.8548L25.7637 36.3313L24.8055 35.7781L24.8074 35.3016L25.7656 35.8548Z" fill="#384E85"></path>
  <path d="M25.7072 37.4255C25.7778 37.3845 25.7777 37.2523 25.7068 37.1304C25.6359 37.0084 25.5212 36.9429 25.4506 36.9839C25.38 37.025 25.3801 37.1571 25.451 37.279C25.5219 37.401 25.6366 37.4666 25.7072 37.4255Z" fill="white"></path>
  <path d="M24.9634 36.6407C25.0646 36.6992 25.1443 36.8392 25.1439 36.9535C25.1436 37.0678 25.0634 37.1155 24.9622 37.0571C24.8627 36.9996 24.7831 36.8596 24.7834 36.7453C24.7837 36.631 24.8639 36.5833 24.9634 36.6407Z" fill="white"></path>
  <path d="M24.4756 36.7147C24.5462 36.6736 24.546 36.5415 24.4752 36.4196C24.4043 36.2976 24.2896 36.2321 24.219 36.2731C24.1483 36.3141 24.1485 36.4463 24.2194 36.5682C24.2903 36.6901 24.405 36.7557 24.4756 36.7147Z" fill="white"></path>
  <path d="M23.8599 36.358C23.9306 36.3169 23.9304 36.1848 23.8595 36.0629C23.7886 35.9409 23.6739 35.8754 23.6033 35.9164C23.5327 35.9574 23.5329 36.0896 23.6037 36.2115C23.6746 36.3334 23.7893 36.399 23.8599 36.358Z" fill="white"></path>
  <path d="M13.8066 28.4499L13.7242 28.4025L13.7139 30.968L13.7134 30.9992L26.5421 38.4058L26.6245 38.4532L26.6348 35.8877L26.6353 35.8564L13.8066 28.4499ZM26.5146 38.2635L13.8244 30.9367L13.8341 28.5921L26.5243 35.9189L26.5146 38.2635Z" fill="#4466FB"></path>
  <path d="M27.0218 40.8772L27.6645 40.5037L27.6508 43.9909L27.0081 44.3644L27.0218 40.8772Z" fill="#4466FB"></path>
  <path d="M13.3419 32.978L13.9846 32.6045L27.6663 40.5036L27.0236 40.8771L13.3419 32.978Z" fill="#B7C5FD"></path>
  <path d="M27.0218 40.8767L27.0081 44.3639L13.3264 36.4648L13.3401 32.9775L27.0218 40.8767Z" fill="#B7C5FD"></path>
  <path d="M27.0218 40.8767L27.0081 44.3639L13.3264 36.4648L13.3401 32.9775L27.0218 40.8767Z" fill="#6BB5FB"></path>
  <path d="M15.1825 34.9874L15.1805 35.4639L14.2224 34.9107L14.2243 34.4342L15.1825 34.9874Z" fill="#384E85"></path>
  <path d="M16.5737 35.79L16.5718 36.2665L15.6158 35.7146L15.6178 35.2382L16.5737 35.79Z" fill="#384E85"></path>
  <path d="M25.7656 41.0981L25.7637 41.5746L24.8055 41.0214L24.8074 40.5449L25.7656 41.0981Z" fill="#384E85"></path>
  <path d="M25.7072 42.6688C25.7778 42.6278 25.7777 42.4956 25.7068 42.3737C25.6359 42.2517 25.5212 42.1861 25.4506 42.2272C25.38 42.2682 25.3801 42.4004 25.451 42.5223C25.5219 42.6443 25.6366 42.7098 25.7072 42.6688Z" fill="white"></path>
  <path d="M24.9634 41.884C25.0646 41.9424 25.1443 42.0825 25.1439 42.1968C25.1436 42.311 25.0634 42.3588 24.9622 42.3003C24.8627 42.2429 24.7831 42.1029 24.7834 41.9886C24.7837 41.8743 24.8639 41.8266 24.9634 41.884Z" fill="white"></path>
  <path d="M24.4756 41.9579C24.5462 41.9168 24.546 41.7847 24.4752 41.6627C24.4043 41.5408 24.2896 41.4752 24.219 41.5162C24.1483 41.5573 24.1485 41.6894 24.2194 41.8114C24.2903 41.9333 24.405 41.9989 24.4756 41.9579Z" fill="white"></path>
  <path d="M23.8599 41.6015C23.9306 41.5605 23.9304 41.4284 23.8595 41.3064C23.7886 41.1845 23.6739 41.1189 23.6033 41.1599C23.5327 41.201 23.5329 41.3331 23.6037 41.4551C23.6746 41.577 23.7893 41.6426 23.8599 41.6015Z" fill="white"></path>
  <path d="M13.8066 33.6932L13.7242 33.6458L13.7139 36.2113L13.7134 36.2425L26.5421 43.6491L26.6245 43.6965L26.6348 41.1309L26.6353 41.0997L13.8066 33.6932ZM26.5146 43.5068L13.8244 36.18L13.8341 33.8354L26.5243 41.1622L26.5146 43.5068Z" fill="#4466FB"></path>
  <path d="M26.2022 44.896V47.0627L26.1921 49.0689L25.2994 48.5472V46.5511L25.3094 44.3744L26.2022 44.896Z" fill="#1B2A4F"></path>
  <path d="M16.0218 39.0073L16.9146 39.529L16.9045 41.7056V43.7018L16.0018 43.1802L16.0118 41.184L16.0218 39.0073Z" fill="#1B2A4F"></path>
  <path d="M18.2977 40.3311L18.7692 40.602L18.7591 42.7686V44.7748L18.2876 44.504L17.8563 44.2532L17.8664 42.257L17.8764 40.0803L18.2977 40.3311Z" fill="#1B2A4F"></path>
  <path d="M21.5884 42.2274L22.4911 42.7491L22.4811 44.9258V46.9219L21.5783 46.4003V44.4041L21.5884 42.2274Z" fill="#1B2A4F"></path>
  <path d="M23.8659 43.541L24.3475 43.8219V45.9886L24.3374 47.9948L23.8559 47.7139L23.4446 47.4731V45.477L23.4547 43.3003L23.8659 43.541Z" fill="#1B2A4F"></path>
  <path d="M19.7326 41.1544L20.6253 41.676V43.8427L20.6153 45.8489L19.7225 45.3273V43.3311L19.7326 41.1544Z" fill="#1B2A4F"></path>
  <path d="M14.1555 37.9442L15.0583 38.4558L15.0482 40.6325V42.6286L14.1454 42.1171L14.1555 40.1109V37.9442Z" fill="#1B2A4F"></path>
  <path d="M35.4703 43.2398C35.4623 43.2479 34.75 44.3162 35.0495 46.5176C35.6726 51.1551 33.8436 55.0803 28.3401 53.3646L28.1216 53.2999L27.9031 53.1137C22.4077 48.4762 20.611 42.4548 21.2584 38.5538C21.566 36.6923 20.8619 34.8228 20.8619 34.8066L20.4167 33.6654L23.4113 32.937L23.905 33.4388C24.2692 33.8111 24.6496 34.1105 25.03 34.3371C26.4301 35.1384 27.5389 34.7338 27.547 34.7338L28.1783 34.499L28.8014 35.4621C28.8095 35.4702 29.9183 37.1537 31.3104 37.9549C31.6907 38.1815 32.0712 38.3191 32.4434 38.3677L32.9291 38.4324L35.9155 42.6167L35.4703 43.2398Z" fill="#B7C5FD"></path>
  <path d="M37.2052 41.8635L34.2214 37.6789L33.731 37.6148C33.369 37.5689 32.984 37.4269 32.599 37.2068C31.2103 36.4002 30.1057 34.7227 30.0965 34.7136L29.4686 33.7465L28.8407 33.9848L28.8269 33.9894C28.6894 34.0306 27.6307 34.3377 26.3245 33.5815C25.9395 33.3615 25.5591 33.059 25.1924 32.6878L24.702 32.1836L21.7092 32.9169L20.4265 33.6629L23.4114 32.9368L23.9051 33.4386C24.2693 33.8109 24.6497 34.1104 25.0301 34.3369C26.4302 35.1382 27.539 34.7336 27.5471 34.7336L28.1784 34.4988L28.8015 35.4619C28.8096 35.47 29.9184 37.1535 31.3105 37.9547C31.6909 38.1813 32.0713 38.3189 32.4435 38.3675L32.9292 38.4322L35.9156 42.6165L35.4704 43.2396C35.4624 43.2477 34.7502 44.316 35.0496 46.5175C35.4383 49.4103 34.8721 52.0253 33.0557 53.1674L34.2398 52.4829C36.1419 51.3738 36.7377 48.7155 36.3389 45.7638C36.0456 43.5639 36.756 42.496 36.7606 42.4868L37.2052 41.8635Z" fill="#D9DDF6"></path>
  <path d="M28.1713 35.9528C28.2386 36.0574 29.5161 38.0444 31.3062 39.0779C31.7753 39.3488 32.275 39.5469 32.7891 39.6158L34.6254 42.1916C34.5802 42.2543 33.722 43.445 34.0866 46.1478C34.5889 49.8866 33.2854 53.7515 28.1254 52.1466C22.9732 47.7978 21.6958 42.4428 22.2177 39.2952C22.5963 37.0216 21.7477 34.8454 21.703 34.7308L23.5479 34.2804C24.0615 34.8049 24.5607 35.1835 25.0301 35.4545C26.8207 36.4883 28.1038 35.9795 28.1713 35.9528Z" fill="#3955D1"></path>
  <path d="M29.8893 43.7587C30.2838 43.9865 30.601 44.5321 30.5997 44.9855L30.5901 48.3786C30.5888 48.8246 30.2696 49.0065 29.8751 48.7787L26.0568 46.5742C25.6622 46.3464 25.3451 45.7971 25.3463 45.351L25.3559 41.958C25.3572 41.5046 25.6764 41.3264 26.071 41.5542L29.8893 43.7587ZM28.211 45.551C28.4149 45.5626 28.5555 45.4131 28.5563 45.1425C28.5574 44.7695 28.2973 44.3227 27.9759 44.1372C27.6546 43.9516 27.3928 44.0972 27.3917 44.4701C27.391 44.7407 27.5303 45.0518 27.7337 45.2755L27.7309 46.2663L28.2082 46.5419L28.211 45.551Z" fill="white"></path>
  <path d="M27.9999 39.5071C28.0163 39.5166 28.0326 39.5262 28.0491 39.5362C29.064 40.1551 29.8884 41.6492 29.885 42.8594L29.8825 43.7552L29.262 43.397L29.2645 42.5012C29.2669 41.6749 28.712 40.6587 28.0248 40.2363C28.0129 40.2291 28.001 40.222 27.9892 40.2152C27.6551 40.0223 27.3349 39.9865 27.0945 40.113C26.8423 40.2494 26.7044 40.547 26.7033 40.9455L26.7005 41.9181L26.0768 41.558L26.0796 40.5855C26.0813 39.9932 26.2865 39.555 26.6632 39.3513C27.0247 39.1594 27.5021 39.2197 27.9999 39.5071Z" fill="white"></path>
  <path d="M12.7238 9.84231L27.733 1.11987L43.2936 10.1038L28.2843 18.8262L12.7238 9.84231Z" fill="#384E85"></path>
  <path d="M38.5173 9.40719C39.0588 9.71986 39.0613 10.2265 38.5233 10.5392L29.0195 16.0622C28.4815 16.3749 27.6067 16.3751 27.0652 16.0624L17.4992 10.5395C16.9577 10.2268 16.9548 9.71994 17.4929 9.40727L26.9966 3.88428C27.5347 3.57161 28.4098 3.57161 28.9513 3.88427L38.5173 9.40719Z" fill="#1B2A4F"></path>
</svg>
