<?xml version="1.0" encoding="UTF-8"?>
<svg xmlns="http://www.w3.org/2000/svg" width="40" height="40" viewBox="0 0 40 40" fill="none">
  <path d="M29.589 10.7204L11.5942 0.331106C10.9232 -0.0562676 10.3147 -0.0923201 9.87479 0.163346L7.46921 1.5613C7.90908 1.30568 8.51761 1.34167 9.18862 1.72907L27.1833 12.1184C28.5181 12.889 29.5988 14.7607 29.5944 16.3007L29.5358 36.9718C29.5336 37.7376 29.2635 38.2759 28.8284 38.5288L31.234 37.1308C31.6692 36.8779 31.9392 36.3396 31.9414 35.5738L32 14.9027C32.0044 13.3627 30.9237 11.491 29.589 10.7204Z" fill="#F1F3FF"></path>
  <path d="M27.1833 12.1181C28.518 12.8887 29.5987 14.7604 29.5943 16.3004L29.5357 36.9715C29.5313 38.5115 28.4436 39.1313 27.1089 38.3607L9.11412 27.9715C7.77936 27.2008 6.69875 25.3291 6.70312 23.7891L6.76171 3.11803C6.76608 1.57803 7.85375 0.958182 9.18854 1.72882L27.1833 12.1181Z" fill="#D0DAFF"></path>
  <path d="M8.93592 6.71338L8.78879 6.62845L8.74343 22.6295L8.89056 22.7144C10.1436 23.4378 11.1591 25.1967 11.155 26.6365L11.1545 26.8118L25.0796 34.8514L25.08 34.6761C25.0841 33.2363 26.1062 32.6539 27.3593 33.3773L27.5118 33.4654L27.5572 17.4644L27.4047 17.3763C26.1516 16.6529 25.1361 14.894 25.1402 13.4542L25.1407 13.2789L11.2156 5.23926L11.2151 5.41454C11.211 6.85433 10.1889 7.43681 8.93592 6.71338ZM9.04404 22.4644L9.08747 7.14574C10.3843 7.80672 11.4338 7.20868 11.5143 5.76279L24.8456 13.4596C24.9176 14.9935 25.9547 16.7963 27.2511 17.6325L27.2077 32.9512C25.9108 32.2839 24.8669 32.8851 24.7864 34.331L11.4551 26.6342C11.3831 25.1003 10.3404 23.2944 9.04404 22.4644Z" fill="#9AADFD"></path>
  <path d="M16.7014 22.21L16.6983 23.0251L25.4805 28.0955L25.4836 27.2804L16.7014 22.21Z" fill="#9AADFD"></path>
  <path d="M10.8069 14.1677L10.8038 14.9828L25.4916 23.4628L25.4947 22.6477L10.8069 14.1677Z" fill="#9AADFD"></path>
  <path d="M10.8031 16.4844L10.8 17.2995L25.4878 25.7795L25.4909 24.9644L10.8031 16.4844Z" fill="#9AADFD"></path>
  <path d="M11.1128 9.12134L11.108 10.8304L25.2238 18.9801L25.2286 17.2711L11.1128 9.12134Z" fill="#384E85"></path>
  <path d="M17.1975 38.0669L16.6602 39.5156L16.1536 39.81L16.6909 38.3613L17.1975 38.0669Z" fill="#384E85"></path>
  <path d="M14.6945 33.9731L15.2012 33.6787L13.7165 37.8142L13.2099 38.1086L14.6945 33.9731Z" fill="#384E85"></path>
  <path d="M13.8953 30.1313L16.525 31.6495L18.656 39.7055L18.1495 39.9999L16.0184 31.944L13.3887 30.4258L13.8953 30.1313Z" fill="#384E85"></path>
  <path d="M13.3894 30.4253L11.2295 36.0038L12.6866 36.0475L13.2094 38.1082L14.694 33.9727L16.1557 39.8092L16.693 38.3606L18.1501 39.9994L16.019 31.9435L13.3894 30.4253Z" fill="#1B2A4F"></path>
  <path d="M19.449 31.9272C19.449 33.093 19.0376 33.9158 18.3706 34.3022L17.4917 34.8134C18.1587 34.4269 18.5701 33.6041 18.5701 32.4384C18.5763 30.0821 16.9244 27.2147 14.8735 26.0303C13.845 25.4381 12.91 25.382 12.2367 25.7747L13.1156 25.2635C13.7889 24.8708 14.7239 24.9269 15.7525 25.5191C17.8034 26.7035 19.4553 29.571 19.449 31.9272Z" fill="#6BB5FB"></path>
  <path d="M12.2448 31.8157C10.7939 29.3189 10.79 26.6136 12.2362 25.7731C13.6824 24.9327 16.031 26.2754 17.482 28.7722C18.9329 31.2689 18.9368 33.9743 17.4906 34.8147C16.0444 35.6552 13.6958 34.3125 12.2448 31.8157Z" fill="#4466FB"></path>
  <path d="M14.6941 27.801L14.0582 28.9042L12.6467 28.3236L13.727 30.1647L13.1237 31.5395L14.5683 31.3625L15.9414 32.9887L15.7038 31.2358L16.7283 30.6801L15.3181 29.6317L14.6941 27.801Z" fill="white"></path>
</svg>
