<?xml version="1.0" encoding="UTF-8"?>
<svg xmlns="http://www.w3.org/2000/svg" width="64" height="64" viewBox="0 0 64 64" fill="none">
  <path d="M15.916 14.1667L15.9291 50.3463C15.9304 50.8703 16.2747 51.393 16.9621 51.7922L32.4026 60.7656C33.7867 61.5697 36.0379 61.5703 37.4307 60.7656L56.1654 49.9493C56.8665 49.5445 57.2164 49.0137 57.2152 48.4829L57.2021 12.3063C57.2021 12.8353 15.9173 14.69 15.916 14.1667Z" fill="#2E4277"></path>
  <path d="M16.9489 15.6123L32.3895 24.5851C33.0973 24.9965 34.0305 25.1911 34.9611 25.1818V61.3632C34.0351 61.3703 33.1071 61.1744 32.4026 60.7653L16.9621 51.7919C16.2747 51.3928 15.9304 50.87 15.9292 50.3461L15.916 14.1664C15.9174 14.6897 16.2616 15.2125 16.9489 15.6123Z" fill="#1B2A4F"></path>
  <path d="M16.9657 12.6998C15.5727 13.5041 15.5653 14.8078 16.9493 15.6121L32.39 24.5852C33.774 25.3895 36.0251 25.3898 37.4182 24.5855L56.1529 13.769C57.546 12.9647 57.553 11.6608 56.1689 10.8564L40.7283 1.88332C39.3443 1.07902 37.0935 1.07901 35.7005 1.8833L16.9657 12.6998Z" fill="#384E85"></path>
  <path d="M23.0052 13.5124C22.3889 13.8682 22.3861 14.4447 22.9983 14.8005L33.8124 21.0849C34.4246 21.4407 35.42 21.441 36.0362 21.0852L50.1141 12.9573C50.7303 12.6015 50.7336 12.0248 50.1214 11.669L39.3073 5.38451C38.695 5.02874 37.6993 5.02873 37.0831 5.3845L23.0052 13.5124Z" fill="#2E4277"></path>
  <path d="M38.7913 26.4904L54.8536 17.2164C55.1863 17.0243 55.6022 17.2644 55.6022 17.6485V47.2371C55.6022 47.5937 55.4119 47.9231 55.1032 48.1014L39.0408 57.3749C38.7082 57.5669 38.2923 57.3269 38.2923 56.9427V27.3547C38.2923 26.9981 38.4825 26.6687 38.7913 26.4904Z" fill="#4466FB"></path>
  <path d="M32.2433 27.3156C32.6688 27.5613 33.0127 28.157 33.0113 28.6459L32.996 58.9235C32.9946 59.4125 32.6484 59.6098 32.2229 59.3641C31.7974 59.1184 31.4534 58.5227 31.4548 58.0338L31.4702 27.7562C31.4716 27.2672 31.8178 27.07 32.2433 27.3156Z" fill="#384E85"></path>
  <path d="M31.8171 57.8433L31.8325 27.5657C31.8329 27.42 31.8641 27.3005 31.9187 27.2106C31.6549 27.1992 31.4712 27.4004 31.4702 27.7561L31.4548 58.0337C31.4535 58.5226 31.7974 59.1184 32.2229 59.364C32.5216 59.5365 32.781 59.4904 32.9097 59.2786C32.811 59.2744 32.701 59.2406 32.5851 59.1736C32.1597 58.928 31.8157 58.3322 31.8171 57.8433Z" fill="#798FFE"></path>
  <path d="M18.907 19.5657C19.3325 19.8113 19.6765 20.4071 19.6751 20.896L19.6597 51.1736C19.6583 51.6625 19.3121 51.8598 18.8866 51.6142C18.4612 51.3685 18.1172 50.7728 18.1186 50.2838L18.134 20.0062C18.1354 19.5173 18.4815 19.32 18.907 19.5657Z" fill="#384E85"></path>
  <path d="M18.4808 50.0934L18.4962 19.8158C18.4966 19.6701 18.5279 19.5506 18.5825 19.4607C18.3186 19.4493 18.135 19.6504 18.134 20.0062L18.1186 50.2838C18.1172 50.7727 18.4611 51.3684 18.8866 51.6141C19.1854 51.7866 19.4448 51.7405 19.5735 51.5287C19.4747 51.5244 19.3648 51.4906 19.2489 51.4237C18.8234 51.178 18.4795 50.5823 18.4808 50.0934Z" fill="#798FFE"></path>
  <path d="M22.2409 21.5032C22.6664 21.7488 23.0103 22.3446 23.0089 22.8335L22.9935 53.1111C22.9922 53.6 22.646 53.7973 22.2205 53.5516C21.795 53.306 21.451 52.7103 21.4524 52.2213L21.4678 21.9437C21.4692 21.4548 21.8154 21.2575 22.2409 21.5032Z" fill="#384E85"></path>
  <path d="M21.8147 52.0309L21.83 21.7533C21.8304 21.6076 21.8617 21.4881 21.9163 21.3982C21.6524 21.3868 21.4688 21.5879 21.4678 21.9437L21.4524 52.2213C21.451 52.7102 21.795 53.3059 22.2204 53.5516C22.5192 53.7241 22.7786 53.678 22.9073 53.4662C22.8085 53.4619 22.6986 53.4281 22.5827 53.3612C22.1572 53.1155 21.8133 52.5198 21.8147 52.0309Z" fill="#798FFE"></path>
  <path d="M25.5746 23.4406C26.0001 23.6863 26.344 24.282 26.3426 24.7709L26.3273 55.0485C26.3259 55.5375 25.9797 55.7347 25.5542 55.4891C25.1287 55.2434 24.7847 54.6477 24.7861 54.1588L24.8015 23.8812C24.8029 23.3922 25.1491 23.195 25.5746 23.4406Z" fill="#384E85"></path>
  <path d="M25.1484 53.9683L25.1638 23.6907C25.1642 23.545 25.1954 23.4255 25.25 23.3356C24.9862 23.3243 24.8025 23.5254 24.8015 23.8811L24.7861 54.1587C24.7848 54.6477 25.1287 55.2434 25.5542 55.489C25.8529 55.6615 26.1123 55.6154 26.241 55.4036C26.1423 55.3993 26.0323 55.3655 25.9164 55.2986C25.4909 55.053 25.147 54.4572 25.1484 53.9683Z" fill="#798FFE"></path>
  <path d="M28.9095 25.3781C29.3349 25.6238 29.6789 26.2195 29.6775 26.7084L29.6621 56.986C29.6607 57.475 29.3146 57.6722 28.8891 57.4266C28.4636 57.1809 28.1196 56.5852 28.121 56.0963L28.1364 25.8187C28.1378 25.3297 28.484 25.1325 28.9095 25.3781Z" fill="#384E85"></path>
  <path d="M28.4833 55.9058L28.4986 25.6282C28.499 25.4825 28.5303 25.363 28.5849 25.2731C28.321 25.2618 28.1374 25.4629 28.1364 25.8186L28.121 56.0962C28.1196 56.5851 28.4636 57.1809 28.8891 57.4265C29.1878 57.599 29.4472 57.5529 29.5759 57.3411C29.4771 57.3368 29.3672 57.303 29.2513 57.2361C28.8258 56.9905 28.4819 56.3947 28.4833 55.9058Z" fill="#798FFE"></path>
  <path d="M33.5812 46.1736C33.0709 44.5254 33.289 42.2033 32.2402 38.4649C31.5456 35.9888 29.1136 35.5974 29.1136 35.5974C31.1602 37.1498 29.441 38.4979 29.441 38.4979C28.0493 39.0285 27.9947 38.3886 27.7491 33.144C27.5035 27.8995 24.2607 29.2055 24.2607 29.2055C25.8511 30.3129 24.5617 32.3984 24.5617 32.3984C23.2641 34.1544 23.4528 35.2475 23.4528 35.2475C20.2207 32.6798 22.462 29.8568 22.462 29.8568C19.2534 30.4708 20.3386 35.1935 20.3386 35.1935C17.6019 33.7884 18.4984 31.8055 17.9793 28.6875C17.4603 25.5696 15.6777 26.1707 15.6777 26.1707C17.0058 27.9476 14.9563 28.622 14.9563 28.622C14.7104 27.9044 14.3661 27.1621 13.4807 26.2834C12.5954 25.4047 12.7265 23.6077 12.7265 23.6077C12.1035 24.363 11.5296 26.1959 12.1198 27.033C12.7101 27.8701 12.8413 29.4327 12.8413 29.4327C12.8413 32.186 10.6934 31.3279 10.6934 31.3279C8.64398 29.4291 9.75896 26.9296 9.75896 26.9296C7.37312 28.0595 8.17598 31.9022 8.17598 31.9022C6.51836 33.3407 6.85991 34.5735 7.04669 34.9859L31.553 49.1347C33.7816 49.1826 33.5812 46.1736 33.5812 46.1736Z" fill="#B7C5FD"></path>
  <path d="M30.9786 47.6862L30.936 62.7199L6.78494 48.7763L6.82757 33.7426L30.9786 47.6862Z" fill="#D9DDF6"></path>
  <path d="M8.66466 47.876L8.65904 49.8579L6.78494 48.7759L6.79056 46.794L8.66466 47.876Z" fill="#4466FB"></path>
  <path d="M8.67964 42.6524L8.67402 44.6343L6.79993 43.5523L6.80555 41.5704L8.67964 42.6524Z" fill="#4466FB"></path>
  <path d="M11.1552 46.7008L11.1496 48.6782L6.79239 46.1626L6.798 44.1852L11.1552 46.7008Z" fill="#4466FB"></path>
  <path d="M13.6346 50.7457L13.6289 52.7276L9.20496 50.1734L9.21057 48.1915L13.6346 50.7457Z" fill="#4466FB"></path>
  <path d="M8.69463 37.4335L8.68901 39.4154L6.81491 38.3334L6.82053 36.3515L8.69463 37.4335Z" fill="#4466FB"></path>
  <path d="M11.1703 41.477L11.1646 43.459L6.80746 40.9433L6.81308 38.9614L11.1703 41.477Z" fill="#4466FB"></path>
  <path d="M9.21991 44.9496L9.22553 42.9677L13.6495 45.5219L13.6439 47.5038L9.21991 44.9496Z" fill="#4466FB"></path>
  <path d="M16.1255 49.5695L16.1199 51.5469L11.6999 48.995L11.7055 47.0176L16.1255 49.5695Z" fill="#4466FB"></path>
  <path d="M18.6045 53.6157L18.5989 55.5976L14.1749 53.0434L14.1805 51.0615L18.6045 53.6157Z" fill="#4466FB"></path>
  <path d="M9.42978 32.2302L33.5808 46.1739L30.9786 47.6861L6.82751 33.7425L9.42978 32.2302Z" fill="#D9DDF6"></path>
  <path d="M6.82751 33.7425L9.42978 32.2302L13.787 34.7458L11.1847 36.2581L6.82751 33.7425Z" fill="#6BB5FB"></path>
  <path d="M11.1852 36.2582L11.1796 38.2356L6.82245 35.72L6.82805 33.7426L11.1852 36.2582Z" fill="#4466FB"></path>
  <path d="M13.6646 40.3034L13.659 42.2853L9.23499 39.7311L9.2406 37.7492L13.6646 40.3034Z" fill="#4466FB"></path>
  <path d="M11.715 43.7759L11.7206 41.794L16.1406 44.3459L16.135 46.3278L11.715 43.7759Z" fill="#4466FB"></path>
  <path d="M18.6345 43.1731L18.6289 45.155L14.2049 42.6008L14.2105 40.6189L18.6345 43.1731Z" fill="#4466FB"></path>
  <path d="M21.1145 47.2183L21.1089 49.2002L16.6849 46.646L16.6906 44.6641L21.1145 47.2183Z" fill="#4466FB"></path>
  <path d="M26.0639 57.288L21.64 54.7338L21.6456 52.7564L26.0695 55.3106L26.0639 57.288Z" fill="#4466FB"></path>
  <path d="M23.6046 46.0418L23.5989 48.0238L19.175 45.4696L19.1806 43.4877L23.6046 46.0418Z" fill="#4466FB"></path>
  <path d="M21.6548 49.5159L21.6605 47.534L26.0844 50.0882L26.0788 52.0701L21.6548 49.5159Z" fill="#4466FB"></path>
  <path d="M28.5594 54.1309L28.5538 56.1129L24.1337 53.561L24.1393 51.579L28.5594 54.1309Z" fill="#4466FB"></path>
  <path d="M28.5744 48.9121L28.5688 50.894L24.1487 48.3421L24.1544 46.3602L28.5744 48.9121Z" fill="#4466FB"></path>
  <path d="M14.1956 45.8378L18.6196 48.3919L18.614 50.3739L14.19 47.8197L14.1956 45.8378Z" fill="#4466FB"></path>
  <path d="M21.094 54.4193L16.67 51.8651L16.6756 49.8877L21.0996 52.4419L21.094 54.4193Z" fill="#4466FB"></path>
  <path d="M23.5746 56.4843L23.569 58.4662L19.145 55.912L19.1506 53.9301L23.5746 56.4843Z" fill="#4466FB"></path>
  <path d="M16.1543 39.127L16.1487 41.1044L11.7287 38.5525L11.7343 36.5751L16.1543 39.127Z" fill="#4466FB"></path>
  <path d="M11.7348 36.5762L14.3371 35.064L18.7571 37.6159L16.1549 39.1281L11.7348 36.5762Z" fill="#6BB5FB"></path>
  <path d="M23.5895 51.2619L23.5839 53.2438L19.1599 50.6896L19.1655 48.7077L23.5895 51.2619Z" fill="#4466FB"></path>
  <path d="M28.5456 59.3546L28.54 61.3366L24.1199 58.7846L24.1256 56.8027L28.5456 59.3546Z" fill="#4466FB"></path>
  <path d="M30.9421 60.7374L30.9365 62.7194L29.0899 61.6532L29.0955 59.6713L30.9421 60.7374Z" fill="#4466FB"></path>
  <path d="M21.1282 41.9994L21.1226 43.9768L16.6987 41.4226L16.7043 39.4452L21.1282 41.9994Z" fill="#4466FB"></path>
  <path d="M16.7049 39.4452L19.3072 37.9329L23.7311 40.4871L21.1289 41.9994L16.7049 39.4452Z" fill="#6BB5FB"></path>
  <path d="M30.9491 58.1285L30.9435 60.1059L26.6099 57.6039L26.6155 55.6265L30.9491 58.1285Z" fill="#4466FB"></path>
  <path d="M30.9559 55.5138L30.9503 57.4957L29.1037 56.4296L29.1093 54.4477L30.9559 55.5138Z" fill="#4466FB"></path>
  <path d="M21.675 42.3151L24.2773 40.8028L28.7012 43.357L26.099 44.8692L21.675 42.3151Z" fill="#6BB5FB"></path>
  <path d="M26.0995 44.8693L26.0939 46.8467L21.6699 44.2925L21.6755 42.3151L26.0995 44.8693Z" fill="#4466FB"></path>
  <path d="M30.9642 52.9046L30.9585 54.8865L26.6249 52.3845L26.6306 50.4026L30.9642 52.9046Z" fill="#4466FB"></path>
  <path d="M30.9709 50.2952L30.9653 52.2771L29.1187 51.211L29.1243 49.2291L30.9709 50.2952Z" fill="#4466FB"></path>
  <path d="M26.645 45.1836L29.2472 43.6713L33.5808 46.1733L30.9786 47.6856L26.645 45.1836Z" fill="#6BB5FB"></path>
  <path d="M30.9791 47.6861L30.9735 49.6635L26.6399 47.1615L26.6455 45.1841L30.9791 47.6861Z" fill="#4466FB"></path>
  <path d="M33.5812 46.1739L33.5385 61.2076L30.9363 62.7199L30.9789 47.6861L33.5812 46.1739Z" fill="#D9DDF6"></path>
  <path d="M30.9419 60.7374L33.5442 59.2251L33.5385 61.207L30.9363 62.7193L30.9419 60.7374Z" fill="#3955D1"></path>
  <path d="M30.9493 58.1286L33.5516 56.6163L33.546 58.5937L30.9437 60.106L30.9493 58.1286Z" fill="#3955D1"></path>
  <path d="M30.9569 55.515L33.5591 54.0027L33.5535 55.9846L30.9513 57.4969L30.9569 55.515Z" fill="#3955D1"></path>
  <path d="M30.9644 52.905L33.5667 51.3928L33.5611 53.3747L30.9588 54.8869L30.9644 52.905Z" fill="#3955D1"></path>
  <path d="M30.9719 50.2961L33.5741 48.7838L33.5685 50.7657L30.9662 52.278L30.9719 50.2961Z" fill="#3955D1"></path>
  <path d="M30.9794 47.6861L33.5816 46.1739L33.576 48.1513L30.9738 49.6636L30.9794 47.6861Z" fill="#3955D1"></path>
  <path d="M30.9786 47.6864L33.5809 46.1741C33.5809 46.1741 32.0273 38.1852 29.9262 36.4827C29.9262 36.4827 29.982 39.2831 29.119 40.8027C28.2559 42.3222 30.9786 47.6864 30.9786 47.6864Z" fill="#B7C5FD"></path>
  <path d="M6.82785 33.815C6.76979 33.4527 6.76326 32.7637 7.68752 31.9616C7.93533 31.7466 8.04734 31.4143 7.98022 31.0931C7.97912 31.0877 7.67212 30.4368 8.09161 29.6584C8.32801 30.1779 8.46553 30.8755 8.9968 31.3677C9.07823 31.4431 9.17289 31.503 9.27598 31.5442C9.35586 31.5761 9.78161 31.7354 10.3188 31.7354C10.8691 31.7353 12.6646 31.5242 12.6646 28.8088C12.6646 28.7835 12.6636 28.7582 12.6615 28.7331C12.6504 28.6009 12.3263 27.7203 12.0204 26.8604C12.4502 27.41 12.8777 27.8802 13.0187 28.2914C13.1473 28.6666 13.4982 28.9032 13.8746 28.9032C13.9683 28.9032 14.0637 28.8885 14.1576 28.8576C14.2886 28.8145 15.7201 28.2566 16.1232 27.2344C16.2021 27.4695 16.2683 27.7424 16.3193 28.0487C16.4513 28.8415 16.1713 29.7157 16.2044 30.403C16.2964 32.31 16.3832 34.1113 18.8437 35.3746C18.9741 35.4416 19.1159 35.4745 19.2569 35.4745C19.4544 35.4745 19.6506 35.41 19.8127 35.2838C20.0906 35.0676 20.2178 34.71 20.139 34.3669C20.0754 34.0854 20.2142 33.2796 20.2045 32.6912C20.4908 33.4567 20.8245 34.5506 21.8084 35.3321C21.9834 35.4712 22.2008 35.5482 22.4159 35.5482C22.5741 35.5482 22.731 35.5066 22.8691 35.4174C23.1902 35.2102 23.3529 34.8567 23.2672 34.4867C23.2637 34.3643 23.2813 33.5663 24.2079 32.3122C24.2228 32.2922 24.2368 32.2715 24.2499 32.2503C24.6133 31.6624 24.9976 30.6364 24.8453 29.6375C24.8902 29.6766 24.9335 29.7197 24.9752 29.7667C25.2918 30.1233 25.6856 30.8978 25.7635 32.5624C25.8697 34.8295 25.937 36.1552 26.0866 37.0384C26.1658 37.5067 26.4072 38.9316 27.7305 38.9316C27.7306 38.9316 27.7306 38.9316 27.7308 38.9316C28.0039 38.9316 28.2972 38.8662 28.6818 38.7195C28.7668 38.6872 28.8464 38.6421 28.9179 38.5861C29.0206 38.5055 29.8871 37.6205 29.9265 36.4827C29.9799 36.6097 30.0462 36.9121 30.1007 37.0646C30.7976 39.0131 30.5078 40.0354 30.2274 41.0241C30.0216 41.7499 29.8087 42.5005 30.0883 43.4036L30.1316 43.543C30.323 44.1587 30.6121 45.0892 30.7564 45.9461C30.964 47.1783 31.0046 47.6516 30.9789 47.6864C30.9742 47.6928 6.82785 33.815 6.82785 33.815Z" fill="#D9DDF6"></path>
</svg>
