<?xml version="1.0" encoding="UTF-8"?>
<svg xmlns="http://www.w3.org/2000/svg" width="64" height="64" viewBox="0 0 64 64" fill="none">
  <path d="M50.2137 32.8895C50.1941 32.9092 48.4576 35.5139 49.1877 40.8812C50.707 52.1877 46.2477 61.7578 32.8296 57.5746L32.2969 57.4168L31.7641 56.9629C18.3659 45.6563 13.9852 30.9755 15.5638 21.4645C16.3137 16.9261 14.597 12.3679 14.597 12.3284L13.5117 9.54623L20.8127 7.77026L22.0164 8.99365C22.9043 9.90138 23.8317 10.6315 24.7592 11.1839C28.1728 13.1375 30.8761 12.1509 30.8959 12.1509L32.435 11.5786L33.9544 13.9267C33.9741 13.9465 36.6774 18.0508 40.0714 20.0043C40.9988 20.5568 41.9263 20.8923 42.8339 21.0107L44.0179 21.1685L51.2991 31.3702L50.2137 32.8895Z" fill="#B7C5FD"></path>
  <path d="M54.4442 29.5338L47.1696 19.3315L45.974 19.1751C45.0913 19.0633 44.1526 18.717 43.2139 18.1805C39.8281 16.2139 37.135 12.124 37.1126 12.1017L35.5817 9.74383L34.0509 10.3249L34.0173 10.3361C33.6821 10.4366 31.1008 11.1854 27.9161 9.34158C26.9774 8.80528 26.0501 8.06772 25.156 7.16253L23.9604 5.93335L16.6635 7.72122L13.5361 9.54007L20.8137 7.76978L22.0174 8.99317C22.9054 9.9009 23.8327 10.631 24.7602 11.1834C28.1739 13.137 30.8772 12.1504 30.8969 12.1504L32.4361 11.5781L33.9554 13.9263C33.9751 13.946 36.6785 18.0504 40.0725 20.0038C40.9998 20.5563 41.9273 20.8918 42.8349 21.0102L44.0189 21.168L51.3001 31.3697L50.2148 32.889C50.1951 32.9087 48.4587 35.5134 49.1888 40.8807C50.1365 47.9338 48.756 54.3093 44.3274 57.0939L47.2145 55.4251C51.8518 52.7209 53.3045 46.2397 52.3323 39.0433C51.6171 33.6797 53.3491 31.076 53.3603 31.0536L54.4442 29.5338Z" fill="#D9DDF6"></path>
  <path d="M32.4183 15.1231C32.5823 15.3781 35.697 20.2227 40.0614 22.7425C41.2052 23.4029 42.4234 23.886 43.6768 24.0538L48.154 30.3339C48.0438 30.4867 45.9514 33.3897 46.8403 39.9794C48.065 49.0951 44.8869 58.5182 32.3064 54.6051C19.7449 44.0025 16.6304 30.9463 17.9027 23.2723C18.826 17.7289 16.7568 12.4232 16.6479 12.1439L21.146 11.0457C22.3981 12.3246 23.6154 13.2474 24.7598 13.9082C29.1255 16.4286 32.2537 15.1883 32.4183 15.1231Z" fill="#3955D1"></path>
  <path d="M36.6065 34.1546C37.5684 34.71 38.3417 36.0404 38.3386 37.1458L38.3151 45.4184C38.3121 46.5059 37.5338 46.9495 36.5718 46.3941L27.2624 41.0193C26.3004 40.4639 25.5272 39.1245 25.5303 38.037L25.5537 29.7644C25.5569 28.659 26.3351 28.2244 27.2971 28.7798L36.6065 34.1546ZM32.5146 38.5246C33.0118 38.5527 33.3547 38.1882 33.3566 37.5285C33.3591 36.6192 32.7251 35.5299 31.9415 35.0775C31.158 34.6251 30.5198 34.9799 30.5172 35.8892C30.5153 36.5489 30.8551 37.3075 31.3509 37.8527L31.344 40.2685L32.5077 40.9404L32.5146 38.5246Z" fill="white"></path>
  <path d="M32.0001 23.7889C32.0401 23.812 32.0799 23.8355 32.12 23.8597C34.5945 25.3688 36.6045 29.0115 36.5962 31.9622L36.59 34.1462L35.0772 33.2728L35.0834 31.0888C35.0891 29.0741 33.7362 26.5966 32.0607 25.5667C32.0318 25.5491 32.0029 25.5319 31.974 25.5153C31.1596 25.045 30.3788 24.9578 29.7926 25.2661C29.1778 25.5987 28.8416 26.3243 28.8388 27.2959L28.8321 29.6672L27.3115 28.7893L27.3182 26.4181C27.3223 24.9739 27.8227 23.9056 28.741 23.409C29.6225 22.9411 30.7865 23.0883 32.0001 23.7889Z" fill="white"></path>
</svg>
