<?xml version="1.0" encoding="UTF-8"?>
<svg xmlns="http://www.w3.org/2000/svg" width="64" height="64" viewBox="0 0 64 64" fill="none">
  <path d="M28.7479 47.4807L28.7414 48.9817C28.7408 49.2409 28.5705 49.4994 28.2305 49.6969L20.5933 54.1353C19.9087 54.533 18.7953 54.5333 18.1063 54.1353L10.4191 49.6972C10.0724 49.497 9.89929 49.2344 9.8999 48.9719L9.90638 47.4724C9.90638 47.734 10.0795 47.9963 10.4253 48.1959L18.1125 52.6343C18.8017 53.032 19.9152 53.032 20.5998 52.634L28.237 48.1959C28.577 47.9981 28.7473 47.7396 28.7479 47.4807Z" fill="#2E4277"></path>
  <path d="M28.2285 46.7554C28.9175 47.1532 28.9211 47.798 28.2366 48.1958L20.5993 52.6341C19.9148 53.0319 18.8013 53.0321 18.1123 52.6343L10.4251 48.1961C9.73604 47.7982 9.73259 47.1533 10.4172 46.7555L18.0544 42.3172C18.739 41.9193 19.8522 41.9193 20.5413 42.3172L28.2285 46.7554Z" fill="#384E85"></path>
  <path d="M25.2413 47.1568C25.5461 47.3328 25.5475 47.618 25.2447 47.794L19.8958 50.9024C19.593 51.0784 19.1007 51.0785 18.7959 50.9025L13.412 47.7941C13.1072 47.6182 13.1056 47.3329 13.4084 47.1569L18.7573 44.0485C19.0601 43.8725 19.5526 43.8725 19.8574 44.0485L25.2413 47.1568Z" fill="#2E4277"></path>
  <path d="M13.2469 4.28516L13.2447 8.42511L9.90259 10.3673L9.90482 6.22738L13.2469 4.28516Z" fill="#3955D1"></path>
  <path d="M9.90442 6.22765L9.9022 10.3676L6.53516 8.42363L6.53738 4.28369L9.90442 6.22765Z" fill="#4466FB"></path>
  <path d="M13.2467 4.28527L9.90464 6.22749L6.5376 4.28353L9.87969 2.34131L13.2467 4.28527Z" fill="#6BB5FB"></path>
  <path d="M18.7566 33.187L18.838 33.2874L19.3225 33.0205L17.3567 30.6139L18.6644 30.4482L18.7144 30.4203L18.7968 30.5208L19.2803 30.2538L17.3071 27.8365L18.6733 27.6635L18.7233 27.6356L18.8047 27.736L19.2891 27.4691L17.315 25.0517L18.6811 24.8787L18.7311 24.8508L18.8135 24.9513L19.297 24.6843L17.3238 22.267L18.6899 22.094L18.7399 22.0661L18.8213 22.1665L19.3058 21.8996L17.3317 19.4822L18.6978 19.3093L18.7478 19.2814L18.8302 19.3818L19.3136 19.1149L17.3405 16.6975L18.7066 16.5245L18.7566 16.4966L18.838 16.5971L19.3225 16.3301L17.215 13.75L16.7315 14.016L18.6203 16.3301L17.1218 16.5199L16.6383 16.7868L16.9825 16.7431L16.7707 16.8594L18.6124 19.1149L17.114 19.3046L16.6295 19.5715L16.9737 19.5278L16.7629 19.6441L18.6036 21.8996L17.1051 22.0893L16.6216 22.3563L16.9659 22.3126L16.754 22.4288L18.5958 24.6843L17.0973 24.8741L16.6128 25.141L16.957 25.0973L16.7462 25.2136L18.5869 27.4691L17.0885 27.6588L16.605 27.9258L16.9492 27.8821L16.7374 27.9983L18.5791 30.2538L17.1287 30.438L16.6452 30.704L16.7629 30.6891L16.7315 30.7064L18.6203 33.0205L17.1218 33.2102L16.6383 33.4772L16.9825 33.4335L16.7707 33.5497L18.6124 35.8052L17.114 35.995L16.6295 36.2619L16.9737 36.2182L16.7629 36.3345L18.6036 38.59L17.1051 38.7797L16.6216 39.0467L16.9659 39.003L16.754 39.1192L18.5958 41.3747L17.0973 41.5645L16.6128 41.8314L16.957 41.7877L16.7462 41.904L18.5869 44.1595L17.0885 44.3492L16.605 44.6162L16.9492 44.5725L16.7374 44.6887L18.5791 46.9442L17.1287 47.1284L16.6452 47.3944L18.6644 47.1386L18.7144 47.1107L18.7968 47.2112L19.2803 46.9442L17.3071 44.5269L18.6733 44.3539L18.7233 44.326L18.8047 44.4264L19.2891 44.1595L17.315 41.7421L18.6811 41.5691L18.7311 41.5412L18.8135 41.6417L19.297 41.3747L17.3238 38.9574L18.6899 38.7844L18.7399 38.7565L18.8213 38.8569L19.3058 38.59L17.3317 36.1726L18.6978 35.9996L18.7478 35.9717L18.8302 36.0722L19.3136 35.8052L17.3405 33.3879L18.7066 33.2149L18.7566 33.187Z" fill="#384E85"></path>
  <path d="M21.648 44.6163L21.3029 44.5726L21.5154 44.689L19.673 46.9446L21.1236 47.1287L21.6075 47.3943L19.5883 47.1386L19.5379 47.1108L19.4556 47.2113L18.9717 46.9446L20.9455 44.5268L19.5797 44.3537L19.5293 44.3258L19.4483 44.4263L18.9631 44.1596L20.9381 41.7428L19.5711 41.5697L19.5219 41.5418L19.4397 41.6423L18.9557 41.3747L20.9283 38.9579L19.5625 38.7847L19.5121 38.7569L19.4311 38.8574L18.9471 38.5907L20.9209 36.1729L19.5551 35.9998L19.5048 35.9719L19.4225 36.0724L18.9385 35.8058L20.9123 33.388L19.5465 33.2148L19.4962 33.187L19.4151 33.2875L18.9299 33.0208L20.8964 30.614L19.5883 30.4488L19.5379 30.4209L19.4556 30.5214L18.9717 30.2538L20.9455 27.837L19.5797 27.6638L19.5293 27.636L19.4483 27.7365L18.9631 27.4698L20.9381 25.052L19.5711 24.8789L19.5219 24.851L19.4397 24.9515L18.9557 24.6849L20.9283 22.2671L19.5625 22.0939L19.5121 22.0661L19.4311 22.1666L18.9471 21.8999L20.9209 19.4821L19.5551 19.31L19.5048 19.2821L19.4225 19.3816L18.9385 19.115L20.9123 16.6981L19.5465 16.525L19.4962 16.4971L19.4151 16.5976L18.9299 16.33L21.0376 13.75L21.5215 14.0167L19.6325 16.33L21.131 16.52L21.6137 16.7867L21.2697 16.7429L21.4822 16.8593L19.6399 19.115L21.1383 19.305L21.6235 19.5716L21.2783 19.5279L21.4896 19.6443L19.6485 21.8999L21.1469 22.0899L21.6308 22.3566L21.2869 22.3128L21.4982 22.4292L19.6571 24.6849L21.1555 24.8739L21.6394 25.1416L21.2955 25.0978L21.5068 25.2142L19.6657 27.4698L21.1641 27.6589L21.648 27.9265L21.3029 27.8827L21.5154 27.9982L19.673 30.2538L21.1236 30.4378L21.6075 30.7045L21.4908 30.6896L21.5215 30.7065L19.6325 33.0208L21.131 33.2109L21.6137 33.4775L21.2697 33.4337L21.4822 33.5502L19.6399 35.8058L21.1383 35.9948L21.6235 36.2625L21.2783 36.2187L21.4896 36.3351L19.6485 38.5907L21.1469 38.7798L21.6308 39.0474L21.2869 39.0036L21.4982 39.1191L19.6571 41.3747L21.1555 41.5647L21.6394 41.8314L21.2955 41.7876L21.5068 41.904L19.6657 44.1596L21.1641 44.3497L21.648 44.6163Z" fill="#384E85"></path>
  <path d="M18.8389 33.2869L16.7718 33.5496L18.8303 36.0719L16.7632 36.3346L18.8217 38.8558L16.7546 39.1195L18.8131 41.6408L16.746 41.9045L18.8058 44.4258L16.7386 44.6884L18.7972 47.2107L16.6809 47.4794L16.6453 47.3948L18.6645 47.1381L16.6047 44.6158L18.6731 44.3531L16.6133 41.8308L18.6817 41.5692L16.6219 39.0469L18.6903 38.7842L16.6305 36.2619L18.6977 35.9993L16.6391 33.477L18.7063 33.2143L16.7227 30.7836L16.6809 30.7885L16.6453 30.704L18.6645 30.4482L16.6047 27.926L18.6731 27.6633L16.6133 25.141L18.6817 24.8783L16.6219 22.3561L18.6903 22.0934L16.6305 19.5711L18.6977 19.3084L16.6391 16.7871L18.7063 16.5245L16.6956 14.0609L16.7313 14.0161L18.8389 16.5961L16.7718 16.8598L18.8303 19.3811L16.7632 19.6437L18.8217 22.166L16.7546 22.4287L18.8131 24.951L16.746 25.2136L18.8058 27.7349L16.7386 27.9986L18.7972 30.5199L16.7865 30.7746L18.8389 33.2869Z" fill="#1B2A4F"></path>
  <path d="M21.6478 44.6158L19.588 47.1381L21.6072 47.3948L21.5716 47.4794L19.4553 47.2107L21.5151 44.6884L19.4467 44.4258L21.5065 41.9045L19.4394 41.6408L21.4979 39.1195L19.4308 38.8558L21.4893 36.3346L19.4222 36.0719L21.4807 33.5496L19.4136 33.2869L21.466 30.7746L19.4553 30.5199L21.5151 27.9986L19.4467 27.7349L21.5065 25.2136L19.4394 24.951L21.4979 22.4287L19.4308 22.166L21.4893 19.6437L19.4222 19.3811L21.4807 16.8598L19.4136 16.5961L21.5212 14.0161L21.5581 14.0609L19.5462 16.5245L21.6146 16.7871L19.5548 19.3084L21.622 19.5711L19.5634 22.0934L21.6306 22.3561L19.5708 24.8783L21.6392 25.141L19.5794 27.6633L21.6478 27.926L19.588 30.4482L21.6072 30.704L21.5716 30.7885L21.5311 30.7836L19.5462 33.2143L21.6146 33.477L19.5548 35.9993L21.622 36.2619L19.5634 38.7842L21.6306 39.0469L19.5708 41.5692L21.6392 41.8308L19.5794 44.3531L21.6478 44.6158Z" fill="#1B2A4F"></path>
  <path d="M18.7349 30.2569L19.1266 30.0725L19.5195 30.2563L19.1278 30.4407L18.7349 30.2569Z" fill="#384E85"></path>
  <path d="M21.0598 29.162L21.4516 28.9775L21.8444 29.1613L21.4527 29.3457L21.0598 29.162Z" fill="#384E85"></path>
  <path d="M21.4518 31.0682V48.2606L21.0562 48.0775V30.885L21.4518 31.0682Z" fill="#2E4277"></path>
  <path d="M17.1933 29.162L16.8016 28.9775L16.4087 29.1613L16.8004 29.3457L17.1933 29.162Z" fill="#384E85"></path>
  <path d="M19.5206 13.5662V49.4525L19.125 49.6433V13.7493L19.5206 13.5662Z" fill="#1B2A4F"></path>
  <path d="M18.7349 13.5667L19.1266 13.3823L19.5195 13.5661L19.1278 13.7505L18.7349 13.5667Z" fill="#384E85"></path>
  <path d="M19.1255 13.7493V49.6433L18.73 49.4525L18.7394 13.5662L19.1255 13.7493Z" fill="#2E4277"></path>
  <path d="M21.8467 12.4736V48.0769L21.4512 48.26V12.6567L21.8467 12.4736Z" fill="#1B2A4F"></path>
  <path d="M21.0598 12.4718L21.4516 12.2874L21.8444 12.4711L21.4527 12.6555L21.0598 12.4718Z" fill="#384E85"></path>
  <path d="M21.4518 12.6567V31.0676L21.0562 30.8844V12.4736L21.4518 12.6567Z" fill="#2E4277"></path>
  <path d="M16.7988 12.6567V48.26L16.4126 48.0769V12.4736L16.7988 12.6567Z" fill="#1B2A4F"></path>
  <path d="M17.1933 12.4718L16.8016 12.2874L16.4087 12.4711L16.8004 12.6555L17.1933 12.4718Z" fill="#384E85"></path>
  <path d="M17.1944 12.4736V48.0769L16.7988 48.26V12.6567L17.1944 12.4736Z" fill="#2E4277"></path>
  <path d="M19.1414 11.7714L19.1387 15.4042L23.1939 13.0475L23.1966 9.41479L19.1414 11.7714Z" fill="#8CA1FD"></path>
  <path d="M19.1419 11.7711L19.1392 15.4039L15.0537 13.0451L15.0564 9.41235L19.1419 11.7711Z" fill="#B7C5FD"></path>
  <path d="M23.1969 9.41491L19.1417 11.7716L15.0562 9.4128L19.1114 7.05615L23.1969 9.41491Z" fill="#D9DDF6"></path>
  <path d="M29.5883 19.4992C29.7439 19.4088 29.9593 19.4214 30.1969 19.5586L57.1013 35.0919C57.5753 35.3655 57.9574 36.0274 57.9559 36.5698L57.91 58.813C57.9092 59.0821 57.8141 59.2717 57.6605 59.361L56.5395 60.0124C56.6931 59.9232 56.7882 59.7336 56.7889 59.4644L56.8349 37.2212C56.8364 36.6789 56.4542 36.017 55.9803 35.7433L29.0758 20.21C28.8383 20.0729 28.6229 20.0603 28.4673 20.1507L29.5883 19.4992Z" fill="#B7C5FD"></path>
  <path d="M29.0765 20.2097C28.6045 19.9372 28.2198 20.1564 28.2183 20.6987L28.1724 42.9419C28.1708 43.4843 28.553 44.1462 29.025 44.4188L55.9295 59.9521C56.4034 60.2257 56.7881 60.0065 56.7896 59.4641L56.8355 37.2209C56.837 36.6785 56.4549 36.0166 55.9809 35.743L29.0765 20.2097Z" fill="#9AADFD"></path>
  <path d="M29.2804 23.4138L29.2424 43.3141L55.7192 58.6004L55.7571 38.7002L29.2804 23.4138Z" fill="#D9DDF6"></path>
  <path d="M32.5353 23.3993C32.2929 23.2593 32.0955 23.3718 32.0947 23.6504C32.0939 23.9289 32.29 24.2671 32.5324 24.4071C32.7736 24.5463 32.971 24.4353 32.9717 24.1567C32.9725 23.8782 32.7764 23.5385 32.5353 23.3993Z" fill="white"></path>
  <path d="M29.7204 21.7743C29.4779 21.6343 29.2806 21.7468 29.2798 22.0254C29.279 22.3039 29.4751 22.6421 29.7175 22.7821C29.9587 22.9213 30.156 22.8103 30.1568 22.5317C30.1576 22.2532 29.9615 21.9135 29.7204 21.7743Z" fill="white"></path>
  <path d="M31.1278 22.5868C30.8854 22.4468 30.688 22.5593 30.6873 22.8379C30.6865 23.1164 30.8826 23.4546 31.125 23.5946C31.3674 23.7345 31.5635 23.6228 31.5643 23.3442C31.5651 23.0657 31.3703 22.7267 31.1278 22.5868Z" fill="white"></path>
  <path d="M41.73 32.2938L42.0502 32.4799C42.2505 32.4172 42.4295 32.4317 42.5696 32.5131L42.2494 32.3271C42.1092 32.2456 41.9302 32.2311 41.73 32.2938Z" fill="#384E85"></path>
  <path d="M41.5667 33.2827L41.559 30.2971L42.0435 30.0174L41.7232 29.8313L41.2388 30.111L41.2464 33.0966L41.5667 33.2827Z" fill="#384E85"></path>
  <path d="M42.3981 33.4773C42.3976 33.2931 42.3323 33.1635 42.2271 33.1024L41.9069 32.9163C42.012 32.9774 42.0774 33.107 42.0779 33.2912C42.0786 33.5346 41.96 33.808 41.7913 34.0243C41.8849 34.1041 41.97 34.1977 42.0385 34.3083C42.2499 34.0838 42.3989 33.757 42.3981 33.4773Z" fill="#D9DDF6"></path>
  <path d="M42.8812 33.1981C42.8795 32.6164 42.5242 32.3307 42.0495 32.4796L42.0433 30.0173L41.5588 30.297L41.5665 33.2827L41.8087 33.1428C42.1322 32.956 42.3971 33.1053 42.3981 33.477C42.3989 33.7567 42.25 34.0835 42.0385 34.308C42.1222 34.4434 42.1752 34.5901 42.201 34.7364C42.5995 34.3271 42.8827 33.7192 42.8812 33.1981Z" fill="#1B2A4F"></path>
  <path d="M42.4842 35.0142L42.0614 35.2618C41.9588 35.3222 41.8138 35.3101 41.6568 35.2195C41.3427 35.0383 41.0891 34.5975 41.0951 34.2351C41.0951 34.0599 41.1555 33.9391 41.2581 33.8787L41.6809 33.6311C41.5783 33.6915 41.5178 33.8123 41.5178 33.9875C41.5178 34.3498 41.7715 34.7907 42.0856 34.9719C42.2426 35.0625 42.3815 35.0746 42.4842 35.0142Z" fill="#D9DDF6"></path>
  <path d="M50.0623 38.4963L50.0502 43.8473C50.0442 44.1191 49.9536 44.3123 49.7966 44.3969L49.3738 44.6445C49.5248 44.5599 49.6215 44.3667 49.6215 44.0949L49.6396 38.7439C49.6396 38.2003 49.2591 37.536 48.782 37.2581L34.5438 29.038C34.3083 28.9051 34.0909 28.893 33.9338 28.9836L34.3627 28.736C34.5197 28.6454 34.731 28.6575 34.9666 28.7904L49.2047 37.0105C49.6818 37.2884 50.0623 37.9527 50.0623 38.4963Z" fill="#6BB5FB"></path>
  <path d="M48.7798 37.2599C49.258 37.5359 49.6384 38.1994 49.6369 38.7444L49.6217 44.0925C49.6202 44.6419 49.2372 44.8602 48.7591 44.5842L34.522 36.3644C34.0516 36.0928 33.6672 35.4314 33.6687 34.882L33.6839 29.5339C33.6854 28.9889 34.0723 28.7684 34.5428 29.0401L48.7798 37.2599ZM41.6573 35.2203C41.9735 35.4029 42.225 35.2508 42.226 34.8919C42.227 34.5329 41.9772 34.1002 41.661 33.9176C41.3487 33.7373 41.0934 33.8784 41.0924 34.2374C41.0914 34.5962 41.345 35.04 41.6573 35.2203Z" fill="#4466FB"></path>
  <path d="M41.7919 34.0237C41.703 34.1377 41.6046 34.2403 41.493 34.3048C41.4079 34.3539 41.3258 34.378 41.2506 34.3817L41.2623 34.3699L40.942 34.1838L40.49 34.6418C40.5443 34.7746 40.6276 34.8722 40.7316 34.9326L41.0518 35.1187C40.9479 35.0583 40.8646 34.9607 40.8102 34.8279L41.2103 34.4225L41.395 34.5299C41.5041 34.5933 41.6544 34.5825 41.8132 34.4908C41.8933 34.4446 41.9695 34.3815 42.0391 34.3076C41.9707 34.197 41.8856 34.1035 41.7919 34.0237Z" fill="#384E85"></path>
  <path d="M41.8131 34.4906C41.5708 34.6305 41.3484 34.5819 41.2621 34.3696L40.8101 34.8276C40.9681 35.2139 41.3708 35.3019 41.8147 35.0457C41.9515 34.9666 42.0813 34.8593 42.2015 34.7358C42.1757 34.5895 42.1228 34.4428 42.039 34.3074C41.9694 34.3812 41.8932 34.4444 41.8131 34.4906Z" fill="#1B2A4F"></path>
  <path d="M34.8449 32.5037L34.825 35.6609L48.7396 43.6946L48.7596 40.5373L34.8449 32.5037Z" fill="white"></path>
  <path d="M48.3738 38.3007C48.1598 38.1771 47.9856 38.2764 47.9849 38.5223C47.9842 38.7682 48.1573 39.0667 48.3712 39.1902C48.5841 39.3131 48.7583 39.2151 48.759 38.9692C48.7597 38.7234 48.5866 38.4236 48.3738 38.3007Z" fill="white"></path>
  <path d="M45.8889 36.8668C45.6749 36.7433 45.5007 36.8426 45.5 37.0885C45.4993 37.3343 45.6724 37.6328 45.8864 37.7564C46.0992 37.8793 46.2734 37.7813 46.2741 37.5354C46.2748 37.2895 46.1017 36.9897 45.8889 36.8668Z" fill="white"></path>
  <path d="M47.1313 37.5844C46.9173 37.4608 46.7431 37.5601 46.7424 37.806C46.7417 38.0519 46.9148 38.3504 47.1288 38.4739C47.3428 38.5974 47.5159 38.4988 47.5166 38.2529C47.5173 38.0071 47.3453 37.7079 47.1313 37.5844Z" fill="white"></path>
  <path d="M43.1401 29.4902L44.0496 28.9617L42.8746 31.0491L41.9651 31.5776L43.1401 29.4902Z" fill="#1B2A4F"></path>
  <path d="M42.345 27.59L43.2545 27.0615L44.0496 28.9619L43.1401 29.4905L42.345 27.59Z" fill="#1B2A4F"></path>
  <path d="M40.3438 26.4338L41.2532 25.9053L43.2553 27.0612L42.3458 27.5897L40.3438 26.4338Z" fill="#384E85"></path>
  <path d="M42.3453 27.59L43.1404 29.4904L41.9654 31.5777L40.6966 30.8452L39.54 27.4117L40.3433 26.4341L42.3453 27.59Z" fill="#2E4277"></path>
  <path d="M42.1427 23.2933C42.1669 23.3181 42.1669 23.3417 42.1427 23.3902V26.7566C42.1427 26.8051 42.1185 26.8523 42.0702 26.9019C41.9251 26.9739 41.7316 26.9739 41.6107 26.9019C41.5381 26.8523 41.5139 26.8051 41.5139 26.7566V23.3181C41.5139 23.2697 41.5381 23.2213 41.6107 23.1729C41.7316 23.1009 41.9251 23.1009 42.0702 23.1729C42.1427 23.2213 42.1669 23.2449 42.1427 23.2933Z" fill="#2E4277"></path>
  <path d="M42.0947 22.7654L43.2546 22.0913L43.2512 23.2791L42.0913 23.9532L42.0947 22.7654Z" fill="#1B2A4F"></path>
  <path d="M6.04858 1.9541L7.20849 1.28003L43.2552 22.0916L42.0952 22.7656L6.04858 1.9541Z" fill="#384E85"></path>
  <path d="M42.095 22.7654L42.0916 23.9532L6.04492 3.14163L6.0483 1.95386L42.095 22.7654Z" fill="#2E4277"></path>
  <path d="M34.8221 55.8728V57.339C34.8221 57.474 34.7321 57.5999 34.5612 57.7079L30.1894 60.2445C29.8386 60.4425 29.2719 60.4425 28.9121 60.2445L24.5223 57.7079C24.3424 57.5999 24.2524 57.465 24.2524 57.33L24.2614 55.8638C24.2614 55.9987 24.3514 56.1337 24.5223 56.2416L28.9211 58.7693C29.2719 58.9762 29.8476 58.9762 30.1894 58.7783L34.5612 56.2326C34.7411 56.1337 34.8221 56.0077 34.8221 55.8728Z" fill="#4466FB"></path>
  <path d="M34.5549 55.4972C34.9109 55.7028 34.9128 56.0344 34.5648 56.2367L30.194 58.7767C29.8459 58.9789 29.2735 58.9789 28.9174 58.7733L24.5238 56.2367C24.1734 56.0344 24.1715 55.7028 24.5196 55.5005L28.8904 52.9605C29.2384 52.7583 29.8109 52.7583 30.1613 52.9605L34.5549 55.4972Z" fill="#6BB5FB"></path>
  <path d="M30.1132 54.3965L31.1549 56.7585L27.0737 56.1628L30.1132 54.3965Z" fill="white"></path>
  <path d="M46.9371 58.2002V59.6664C46.9371 59.8014 46.8471 59.9273 46.6762 60.0353L42.3044 62.5719C41.9536 62.7699 41.3868 62.7699 41.0271 62.5719L36.6373 60.0353C36.4574 59.9273 36.3674 59.7924 36.3674 59.6574L36.3764 58.1912C36.3764 58.3261 36.4664 58.4611 36.6373 58.569L41.0361 61.0967C41.3868 61.3036 41.9626 61.3036 42.3044 61.1057L46.6762 58.56C46.8561 58.4611 46.9371 58.3351 46.9371 58.2002Z" fill="#8CA1FD"></path>
  <path d="M46.6699 57.8246C47.0259 58.0302 47.0278 58.3618 46.6797 58.564L42.309 61.104C41.9609 61.3063 41.3884 61.3063 41.0324 61.1007L36.6387 58.5641C36.2884 58.3618 36.2865 58.0302 36.6346 57.8279L41.0054 55.2879C41.3534 55.0857 41.9259 55.0857 42.2762 55.2879L46.6699 57.8246Z" fill="#B7C5FD"></path>
  <path d="M35.6375 39.4772L32.0493 37.4055C31.592 37.1415 31.0203 37.4709 31.0193 37.9988L31.0125 41.5804C31.0115 42.072 31.2734 42.5266 31.6991 42.7723L35.2873 44.844C35.7447 45.1081 36.3163 44.7787 36.3173 44.2507L36.3242 40.6691C36.3251 40.1776 36.0632 39.7229 35.6375 39.4772Z" fill="#6BB5FB"></path>
  <path d="M43.6988 44.131L40.1106 42.0593C39.6533 41.7953 39.0816 42.1247 39.0806 42.6527L39.0737 46.2343C39.0728 46.7259 39.3347 47.1804 39.7604 47.4262L43.3486 49.4978C43.8059 49.7619 44.3776 49.4326 44.3786 48.9045L44.3854 45.3229C44.3864 44.8314 44.1245 44.3767 43.6988 44.131Z" fill="#4466FB"></path>
  <path d="M51.7601 48.786L48.1719 46.7143C47.7145 46.4504 47.1429 46.7797 47.1419 47.3077L47.135 50.8893C47.1341 51.3809 47.3959 51.8354 47.8217 52.0812L51.4099 54.1529C51.8672 54.4169 52.4388 54.0876 52.4399 53.5595L52.4467 49.9779C52.4477 49.4864 52.1858 49.0318 51.7601 48.786Z" fill="#3955D1"></path>
</svg>
