<?xml version="1.0" encoding="UTF-8"?>
<svg xmlns="http://www.w3.org/2000/svg" width="40" height="40" viewBox="0 0 40 40" fill="none">
  <path d="M30.2343 20.4307L3.2995 4.88064C3.25415 4.84869 3.20174 4.82818 3.14675 4.82087C3.09176 4.81356 3.03582 4.81967 2.9837 4.83867L2.95672 4.85466L2.6629 5.02455L2.8318 5.2634V23.3788C2.84065 23.5426 2.88797 23.7019 2.96992 23.844C3.05188 23.986 3.16616 24.1067 3.30349 24.1963L30.2013 39.7284L30.2393 39.9693L30.5661 39.7804C30.6146 39.7466 30.6532 39.7004 30.6778 39.6466C30.7024 39.5928 30.7122 39.5334 30.706 39.4746V21.2482C30.6972 21.0845 30.6498 20.9251 30.5679 20.7831C30.4859 20.641 30.3716 20.5203 30.2343 20.4307Z" fill="#B7C5FD"></path>
  <path d="M30.3782 21.4383V39.6637C30.3782 39.9635 30.1684 40.0864 29.9065 39.9355L2.9717 24.3844C2.83436 24.2948 2.72008 24.1741 2.63813 24.0321C2.55617 23.89 2.50885 23.7307 2.5 23.5669V5.34256C2.5 5.04275 2.71087 4.91883 2.9717 5.06973L29.9065 20.6208C30.044 20.7102 30.1584 20.8309 30.2404 20.973C30.3224 21.1151 30.3696 21.2745 30.3782 21.4383Z" fill="#FAFBFC"></path>
  <path d="M20.1008 17.7977L3.56235 8.2488V7.29541L20.1008 16.8443V17.7977Z" fill="#D1DAFF"></path>
  <path d="M19.2433 18.4882L3.56235 9.43397V8.95728L19.2433 18.0115V18.4882Z" fill="#D1DAFF"></path>
  <path d="M17.4185 18.2881L3.56235 10.2872V9.81055L17.4185 17.8114V18.2881Z" fill="#D1DAFF"></path>
  <path d="M16.5381 18.633L3.56235 11.1417V10.665L16.5381 18.1563V18.633Z" fill="#D1DAFF"></path>
  <path d="M29.2699 30.1836L23.1928 26.6748V25.7214L29.2699 29.2292V30.1836Z" fill="#9AADFD"></path>
  <path d="M28.9551 31.1871L23.1928 27.8602V27.3835L28.9551 30.7104V31.1871Z" fill="#D1DAFF"></path>
  <path d="M28.2846 31.6536L23.1928 28.7135V28.2368L28.2846 31.1769V31.6536Z" fill="#D1DAFF"></path>
  <path d="M27.9608 32.3203L23.1928 29.568V29.0913L27.9608 31.8436V32.3203Z" fill="#D1DAFF"></path>
  <path d="M20.1008 22.9662L3.56235 13.4173V12.4639L20.1008 22.0128V22.9662Z" fill="#D1DAFF"></path>
  <path d="M19.2433 23.6569L3.56235 14.6037V14.126L19.2433 23.1802V23.6569Z" fill="#D1DAFF"></path>
  <path d="M17.4185 23.4571L3.56235 15.4572V14.9805L17.4185 22.9804V23.4571Z" fill="#D1DAFF"></path>
  <path d="M16.5381 23.8027L3.56235 16.3104V15.8337L16.5381 23.325V23.8027Z" fill="#D1DAFF"></path>
  <path d="M20.1008 28.1359L3.56235 18.587V17.6326L20.1008 27.1825V28.1359Z" fill="#D1DAFF"></path>
  <path d="M19.2433 28.8266L3.56235 19.7724V19.2957L19.2433 28.3489V28.8266Z" fill="#D1DAFF"></path>
  <path d="M17.4185 28.6268L3.56235 20.6259V20.1492L17.4185 28.1491V28.6268Z" fill="#D1DAFF"></path>
  <path d="M16.5381 28.9716L3.56235 21.4804V21.0027L16.5381 28.4949V28.9716Z" fill="#D1DAFF"></path>
  <path d="M20.1008 33.3048L3.56235 23.7559V22.8025L20.1008 32.3514V33.3048Z" fill="#D1DAFF"></path>
  <path d="M19.2443 33.5186V33.7804L3.56235 24.7262V24.4644L19.2443 33.5186Z" fill="#E9EAF2"></path>
  <path d="M29.0811 28.1508L23.3847 24.8609C23.3274 24.8196 23.2804 24.7655 23.2477 24.7028C23.2149 24.6402 23.1971 24.5708 23.1959 24.5001V18.8807C23.1959 18.7418 23.2808 18.6808 23.3847 18.7378L29.0811 22.0277C29.1385 22.069 29.1854 22.1231 29.2182 22.1858C29.251 22.2484 29.2687 22.3178 29.27 22.3885V28.0079C29.27 28.1468 29.185 28.2107 29.0811 28.1508Z" fill="#D1DAFF"></path>
  <path d="M30.2343 15.607L3.29949 0.055911C3.25625 0.0257398 3.20604 0.00706591 3.15359 0.00164626C3.10115 -0.00377339 3.04818 0.00423943 2.99968 0.0249308H2.99369L2.69388 0.192824L2.82579 0.406687V3.3618C2.82579 3.70858 3.03766 4.11232 3.29849 4.26123L30.1763 19.7813L30.1903 20.0332L30.5311 19.8453L30.5391 19.8403L30.5491 19.8353C30.649 19.7763 30.706 19.6444 30.706 19.4585V16.5094C30.706 16.1616 30.4941 15.7579 30.2343 15.607Z" fill="#B7C5FD"></path>
  <path d="M29.9065 19.9962L2.9717 4.44512C2.71087 4.29422 2.5 3.89048 2.5 3.5457V0.599576C2.5 0.252797 2.71087 0.0928995 2.9717 0.242804L29.9065 15.7899C30.1673 15.9408 30.3792 16.3445 30.3792 16.6893V19.6384C30.3792 19.9872 30.1673 20.1461 29.9065 19.9962Z" fill="#FAFBFC"></path>
  <path d="M29.081 18.1974L3.75119 3.57374C3.69421 3.53228 3.64773 3.47805 3.61545 3.41541C3.58317 3.35277 3.566 3.28344 3.56531 3.21297V2.15365C3.56531 2.01474 3.64925 1.95378 3.75419 2.01074L29.081 16.6354C29.1385 16.6766 29.1855 16.7307 29.2183 16.7934C29.2511 16.856 29.2688 16.9255 29.2699 16.9962V18.0545C29.2699 18.1944 29.185 18.2584 29.081 18.1974Z" fill="#9AADFD"></path>
  <path d="M29.1281 18.2254L27.4901 17.279V15.717L29.1281 16.6624C29.1856 16.7036 29.2326 16.7577 29.2654 16.8204C29.2982 16.883 29.3159 16.9525 29.317 17.0232V18.0825C29.317 18.2214 29.232 18.2884 29.1281 18.2254Z" fill="#4466FB"></path>
  <path d="M4.41176 3.15093C4.35554 3.10363 4.30611 3.04882 4.26486 2.98803C4.23747 2.94491 4.22228 2.89518 4.22089 2.84412C4.22089 2.79082 4.23887 2.75751 4.27485 2.74418C4.29941 2.73831 4.32496 2.73796 4.34967 2.74314C4.37438 2.74833 4.39763 2.75892 4.41776 2.77417C4.49697 2.82027 4.55958 2.89022 4.59665 2.97404C4.61338 3.01112 4.62223 3.05128 4.62263 3.09196L4.54568 3.04699C4.54556 3.00636 4.53415 2.96657 4.5127 2.93206C4.48901 2.89493 4.45636 2.86435 4.41776 2.84312C4.40541 2.83356 4.39125 2.8266 4.37613 2.82265C4.36102 2.8187 4.34527 2.81784 4.32982 2.82014C4.30883 2.82713 4.29784 2.84812 4.29784 2.8821C4.29892 2.91342 4.30936 2.9437 4.32782 2.96904C4.35616 3.01021 4.38976 3.0475 4.42775 3.07997C4.47041 3.11612 4.51017 3.15554 4.54668 3.1979C4.57147 3.22826 4.59198 3.26189 4.60764 3.29783C4.62037 3.3296 4.62681 3.36354 4.62663 3.39777C4.62663 3.45173 4.60864 3.48471 4.57166 3.4977C4.51987 3.50542 4.46712 3.4925 4.42476 3.46173C4.38325 3.43698 4.34554 3.40635 4.31283 3.37078C4.28024 3.33548 4.25327 3.29537 4.23288 3.25186C4.21522 3.21395 4.20569 3.17276 4.2049 3.13094L4.28185 3.17591C4.28252 3.21827 4.29612 3.25942 4.32082 3.29383C4.34629 3.33416 4.38043 3.3683 4.42076 3.39377C4.44757 3.41333 4.48069 3.42223 4.5137 3.41875C4.53568 3.41176 4.54568 3.39177 4.54568 3.35879C4.54542 3.32548 4.53496 3.29304 4.5157 3.26585C4.4855 3.22374 4.45063 3.18519 4.41176 3.15093Z" fill="#B0B3C1"></path>
  <path d="M4.89248 3.73651C4.83227 3.70069 4.78288 3.64923 4.74957 3.5876C4.7136 3.5235 4.69468 3.45124 4.69461 3.37773V3.36274C4.69254 3.32161 4.70115 3.28064 4.71959 3.24382C4.72612 3.23058 4.73567 3.21907 4.74748 3.21022C4.75928 3.20136 4.77301 3.19541 4.78755 3.19285C4.82244 3.1874 4.8581 3.19525 4.88748 3.21484C4.94379 3.24732 4.98931 3.29562 5.0184 3.35375C5.05062 3.4193 5.06672 3.49159 5.06537 3.56462V3.59759L4.76456 3.4307C4.7657 3.47992 4.77836 3.52818 4.80154 3.57161C4.82169 3.61292 4.85325 3.6476 4.89248 3.67155C4.91187 3.68486 4.93491 3.69184 4.95844 3.69153C4.97648 3.68992 4.99341 3.68216 5.00641 3.66955L5.05138 3.73651C5.0194 3.77748 4.96443 3.77848 4.89248 3.73651ZM4.88348 3.28479C4.87291 3.27665 4.8602 3.27175 4.8469 3.27068C4.83359 3.26962 4.82027 3.27244 4.80853 3.2788C4.79653 3.28917 4.78698 3.30208 4.78059 3.3166C4.77419 3.33112 4.77111 3.34689 4.77156 3.36274L4.98742 3.48766V3.48067C4.9864 3.43949 4.9758 3.39911 4.95644 3.36274C4.94008 3.33032 4.91476 3.30327 4.88348 3.28479Z" fill="#B0B3C1"></path>
  <path d="M5.41313 4.02729C5.40706 4.00851 5.40337 3.98903 5.40214 3.96933C5.38288 3.97954 5.36112 3.98411 5.33938 3.98252C5.31764 3.98093 5.29678 3.97324 5.27921 3.96034C5.23841 3.93546 5.20415 3.9012 5.17928 3.8604C5.15316 3.82243 5.13891 3.77756 5.13831 3.73148C5.13831 3.67952 5.15529 3.64953 5.18927 3.64054C5.24055 3.63548 5.29186 3.64973 5.33318 3.68052L5.40514 3.72149V3.68251C5.40508 3.65298 5.39715 3.624 5.38215 3.59857C5.36579 3.57091 5.34233 3.54813 5.31419 3.53261C5.29469 3.51906 5.27066 3.51368 5.24724 3.51762C5.23888 3.52015 5.2317 3.52554 5.22694 3.53286C5.22219 3.54017 5.22017 3.54894 5.22125 3.55759L5.1463 3.51462C5.14586 3.50374 5.14767 3.49288 5.15163 3.48274C5.15558 3.47259 5.16159 3.46337 5.16929 3.45566C5.17787 3.44826 5.1879 3.44275 5.19875 3.43948C5.2096 3.43621 5.22101 3.43525 5.23224 3.43667C5.26276 3.44016 5.29212 3.4504 5.31819 3.46665C5.36593 3.49269 5.40619 3.53054 5.43512 3.57658C5.46269 3.61961 5.4779 3.6694 5.47909 3.72049V3.95034C5.4783 3.99017 5.48335 4.0299 5.49408 4.06827V4.07526L5.41313 4.02729ZM5.29021 3.89738C5.30992 3.90969 5.33296 3.91563 5.35617 3.91437C5.36546 3.91406 5.37451 3.91131 5.3824 3.9064C5.39029 3.90149 5.39676 3.89458 5.40114 3.88638V3.78645L5.34317 3.75247C5.25323 3.7005 5.20826 3.7055 5.20826 3.76646C5.20814 3.79351 5.21614 3.81997 5.23125 3.84241C5.24618 3.86522 5.26641 3.88408 5.29021 3.89738Z" fill="#B0B3C1"></path>
  <path d="M5.79893 3.82973C5.78751 3.82061 5.77549 3.81226 5.76295 3.80475C5.71498 3.77677 5.68167 3.78176 5.66301 3.81974V4.17351L5.59006 4.13054V3.63086L5.66101 3.67183V3.7298C5.685 3.69982 5.71898 3.69682 5.76095 3.7228C5.77288 3.72936 5.78368 3.7378 5.79293 3.74778L5.79893 3.82973Z" fill="#B0B3C1"></path>
  <path d="M6.03274 4.32494C6.04264 4.33191 6.05395 4.3366 6.06587 4.33867C6.0778 4.34075 6.09003 4.34015 6.1017 4.33694C6.11168 4.33303 6.1202 4.32612 6.1261 4.31718C6.13201 4.30823 6.135 4.29768 6.13468 4.28697L6.20363 4.32694C6.20384 4.35158 6.19494 4.37542 6.17865 4.3939C6.17044 4.40225 6.16064 4.40885 6.14982 4.41331C6.139 4.41778 6.12739 4.42001 6.11569 4.41988C6.08631 4.4191 6.05767 4.41047 6.03274 4.3949C5.97269 4.35983 5.92409 4.30811 5.89283 4.24599C5.85755 4.17954 5.83935 4.10536 5.83986 4.03013V4.01514C5.83775 3.97444 5.846 3.93386 5.86385 3.89722C5.8698 3.88414 5.87898 3.87279 5.89051 3.86423C5.90205 3.85567 5.91557 3.85017 5.92981 3.84825C5.96519 3.84591 6.00034 3.8554 6.02974 3.87523C6.0796 3.90426 6.12123 3.94554 6.15066 3.99515C6.18128 4.04311 6.19885 4.09823 6.20163 4.15505L6.13268 4.11508C6.12983 4.07975 6.11889 4.04556 6.1007 4.01514C6.08316 3.98581 6.05883 3.96113 6.02974 3.94319C5.99243 3.92253 5.96345 3.92253 5.9428 3.94319C5.91794 3.97679 5.90686 4.01861 5.91182 4.06011V4.0761C5.91093 4.12807 5.92151 4.17959 5.9428 4.22701C5.96189 4.26819 5.99333 4.30242 6.03274 4.32494Z" fill="#B0B3C1"></path>
  <path d="M6.36349 4.13748C6.38145 4.12253 6.40408 4.11434 6.42745 4.11434C6.45082 4.11434 6.47345 4.12253 6.49141 4.13748C6.53577 4.16403 6.57189 4.20238 6.59571 4.24827C6.61954 4.29415 6.63013 4.34576 6.62632 4.39732V4.72711L6.55237 4.68414V4.35435C6.55335 4.32241 6.54612 4.29075 6.53138 4.26241C6.51485 4.23514 6.49141 4.21273 6.46342 4.19745C6.44478 4.18542 6.42245 4.18045 6.40046 4.18346C6.39123 4.18558 6.38259 4.18973 6.37516 4.19561C6.36772 4.20149 6.36169 4.20894 6.35749 4.21743V4.57221L6.28354 4.52923V3.82568L6.35749 3.86766L6.36349 4.13748Z" fill="#B0B3C1"></path>
  <path d="M6.73835 4.74878C6.73771 4.74303 6.73847 4.73721 6.74055 4.73182C6.74264 4.72643 6.746 4.72162 6.75034 4.7178C6.75734 4.7128 6.76933 4.7178 6.78432 4.7178C6.79836 4.72647 6.81003 4.73849 6.8183 4.75277C6.82609 4.76612 6.83023 4.78129 6.83029 4.79675C6.83097 4.80206 6.83022 4.80745 6.82811 4.81237C6.826 4.81729 6.82261 4.82156 6.8183 4.82473C6.8103 4.82973 6.79931 4.82473 6.78432 4.82473C6.76996 4.81691 6.75816 4.80511 6.75034 4.79075C6.74271 4.77806 6.73857 4.76358 6.73835 4.74878Z" fill="#B0B3C1"></path>
  <path d="M6.95319 4.87298C6.95246 4.86737 6.95317 4.86167 6.95527 4.85642C6.95737 4.85117 6.96079 4.84655 6.96519 4.843C6.97218 4.837 6.98417 4.843 6.99917 4.843C7.01285 4.85123 7.02424 4.86278 7.03227 4.87658C7.04031 4.89038 7.04473 4.90598 7.04514 4.92195C7.04582 4.92726 7.04506 4.93265 7.04296 4.93757C7.04085 4.94249 7.03746 4.94676 7.03314 4.94993C7.02615 4.94993 7.01416 4.94993 6.99917 4.94993C6.9848 4.94211 6.97301 4.93031 6.96519 4.91595C6.95739 4.90297 6.95324 4.88812 6.95319 4.87298Z" fill="#B0B3C1"></path>
  <path d="M7.16798 4.99676C7.16724 4.99115 7.16795 4.98545 7.17005 4.9802C7.17215 4.97495 7.17557 4.97033 7.17997 4.96678C7.18696 4.96078 7.19896 4.96678 7.21395 4.96678C7.22849 4.97435 7.24035 4.98621 7.24793 5.00075C7.25559 5.01416 7.25972 5.02929 7.25992 5.04473C7.26058 5.05018 7.25982 5.05571 7.25772 5.06079C7.25562 5.06586 7.25225 5.07031 7.24793 5.07371C7.24093 5.07371 7.22894 5.07371 7.21395 5.06771C7.19959 5.05989 7.18779 5.04809 7.17997 5.03373C7.17313 5.02252 7.16903 5.00985 7.16798 4.99676Z" fill="#B0B3C1"></path>
  <path d="M28.7682 17.5647L28.6083 17.2899C28.6339 17.2636 28.6535 17.2322 28.6659 17.1977C28.6783 17.1633 28.6832 17.1265 28.6803 17.09C28.674 16.9737 28.6404 16.8606 28.5822 16.7597C28.5241 16.6588 28.443 16.5731 28.3455 16.5094C28.1596 16.4024 28.0097 16.4894 28.0097 16.7032C28.0156 16.8209 28.0495 16.9354 28.1086 17.0372C28.1677 17.1391 28.2503 17.2254 28.3495 17.2889C28.4063 17.3272 28.476 17.3415 28.5434 17.3288L28.7043 17.6077C28.7232 17.6396 28.7532 17.6576 28.7722 17.6466C28.7912 17.6357 28.7862 17.5977 28.7682 17.5647ZM28.5314 17.2009C28.5255 17.1989 28.5192 17.1989 28.5134 17.2009C28.5088 17.2041 28.5053 17.2087 28.5034 17.2139C28.4774 17.2208 28.4503 17.2222 28.4238 17.2179C28.3973 17.2136 28.3719 17.2037 28.3495 17.1889C28.2762 17.1413 28.2152 17.0769 28.1714 17.0012C28.1276 16.9255 28.1024 16.8405 28.0976 16.7532C28.0976 16.5923 28.2106 16.5274 28.3495 16.6083C28.4227 16.656 28.4835 16.7204 28.5271 16.7961C28.5707 16.8718 28.5958 16.9568 28.6003 17.044C28.6025 17.0738 28.5974 17.1037 28.5854 17.1311C28.5733 17.1584 28.5548 17.1824 28.5314 17.2009Z" fill="white"></path>
  <path d="M22.5391 18.6423C20.0854 14.5075 15.9552 12.4325 13.3137 13.9941L11.0176 15.3133L11.8976 16.7779C12.0392 16.5524 12.207 16.3445 12.3974 16.1584C14.6299 15.4344 17.6985 17.1626 19.5917 20.3447C21.4849 23.5269 21.5243 27.0529 19.8204 28.6659C19.5963 28.7365 19.3653 28.7827 19.1313 28.8037L19.99 30.2305L22.1968 28.9658C24.8382 27.3982 24.9912 22.7757 22.5391 18.6423Z" fill="#D9DDF6"></path>
  <path d="M20.3307 19.9087C17.8771 15.7739 13.7468 13.6989 11.1054 15.2604C8.46392 16.822 8.31095 21.4506 10.7646 25.5854C13.2182 29.7202 17.3485 31.7952 19.9899 30.2321C22.6314 28.6691 22.7844 24.0405 20.3307 19.9087ZM19.8203 28.6676C17.5863 29.3915 14.5192 27.6634 12.626 24.4797C10.7328 21.2961 10.6934 17.7731 12.3973 16.1601C14.6298 15.4361 17.6984 17.1643 19.5916 20.3464C21.4848 23.5286 21.5242 27.053 19.8203 28.6661V28.6676Z" fill="#BABDD1"></path>
  <path d="M12.6292 24.4783C10.7405 21.2976 10.6966 17.7717 12.4005 16.1586C13.3744 15.8421 14.5088 15.9936 15.6341 16.5282C14.2528 15.8709 12.8609 15.7845 11.7659 16.4343C9.51671 17.7687 9.37434 21.6854 11.4478 25.1795C13.5213 28.6737 17.0276 30.4261 19.2767 29.0917C19.4745 28.971 19.6579 28.8282 19.8235 28.6661C17.5864 29.3901 14.5149 27.6619 12.6292 24.4783Z" fill="#9C9FAE"></path>
  <path opacity="0.1" d="M19.5962 20.3448C17.7075 17.1641 14.6344 15.4345 12.4019 16.1585C10.698 17.7715 10.7359 21.2959 12.6306 24.4781C14.5254 27.6602 17.5909 29.3899 19.8249 28.6659C21.5243 27.0529 21.4804 23.5284 19.5962 20.3448Z" fill="#384E85"></path>
  <path d="M22.6693 25.469L27.6204 28.324V29.5993L22.6693 26.7443V25.469Z" fill="#BABDD1"></path>
  <path d="M23.7734 24.8311L28.7246 27.6861L27.6204 28.3237L22.6693 25.4687L23.7734 24.8311Z" fill="#D9DDF6"></path>
  <path d="M26.5709 27.6028C27.0389 26.8122 27.828 26.4154 28.3324 26.7153L37.326 31.9437L35.613 34.7911L26.636 29.5733C26.1317 29.2734 26.109 28.3904 26.5709 27.6028Z" fill="#384E85"></path>
  <path d="M37.3744 33.9034C36.9049 34.6925 36.1173 35.0908 35.6129 34.7909C35.1086 34.4911 35.0783 33.6096 35.5478 32.822C36.0173 32.0344 36.8049 31.6345 37.3093 31.9344C37.8136 32.2343 37.8424 33.1143 37.3744 33.9034Z" fill="#2E4277"></path>
  <path opacity="0.1" d="M37.3744 33.9034C36.9049 34.6925 36.1173 35.0908 35.6129 34.7909C35.1086 34.4911 35.0783 33.6096 35.5478 32.822C36.0173 32.0344 36.8049 31.6345 37.3093 31.9344C37.8136 32.2343 37.8424 33.1143 37.3744 33.9034Z" fill="#3955D1"></path>
</svg>
