<?xml version="1.0" encoding="UTF-8"?>
<svg xmlns="http://www.w3.org/2000/svg" width="40" height="40" viewBox="0 0 40 40" fill="none">
  <g clip-path="url(#clip0)">
    <path d="M35.7533 17.2167C34.8857 16.7158 34.1806 17.1177 34.1777 18.1146C34.1749 19.1114 34.8755 20.3249 35.743 20.8257C36.6106 21.3266 37.3157 20.9247 37.3186 19.9279C37.3214 18.931 36.6208 17.7175 35.7533 17.2167Z" fill="#4466FB"></path>
    <path d="M34.8907 34.4899V36.4827C34.8888 37.1449 34.4536 37.806 33.5841 38.3113C31.8342 39.3283 28.9871 39.3283 27.2257 38.3114C26.3392 37.7995 25.8965 37.1278 25.8985 36.457L25.8984 34.4642C25.8965 35.135 26.3392 35.8067 27.2257 36.3186C28.9871 37.3355 31.8342 37.3355 33.5841 36.3185C34.4536 35.8132 34.8888 35.152 34.8907 34.4899Z" fill="#3955D1"></path>
    <path d="M35.0681 34.2264L35.0682 35.5585C35.0662 36.2468 34.6139 36.9341 33.7101 37.4593C31.8911 38.5163 28.9317 38.5164 27.1008 37.4593C26.1794 36.9273 25.7192 36.229 25.7212 35.5318L25.7212 34.1997C25.7192 34.8969 26.1794 35.5952 27.1008 36.1272C28.9317 37.1843 31.8911 37.1842 33.7101 36.1271C34.6138 35.6019 35.0662 34.9147 35.0681 34.2264Z" fill="#4466FB"></path>
    <path d="M35.0688 34.2255C35.073 32.7305 32.9841 31.5126 30.403 31.5053C27.8219 31.4979 25.726 32.704 25.7218 34.199C25.7176 35.694 27.8065 36.9119 30.3876 36.9193C32.9687 36.9266 35.0645 35.7206 35.0688 34.2255Z" fill="#6BB5FB"></path>
    <path d="M34.8907 31.7875V33.7803C34.8888 34.4425 34.4536 35.1036 33.5841 35.6089C31.8342 36.6259 28.9871 36.6259 27.2257 35.609C26.3392 35.0972 25.8965 34.4254 25.8985 33.7546L25.8984 31.7618C25.8965 32.4326 26.3392 33.1044 27.2257 33.6162C28.9871 34.6331 31.8342 34.6331 33.5841 33.6161C34.4536 33.1108 34.8888 32.4497 34.8907 31.7875Z" fill="#3955D1"></path>
    <path d="M35.0681 31.524L35.0682 32.8561C35.0662 33.5444 34.6139 34.2317 33.7101 34.7569C31.8911 35.814 28.9317 35.814 27.1008 34.7569C26.1794 34.2249 25.7192 33.5266 25.7212 32.8294L25.7212 31.4973C25.7192 32.1945 26.1794 32.8928 27.1008 33.4248C28.9317 34.4819 31.8911 34.4818 33.7101 33.4248C34.6138 32.8995 35.0662 32.2123 35.0681 31.524Z" fill="#4466FB"></path>
    <path d="M35.0688 31.5233C35.073 30.0282 32.9841 28.8103 30.403 28.803C27.8219 28.7957 25.726 30.0017 25.7218 31.4967C25.7176 32.9918 27.8065 34.2097 30.3876 34.217C32.9687 34.2243 35.0645 33.0183 35.0688 31.5233Z" fill="#6BB5FB"></path>
    <path d="M34.8907 29.0852V31.078C34.8888 31.7401 34.4536 32.4013 33.5841 32.9066C31.8342 33.9236 28.9871 33.9236 27.2257 32.9066C26.3392 32.3948 25.8965 31.7231 25.8985 31.0523L25.8984 29.0595C25.8965 29.7302 26.3392 30.402 27.2257 30.9138C28.9871 31.9308 31.8342 31.9308 33.5841 30.9138C34.4536 30.4085 34.8888 29.7473 34.8907 29.0852Z" fill="#3955D1"></path>
    <path d="M35.0681 28.8217L35.0682 30.1538C35.0662 30.8421 34.6139 31.5293 33.7101 32.0546C31.8911 33.1116 28.9317 33.1117 27.1008 32.0546C26.1794 31.5226 25.7192 30.8243 25.7212 30.1271L25.7212 28.795C25.7192 29.4922 26.1794 30.1905 27.1008 30.7225C28.9317 31.7795 31.8911 31.7795 33.7101 30.7224C34.6138 30.1972 35.0662 29.5099 35.0681 28.8217Z" fill="#4466FB"></path>
    <path d="M35.0688 28.8209C35.073 27.3259 32.9841 26.108 30.403 26.1007C27.8219 26.0933 25.726 27.2994 25.7218 28.7944C25.7176 30.2894 27.8065 31.5073 30.3876 31.5147C32.9687 31.522 35.0645 30.316 35.0688 28.8209Z" fill="#6BB5FB"></path>
    <path d="M35.8016 18.5488C35.6967 18.4859 35.6023 18.4859 35.5289 18.5278L32.8651 20.0669C31.2605 21.0003 30.002 23.1713 30.002 25.0275V28.8119C30.002 28.8854 30.0544 28.9693 30.1593 29.0322C30.3691 29.1581 30.7152 29.1581 30.9249 29.0322C31.0193 28.9693 31.0717 28.8959 31.0717 28.8119L31.0507 25.017C31.0507 23.5593 32.1205 21.7135 33.3895 20.9793L36.0533 19.4298C36.1267 19.3878 36.1687 19.304 36.1687 19.1885C36.1687 18.9578 36.0008 18.6642 35.8016 18.5488Z" fill="#3955D1"></path>
    <path d="M24.5995 10.8635C23.7319 10.3626 23.0268 10.7645 23.0239 11.7614C23.0211 12.7582 23.7217 13.9717 24.5892 14.4726C25.4568 14.9734 26.1619 14.5716 26.1648 13.5748C26.1676 12.5779 25.467 11.3644 24.5995 10.8635Z" fill="#4466FB"></path>
    <path d="M23.7378 28.1366L23.7378 30.1294C23.7359 30.7916 23.3008 31.4528 22.4313 31.9581C20.6813 32.975 17.8343 32.975 16.0729 31.9581C15.1864 31.4463 14.7437 30.7745 14.7456 30.1038L14.7456 28.111C14.7437 28.7817 15.1864 29.4535 16.0729 29.9653C17.8343 30.9822 20.6813 30.9822 22.4313 29.9653C23.3007 29.46 23.7359 28.7988 23.7378 28.1366Z" fill="#3955D1"></path>
    <path d="M23.9143 27.8732L23.9143 29.2054C23.9124 29.8936 23.46 30.5809 22.5563 31.1061C20.7373 32.1632 17.7779 32.1632 15.947 31.1062C15.0256 30.5742 14.5654 29.8759 14.5674 29.1787L14.5674 27.8466C14.5654 28.5437 15.0256 29.242 15.947 29.774C17.7779 30.8311 20.7373 30.8311 22.5563 29.774C23.46 29.2488 23.9124 28.5615 23.9143 27.8732Z" fill="#4466FB"></path>
    <path d="M23.9149 27.8725C23.9192 26.3774 21.8302 25.1595 19.2492 25.1522C16.6681 25.1448 14.5722 26.3509 14.568 27.8459C14.5637 29.3409 16.6527 30.5589 19.2338 30.5662C21.8149 30.5735 23.9107 29.3675 23.9149 27.8725Z" fill="#6BB5FB"></path>
    <path d="M23.7378 25.4343L23.7378 27.4271C23.7359 28.0893 23.3008 28.7505 22.4313 29.2558C20.6813 30.2727 17.8343 30.2728 16.0729 29.2558C15.1864 28.744 14.7437 28.0722 14.7456 27.4015L14.7456 25.4087C14.7437 26.0794 15.1864 26.7512 16.0729 27.263C17.8343 28.28 20.6813 28.2799 22.4313 27.263C23.3007 26.7577 23.7359 26.0965 23.7378 25.4343Z" fill="#3955D1"></path>
    <path d="M23.9143 25.1708L23.9143 26.503C23.9124 27.1912 23.46 27.8785 22.5563 28.4037C20.7373 29.4608 17.7779 29.4608 15.947 28.4038C15.0256 27.8718 14.5654 27.1735 14.5674 26.4763L14.5674 25.1442C14.5654 25.8414 15.0256 26.5396 15.947 27.0716C17.7779 28.1287 20.7373 28.1287 22.5563 27.0716C23.46 26.5464 23.9124 25.8591 23.9143 25.1708Z" fill="#4466FB"></path>
    <path d="M23.915 25.1701C23.9192 23.6751 21.8303 22.4572 19.2492 22.4498C16.6681 22.4425 14.5722 23.6485 14.568 25.1436C14.5637 26.6386 16.6527 27.8565 19.2338 27.8639C21.8149 27.8712 23.9107 26.6652 23.915 25.1701Z" fill="#6BB5FB"></path>
    <path d="M23.7378 22.732L23.7378 24.7248C23.7359 25.3869 23.3008 26.0481 22.4313 26.5534C20.6813 27.5704 17.8343 27.5704 16.0729 26.5534C15.1864 26.0416 14.7437 25.3698 14.7456 24.6991L14.7456 22.7063C14.7437 23.377 15.1864 24.0488 16.0729 24.5606C17.8343 25.5776 20.6813 25.5776 22.4313 24.5606C23.3007 24.0553 23.7359 23.3941 23.7378 22.732Z" fill="#3955D1"></path>
    <path d="M23.9143 22.4685L23.9143 23.8006C23.9124 24.4889 23.46 25.1762 22.5563 25.7014C20.7373 26.7585 17.7779 26.7585 15.947 25.7014C15.0256 25.1694 14.5654 24.4712 14.5674 23.774L14.5674 22.4418C14.5654 23.139 15.0256 23.8373 15.947 24.3693C17.7779 25.4264 20.7373 25.4264 22.5563 24.3693C23.46 23.8441 23.9124 23.1568 23.9143 22.4685Z" fill="#4466FB"></path>
    <path d="M23.9149 22.4678C23.9192 20.9728 21.8302 19.7548 19.2492 19.7475C16.6681 19.7402 14.5722 20.9462 14.568 22.4412C14.5637 23.9363 16.6527 25.1542 19.2338 25.1615C21.8149 25.1689 23.9107 23.9628 23.9149 22.4678Z" fill="#6BB5FB"></path>
    <path d="M24.6478 12.1956C24.5429 12.1327 24.4485 12.1327 24.3751 12.1746L21.7113 13.7137C20.1067 14.6471 18.8481 16.8181 18.8481 18.6743V22.4587C18.8481 22.5322 18.9006 22.6161 19.0055 22.679C19.2153 22.8048 19.5614 22.8048 19.7711 22.679C19.8655 22.6161 19.9179 22.5427 19.9179 22.4587L19.8969 18.6638C19.8969 17.2061 20.9667 15.3603 22.2357 14.6261L24.8995 13.0766C24.9729 13.0346 25.0149 12.9507 25.0149 12.8353C25.0149 12.6046 24.847 12.311 24.6478 12.1956Z" fill="#3955D1"></path>
    <path d="M13.4457 4.50939C12.5781 4.00852 11.873 4.41041 11.8701 5.40729C11.8673 6.40408 12.5679 7.61759 13.4354 8.11845C14.303 8.61932 15.0082 8.21744 15.011 7.22065C15.0138 6.22377 14.3132 5.01026 13.4457 4.50939Z" fill="#4466FB"></path>
    <path d="M12.584 21.7826V23.7753C12.5821 24.4375 12.147 25.0987 11.2775 25.604C9.52751 26.621 6.68048 26.621 4.91908 25.604C4.03259 25.0922 3.58991 24.4204 3.59181 23.7497L3.5918 21.7569C3.58991 22.4276 4.03258 23.0994 4.91906 23.6112C6.68048 24.6282 9.52751 24.6282 11.2775 23.6112C12.147 23.1059 12.5821 22.4447 12.584 21.7826Z" fill="#3955D1"></path>
    <path d="M12.7615 21.5191V22.8512C12.7595 23.5395 12.3072 24.2268 11.4034 24.752C9.58443 25.8091 6.62509 25.8091 4.79419 24.752C3.87273 24.22 3.41259 23.5217 3.41456 22.8246V21.4924C3.41258 22.1896 3.87272 22.8879 4.79419 23.4199C6.62509 24.477 9.58443 24.477 11.4034 23.4199C12.3072 22.8947 12.7595 22.2074 12.7615 21.5191Z" fill="#4466FB"></path>
    <path d="M12.7611 21.5183C12.7654 20.0233 10.6764 18.8054 8.09535 18.7981C5.51426 18.7907 3.41843 19.9967 3.41418 21.4918C3.40994 22.9868 5.49888 24.2047 8.07997 24.2121C10.6611 24.2194 12.7569 23.0134 12.7611 21.5183Z" fill="#6BB5FB"></path>
    <path d="M12.584 19.0802V21.073C12.5821 21.7351 12.147 22.3963 11.2775 22.9016C9.52751 23.9186 6.68048 23.9186 4.91908 22.9016C4.03259 22.3898 3.58991 21.718 3.59181 21.0473L3.5918 19.0545C3.58991 19.7252 4.03258 20.397 4.91906 20.9088C6.68048 21.9258 9.52751 21.9258 11.2775 20.9088C12.147 20.4035 12.5821 19.7423 12.584 19.0802Z" fill="#3955D1"></path>
    <path d="M12.7615 18.8167V20.1488C12.7596 20.8371 12.3072 21.5244 11.4034 22.0496C9.58445 23.1067 6.6251 23.1067 4.7942 22.0497C3.87274 21.5176 3.4126 20.8194 3.41457 20.1222L3.41456 18.79C3.41258 19.4872 3.87272 20.1855 4.79419 20.7175C6.62509 21.7746 9.58444 21.7746 11.4034 20.7175C12.3072 20.1923 12.7596 19.505 12.7615 18.8167Z" fill="#4466FB"></path>
    <path d="M12.7611 18.816C12.7654 17.3209 10.6764 16.103 8.09535 16.0957C5.51426 16.0884 3.41843 17.2944 3.41418 18.7894C3.40994 20.2845 5.49888 21.5024 8.07997 21.5097C10.6611 21.5171 12.7569 20.311 12.7611 18.816Z" fill="#6BB5FB"></path>
    <path d="M12.584 16.3778V18.3706C12.5821 19.0328 12.147 19.694 11.2775 20.1993C9.52751 21.2162 6.68048 21.2162 4.91908 20.1993C4.03259 19.6875 3.58991 19.0157 3.59181 18.345L3.5918 16.3522C3.58991 17.0229 4.03258 17.6947 4.91906 18.2065C6.68048 19.2234 9.52751 19.2234 11.2775 18.2065C12.147 17.7012 12.5821 17.04 12.584 16.3778Z" fill="#3955D1"></path>
    <path d="M12.7615 16.1144V17.4465C12.7596 18.1348 12.3072 18.8221 11.4034 19.3473C9.58445 20.4044 6.6251 20.4044 4.7942 19.3473C3.87274 18.8153 3.4126 18.117 3.41457 17.4198L3.41456 16.0877C3.41258 16.7849 3.87272 17.4832 4.79419 18.0152C6.62509 19.0723 9.58444 19.0722 11.4034 18.0152C12.3072 17.4899 12.7596 16.8027 12.7615 16.1144Z" fill="#4466FB"></path>
    <path d="M12.7611 16.1137C12.7654 14.6186 10.6764 13.4007 8.09535 13.3934C5.51426 13.3861 3.41843 14.5921 3.41418 16.0871C3.40994 17.5822 5.49888 18.8001 8.07997 18.8074C10.6611 18.8147 12.7569 17.6087 12.7611 16.1137Z" fill="#6BB5FB"></path>
    <path d="M13.4939 5.84147C13.3891 5.77855 13.2947 5.77855 13.2213 5.82048L10.5575 7.35959C8.95286 8.29299 7.69434 10.4639 7.69434 12.3202V16.1046C7.69434 16.178 7.74683 16.262 7.85168 16.3249C8.06144 16.4507 8.40756 16.4507 8.61725 16.3249C8.71167 16.262 8.76409 16.1885 8.76409 16.1046L8.7431 12.3097C8.7431 10.852 9.81285 9.00615 11.0819 8.27201L13.7457 6.72247C13.8191 6.68048 13.861 6.59662 13.861 6.48121C13.8611 6.25051 13.6932 5.95683 13.4939 5.84147Z" fill="#3955D1"></path>
  </g>
  <defs>
    <clipPath id="clip0">
      <rect width="40" height="40" fill="white"></rect>
    </clipPath>
  </defs>
</svg>
